<?xml version="1.0" encoding="utf-8"?>

<svg version="1.1" xmlns="http://www.w3.org/2000/svg" xmlns:xlink="http://www.w3.org/1999/xlink" x="0px" y="0px" width="2420px"
	 height="336px" viewBox="0 0 2420 336" style="enable-background:new 0 0 2420 336;" xml:space="preserve">
<style type="text/css">
	.st0{fill-rule:evenodd;clip-rule:evenodd;fill:#FFFFFF;}
	.st1{fill-rule:evenodd;clip-rule:evenodd;fill:#A9AEBA;}
	.st2{fill-rule:evenodd;clip-rule:evenodd;fill:#CBCED3;}
	.st3{fill-rule:evenodd;clip-rule:evenodd;fill:#E2E4E7;stroke:#D2D7DB;stroke-miterlimit:22.9256;}
	.st4{opacity:0.25;filter:url(#AI_Тень_1_справа);}
	.st5{fill-rule:evenodd;clip-rule:evenodd;fill:#E2E4E7;}
	.st6{fill:none;stroke:#D2D7DB;stroke-miterlimit:22.9256;}
	.st7{opacity:0.25;filter:url(#AI_Тень_1_слева);}
	.st8{fill-rule:evenodd;clip-rule:evenodd;fill:#868D98;}
	.st9{fill:#FFFFFF;}
	.st10{font-family:'Roboto','Helvetica Neue',sans-serif;}
	.st11{font-size:20px;}
	.st12{fill:#A4C4EE;opacity:0;}
	.st13{fill:#CFAFE4;opacity:0;}
	.st14{fill-rule:evenodd;clip-rule:evenodd;fill:none;stroke:#BBDDFF;stroke-width:4;stroke-miterlimit:22.9256;}
</style>
<filter  filterUnits="objectBoundingBox" id="AI_Тень_1_справа">
	<feGaussianBlur  stdDeviation="2" in="SourceAlpha" result="blur"></feGaussianBlur>
	<feOffset  dx="2" dy="4" in="blur" result="offsetBlurredAlpha"></feOffset>
	<feMerge>
		<feMergeNode  in="offsetBlurredAlpha"></feMergeNode>
		<feMergeNode  in="SourceGraphic"></feMergeNode>
	</feMerge>
</filter>
<filter  filterUnits="objectBoundingBox" id="AI_Тень_1_слева">
	<feGaussianBlur  stdDeviation="2" in="SourceAlpha" result="blur"></feGaussianBlur>
	<feOffset  dx="-2" dy="4" in="blur" result="offsetBlurredAlpha"></feOffset>
	<feMerge>
		<feMergeNode  in="offsetBlurredAlpha"></feMergeNode>
		<feMergeNode  in="SourceGraphic"></feMergeNode>
	</feMerge>
</filter>
<g id="Fon">
	<path class="st0" d="M9.182,9.368C8.43,10.164,8,11.194,8,12.297v311.408c0,0.948,0.43,2.218,1.131,2.882l0.075,0.071l0.073,0.073
		C10.088,327.539,11.154,328,12.3,328h2395.4c1.328,0,2.168-0.501,3.117-1.366c0.754-0.796,1.183-1.826,1.183-2.929V12.297
		c0-0.795-0.42-2.23-1.027-2.786l-0.128-0.118l-0.123-0.123c-0.809-0.808-1.875-1.27-3.021-1.27H12.3
		C10.97,8,10.133,8.504,9.182,9.368z"/>
</g>
<g id="Railway_carriage">
	<path class="st1" d="M12.3,0h2395.4c3.377,0,6.446,1.384,8.674,3.61c2.292,2.098,3.626,5.615,3.626,8.687v311.408
		c0,3.374-1.384,6.444-3.609,8.671c-2.496,2.327-5.226,3.624-8.691,3.624H12.3c-3.376,0-6.445-1.383-8.674-3.608
		C1.324,330.208,0,326.857,0,323.705V12.297c0-3.375,1.384-6.444,3.61-8.672C6.108,1.299,8.832,0,12.3,0L12.3,0z M9.182,9.368
		C8.43,10.164,8,11.194,8,12.297v311.408c0,0.948,0.43,2.218,1.131,2.882l0.075,0.071l0.073,0.073
		C10.088,327.539,11.154,328,12.3,328h2395.4c1.328,0,2.168-0.501,3.117-1.366c0.754-0.796,1.183-1.826,1.183-2.929V12.297
		c0-0.795-0.42-2.23-1.027-2.786l-0.128-0.118l-0.123-0.123c-0.809-0.808-1.875-1.27-3.021-1.27H12.3
		C10.97,8,10.133,8.504,9.182,9.368z"/>
</g>
<g id="Compartment">
	<path class="st1" d="M112,134h24.774v8H112h-6.607H104V8h8V134z M520,328h8v-24h-8V328z M803.666,234v-48h82h8v-8v-40h-8v40h-82V8
		h-8v170h-82v-40h-8v40v8h8h82v48H679.333v8h116.333h8h116.333v-8H803.666z M2296,8h-8v140h-20.5v8h20.5v86h8V8z M2174,328h8v-12h-8
		V328z M2288,328h8v-16h-8V328z M1071.333,242h8h86.333v-8h-86.333V8h-8v226H985v8H1071.333z M1346.999,242h8h116.333v-8h-116.333
		v-48h82h8v-8v-40h-8v40h-82V8h-8v170h-82v-40h-8v40v8h8h82v48h-116.333v8H1346.999z M2174,242v8h8l0-94h20.65v-8H2182V8h-8v226
		h-86.334v8H2174z M232,150l48.097,15.364l2.434-7.621L240,144.157V8h-8v126h-41.225v8H232V150z M331.536,181.796L362,191.527v0.11
		h0.345l34.799,11.116l2.434-7.621L370,185.685V8.001h-8v175.129l-28.03-8.954L331.536,181.796z M461.052,223.169L519.999,242h0h0v8
		h8v-8h86.333v-8H528v-2.298V8h-8v223.702v1.9l-56.514-18.053L461.052,223.169z M104,328h8V227.974h73.529L331,274.443V328h8
		v-59.399h0l-152.223-48.627H112V216h-8V328z M1622.666,242h8h86.333v-8h-86.333V8h-8v226h-86.333v8H1622.666z M1898.332,242h8
		h116.333v-8h-116.333v-48h82h8v-8v-40h-8v40h-82V8h-8v170h-82v-40h-8v40v8h8h82v48h-116.333v8H1898.332z M705.667,88h8V8h-8V88z
		 M1257,88h8V8h-8V88z M1436.999,88h8V8h-8V88z M1808.333,88h8V8h-8V88z M1988.332,88h8V8h-8V88z M885.666,88h8V8h-8V88z"/>
</g>
<g id="Wardrobe">
	<rect x="705.666" y="186" class="st2" width="90" height="48"/>
	<rect x="803.666" y="186.206" class="st2" width="90" height="47.794"/>
	<rect x="1257" y="186" class="st2" width="90" height="48"/>
	<rect x="1355" y="186.206" class="st2" width="90" height="47.794"/>
	<rect x="1808.333" y="186" class="st2" width="90" height="48"/>
	<rect x="1906.333" y="186.206" class="st2" width="90" height="47.794"/>
</g>
<g id="Seats">
	<path id="Seat1" class="st3" d="M528,112.987h45.001c8.249,0,14.999,6.75,14.999,15v88.715c0,8.25-6.75,15-14.999,15H528V112.987z"
		/>
	<g id="Shadow2" class="st4">
		<path class="st5" d="M528,13h45.001C581.25,13,588,19.75,588,28v94c0,8.25-6.75,15-14.999,15H528V13z"/>
		<path class="st6" d="M528,13h45.001C581.25,13,588,19.75,588,28v94c0,8.25-6.75,15-14.999,15H528V13z"/>
	</g>
	<path id="Seat2" class="st3" d="M528,13h45.001C581.25,13,588,19.75,588,28v94c0,8.25-6.75,15-14.999,15H528V13z"/>
	<path id="Seat3" class="st3" d="M1071.333,112.987h-45.001c-8.249,0-14.999,6.75-14.999,15v88.715c0,8.25,6.75,15,14.999,15h45.001
		V112.987z"/>
	<g id="Shadow4" class="st7">
		<path class="st5" d="M1071.333,13h-45.001c-8.249,0-14.999,6.75-14.999,15v94c0,8.25,6.75,15,14.999,15h45.001V13z"/>
		<path class="st6" d="M1071.333,13h-45.001c-8.249,0-14.999,6.75-14.999,15v94c0,8.25,6.75,15,14.999,15h45.001V13z"/>
	</g>
	<path id="Seat4" class="st3" d="M1071.333,13h-45.001c-8.249,0-14.999,6.75-14.999,15v94c0,8.25,6.75,15,14.999,15h45.001V13z"/>
	<path id="Seat5" class="st3" d="M1079.333,112.987h45.001c8.249,0,14.999,6.75,14.999,15v88.715c0,8.25-6.75,15-14.999,15h-45.001
		V112.987z"/>
	<g id="Shadow6" class="st4">
		<path class="st5" d="M1079.333,13h45.001c8.249,0,14.999,6.75,14.999,15v94c0,8.25-6.75,15-14.999,15h-45.001V13z"/>
		<path class="st6" d="M1079.333,13h45.001c8.249,0,14.999,6.75,14.999,15v94c0,8.25-6.75,15-14.999,15h-45.001V13z"/>
	</g>
	<path id="Seat6" class="st3" d="M1079.333,13h45.001c8.249,0,14.999,6.75,14.999,15v94c0,8.25-6.75,15-14.999,15h-45.001V13z"/>
	<path id="Seat7" class="st3" d="M1622.666,112.987h-45.001c-8.249,0-14.999,6.75-14.999,15v88.715c0,8.25,6.75,15,14.999,15h45.001
		V112.987z"/>
	<g id="Shadow8" class="st7">
		<path class="st5" d="M1622.666,13h-45.001c-8.249,0-14.999,6.75-14.999,15v94c0,8.25,6.75,15,14.999,15h45.001V13z"/>
		<path class="st6" d="M1622.666,13h-45.001c-8.249,0-14.999,6.75-14.999,15v94c0,8.25,6.75,15,14.999,15h45.001V13z"/>
	</g>
	<path id="Seat8" class="st3" d="M1622.666,13h-45.001c-8.249,0-14.999,6.75-14.999,15v94c0,8.25,6.75,15,14.999,15h45.001V13z"/>
	<path id="Seat9" class="st3" d="M1630.666,112.987h45.001c8.249,0,14.999,6.75,14.999,15v88.715c0,8.25-6.75,15-14.999,15h-45.001
		V112.987z"/>
	<g id="Shadow10" class="st4">
		<path class="st5" d="M1630.666,13h45.001c8.249,0,14.999,6.75,14.999,15v94c0,8.25-6.75,15-14.999,15h-45.001V13z"/>
		<path class="st6" d="M1630.666,13h45.001c8.249,0,14.999,6.75,14.999,15v94c0,8.25-6.75,15-14.999,15h-45.001V13z"/>
	</g>
	<path id="Seat10" class="st3" d="M1630.666,13h45.001c8.249,0,14.999,6.75,14.999,15v94c0,8.25-6.75,15-14.999,15h-45.001V13z"/>
	<path id="Seat11" class="st3" d="M2174,112.987h-45.001c-8.25,0-14.999,6.75-14.999,15v88.715c0,8.25,6.75,15,14.999,15H2174
		V112.987z"/>
	<g id="Shadow12" class="st7">
		<path class="st5" d="M2174,13h-45.001c-8.25,0-14.999,6.75-14.999,15v94c0,8.25,6.75,15,14.999,15H2174V13z"/>
		<path class="st6" d="M2174,13h-45.001c-8.25,0-14.999,6.75-14.999,15v94c0,8.25,6.75,15,14.999,15H2174V13z"/>
	</g>
	<path id="Seat12" class="st3" d="M2174,13h-45.001c-8.25,0-14.999,6.75-14.999,15v94c0,8.25,6.75,15,14.999,15H2174V13z"/>
	<path class="st3" d="M705.667,13h-22.353c-9.706,0-17.647,7.941-17.647,17.647v21.706c0,9.706,7.941,17.647,17.647,17.647h22.353
		V13z"/>
	<path class="st3" d="M893.666,13h22.353c9.706,0,17.647,7.941,17.647,17.647v21.706c0,9.706-7.941,17.647-17.647,17.647h-22.353V13
		z"/>
	<path class="st3" d="M1257,13h-25c-8.25,0-15,6.75-15,15v27c0,8.25,6.75,15,15,15h25V13z"/>
	<path class="st3" d="M1444.999,13H1470c8.25,0,15,6.75,15,15v27c0,8.25-6.75,15-15,15h-25.001V13z"/>
	<path class="st3" d="M1808.333,13h-25.003c-8.25,0-15,6.75-15,15v27c0,8.25,6.75,15,15,15h25.003V13z"/>
	<path class="st3" d="M1996.332,12.84h24.95c8.278,0,15.05,6.772,15.05,15.05v26.9c0,8.277-6.773,15.05-15.05,15.05h-24.95V12.84z"
		/>
</g>
<g id="Icon_seat">
	<path id="Chair" class="st8" d="M692.381,31.526c1.432,0,2.594-1.161,2.594-2.593c0-1.433-1.162-2.593-2.594-2.593
		c-1.432,0-2.595,1.16-2.595,2.593C689.786,30.365,690.949,31.526,692.381,31.526L692.381,31.526z M691.64,47.242L691.64,47.242
		l5.568-10.491c1.992,1.092,1.778,2.152,0.845,3.954c-1.45,2.798-4.396,8.456-4.826,9.281h0.001
		c-0.289,0.545-0.563,1.045-1.258,1.084h-1.278h-3.491h-1.243c-1.372,0.088-2.695-1.38-2.723-2.744h7.147
		C691.077,48.287,691.351,47.787,691.64,47.242L691.64,47.242z M679.336,43.489L679.336,43.489l0.022-0.022l0.001,0.001
		c0.417-0.345,0.976-0.544,1.687-0.545l5.505-0.161l4.326-7.907c1.845-4.226,6.531-2.453,5.181,0.961l-5.361,10.121
		c-0.502,0.959-0.819,1.109-1.817,1.109h-6.963c-0.195,1.126-0.529,5.643-0.788,7.475c-0.209,1.507-1.556,1.944-2.944,1.79
		l0.236-7.646c-0.899,0.737-1.861,1.526-2.478,1.992c-1.214,0.917-2.476,0.273-3.349-0.817l6.53-6.15
		C679.186,43.615,679.26,43.552,679.336,43.489z"/>
	<path id="Chair_1_" class="st8" d="M2009.618,31.526c1.432,0,2.595-1.161,2.595-2.593c0-1.433-1.163-2.593-2.595-2.593
		s-2.594,1.16-2.594,2.593C2007.024,30.365,2008.186,31.526,2009.618,31.526L2009.618,31.526z M2010.359,47.242
		c0.289,0.545,0.563,1.045,1.258,1.084h7.147c-0.028,1.364-1.35,2.832-2.723,2.744h-1.243h-3.491h-1.278
		c-0.696-0.039-0.97-0.539-1.258-1.084h0.001c-0.431-0.825-3.376-6.483-4.826-9.281c-0.933-1.802-1.147-2.862,0.845-3.954
		L2010.359,47.242L2010.359,47.242L2010.359,47.242z M2022.876,43.689l6.53,6.15c-0.873,1.09-2.136,1.734-3.349,0.817
		c-0.618-0.466-1.579-1.255-2.478-1.992l0.236,7.646c-1.389,0.154-2.736-0.283-2.944-1.79c-0.259-1.831-0.593-6.349-0.788-7.475
		h-6.963c-0.999,0-1.315-0.151-1.817-1.109l-5.361-10.121c-1.349-3.414,3.336-5.187,5.181-0.961l4.327,7.907l5.505,0.161
		c0.712,0.001,1.27,0.2,1.687,0.545l0.001-0.001l0.022,0.022l0,0C2022.739,43.552,2022.813,43.615,2022.876,43.689z"/>
	<path id="Chair_2_" class="st8" d="M1243.714,31.526c1.432,0,2.594-1.161,2.594-2.593c0-1.433-1.162-2.593-2.594-2.593
		c-1.432,0-2.595,1.16-2.595,2.593C1241.119,30.365,1242.282,31.526,1243.714,31.526L1243.714,31.526z M1242.973,47.242
		L1242.973,47.242l5.568-10.491c1.992,1.092,1.778,2.152,0.845,3.954c-1.45,2.798-4.396,8.456-4.826,9.281h0.001
		c-0.289,0.545-0.563,1.045-1.258,1.084h-1.278h-3.491h-1.243c-1.372,0.088-2.695-1.38-2.723-2.744h7.147
		C1242.41,48.287,1242.685,47.787,1242.973,47.242L1242.973,47.242z M1230.669,43.489L1230.669,43.489l0.022-0.022l0.001,0.001
		c0.417-0.345,0.976-0.544,1.687-0.545l5.505-0.161l4.326-7.907c1.845-4.226,6.531-2.453,5.181,0.961l-5.361,10.121
		c-0.502,0.959-0.819,1.109-1.817,1.109h-6.963c-0.195,1.126-0.529,5.643-0.788,7.475c-0.209,1.507-1.556,1.944-2.944,1.79
		l0.236-7.646c-0.899,0.737-1.861,1.526-2.479,1.992c-1.214,0.917-2.476,0.273-3.349-0.817l6.53-6.15
		C1230.52,43.615,1230.594,43.552,1230.669,43.489z"/>
	<path id="Chair_3_" class="st8" d="M1458.285,31.526c1.432,0,2.595-1.161,2.595-2.593c0-1.433-1.163-2.593-2.595-2.593
		s-2.594,1.16-2.594,2.593C1455.692,30.365,1456.853,31.526,1458.285,31.526L1458.285,31.526z M1459.026,47.242
		c0.289,0.545,0.563,1.045,1.258,1.084h7.147c-0.028,1.364-1.35,2.832-2.723,2.744h-1.243h-3.491h-1.278
		c-0.696-0.039-0.97-0.539-1.258-1.084h0.001c-0.431-0.825-3.376-6.483-4.826-9.281c-0.933-1.802-1.147-2.862,0.845-3.954
		L1459.026,47.242L1459.026,47.242L1459.026,47.242z M1471.543,43.689l6.53,6.15c-0.874,1.09-2.136,1.734-3.349,0.817
		c-0.618-0.466-1.579-1.255-2.478-1.992l0.236,7.646c-1.389,0.154-2.736-0.283-2.944-1.79c-0.259-1.831-0.593-6.349-0.788-7.475
		h-6.963c-0.999,0-1.315-0.151-1.817-1.109l-5.361-10.121c-1.349-3.414,3.336-5.187,5.181-0.961l4.326,7.907l5.505,0.161
		c0.712,0.001,1.27,0.2,1.687,0.545l0.001-0.001l0.022,0.022l0,0C1471.406,43.552,1471.48,43.615,1471.543,43.689z"/>
	<path id="Chair_4_" class="st8" d="M1795.046,31.526c1.432,0,2.594-1.161,2.594-2.593c0-1.433-1.162-2.593-2.594-2.593
		s-2.595,1.16-2.595,2.593C1792.451,30.365,1793.614,31.526,1795.046,31.526L1795.046,31.526z M1794.305,47.242L1794.305,47.242
		l5.568-10.491c1.992,1.092,1.778,2.152,0.845,3.954c-1.45,2.798-4.396,8.456-4.826,9.281h0.001
		c-0.289,0.545-0.563,1.045-1.258,1.084h-1.278h-3.491h-1.243c-1.372,0.088-2.695-1.38-2.723-2.744h7.147
		C1793.742,48.287,1794.016,47.787,1794.305,47.242L1794.305,47.242z M1782,43.489L1782,43.489l0.022-0.022l0.001,0.001
		c0.417-0.345,0.975-0.544,1.687-0.545l5.505-0.161l4.327-7.907c1.845-4.226,6.531-2.453,5.181,0.961l-5.361,10.121
		c-0.502,0.959-0.818,1.109-1.817,1.109h-6.963c-0.195,1.126-0.529,5.643-0.788,7.475c-0.209,1.507-1.556,1.944-2.944,1.79
		l0.236-7.646c-0.899,0.737-1.861,1.526-2.478,1.992c-1.214,0.917-2.476,0.273-3.349-0.817l6.53-6.15
		C1781.851,43.615,1781.925,43.552,1782,43.489z"/>
	<path id="Chair_5_" class="st8" d="M906.952,31.526c1.432,0,2.595-1.161,2.595-2.593c0-1.433-1.163-2.593-2.595-2.593
		c-1.432,0-2.594,1.16-2.594,2.593C904.358,30.365,905.52,31.526,906.952,31.526L906.952,31.526z M907.693,47.242
		c0.289,0.545,0.563,1.045,1.258,1.084h7.147c-0.028,1.364-1.351,2.832-2.723,2.744h-1.243h-3.491h-1.278
		c-0.696-0.039-0.97-0.539-1.258-1.084h0.001c-0.431-0.825-3.376-6.483-4.826-9.281c-0.933-1.802-1.147-2.862,0.845-3.954
		L907.693,47.242L907.693,47.242L907.693,47.242z M920.21,43.689l6.53,6.15c-0.873,1.09-2.136,1.734-3.349,0.817
		c-0.618-0.466-1.579-1.255-2.478-1.992l0.236,7.646c-1.389,0.154-2.736-0.283-2.944-1.79c-0.259-1.831-0.593-6.349-0.788-7.475
		h-6.963c-0.999,0-1.315-0.151-1.817-1.109l-5.361-10.121c-1.349-3.414,3.336-5.187,5.181-0.961l4.326,7.907l5.505,0.161
		c0.712,0.001,1.27,0.2,1.687,0.545l0.002-0.001l0.022,0.022l0,0C920.072,43.552,920.146,43.615,920.21,43.689z"/>
</g>
<g id="Numbers" pointer-events="none">
	<text transform="matrix(1.0003 0 0 1 552.3832 191.1404)" class="st9 st10 st11">1</text>
	<text transform="matrix(1.0003 0 0 1 552.3832 83.2097)" class="st9 st10 st11">2</text>
	<text transform="matrix(1.0003 0 0 1 1035.7161 191.1404)" class="st9 st10 st11">3</text>
	<text transform="matrix(1.0003 0 0 1 1035.7161 83.2097)" class="st9 st10 st11">4</text>
	<text transform="matrix(1.0003 0 0 1 1103.7161 191.1404)" class="st9 st10 st11">5</text>
	<text transform="matrix(1.0003 0 0 1 1103.7161 83.2097)" class="st9 st10 st11">6</text>
	<text transform="matrix(1.0003 0 0 1 1587.0493 191.1404)" class="st9 st10 st11">7</text>
	<text transform="matrix(1.0003 0 0 1 1587.0492 83.2097)" class="st9 st10 st11">8</text>
	<text transform="matrix(1.0003 0 0 1 1655.0493 191.1404)" class="st9 st10 st11">9</text>
	<text transform="matrix(1.0003 0 0 1 1649.432 83.2097)" class="st9 st10 st11">10</text>
	<text transform="matrix(1.0003 0 0 1 2132.7659 191.1404)" class="st9 st10 st11">11</text>
	<text transform="matrix(1.0003 0 0 1 2132.7659 83.2097)" class="st9 st10 st11">12</text>
</g>
<g id="Pol">
	<g>
		<g id="SexMF1">
			<path class="st12" d="M633.968,227.787V215h-2.557v-9.378c0-1.876,1.534-3.41,3.41-3.41h5.115c1.875,0,3.41,1.535,3.41,3.41V215
				h-2.557v12.787H633.968z M637.378,200.507c1.893,0,3.41-1.517,3.41-3.41c0-1.893-1.517-3.41-3.41-3.41
				c-1.893,0-3.41,1.517-3.41,3.41C633.968,198.99,635.486,200.507,637.378,200.507z"/>
			<path class="st13" d="M654.686,202.212c1.466,0,2.762,0.938,3.24,2.336l0,0l4.331,13.009h-5.115v10.23h-5.115v-10.23h-5.115
				l4.331-13.009c0.46-1.398,1.773-2.336,3.24-2.336l0,0H654.686z M654.583,193.687c1.893,0,3.41,1.517,3.41,3.41
				c0,1.893-1.517,3.41-3.41,3.41c-1.893,0-3.41-1.517-3.41-3.41C651.173,195.205,652.691,193.687,654.583,193.687z"/>
		</g>
		<path id="SexF1" class="st13" d="M646.936,202.212c1.466,0,2.762,0.938,3.24,2.336l0,0l4.331,13.009h-5.115v10.23h-5.115v-10.23
			h-5.115l4.331-13.009c0.46-1.398,1.773-2.336,3.24-2.336l0,0H646.936z M646.833,193.687c1.893,0,3.41,1.517,3.41,3.41
			c0,1.893-1.517,3.41-3.41,3.41c-1.893,0-3.41-1.517-3.41-3.41C643.423,195.205,644.941,193.687,646.833,193.687z"/>
		<path id="SexM1" class="st12" d="M643.423,227.787V215h-2.557v-9.378c0-1.876,1.534-3.41,3.41-3.41h5.115
			c1.875,0,3.41,1.535,3.41,3.41V215h-2.557v12.787H643.423z M646.833,200.507c1.893,0,3.41-1.517,3.41-3.41
			c0-1.893-1.517-3.41-3.41-3.41c-1.893,0-3.41,1.517-3.41,3.41C643.423,198.99,644.941,200.507,646.833,200.507z"/>
	</g>
	<g>
		<g id="SexMF2">
			<path class="st12" d="M939.634,227.787V215h-2.557v-9.378c0-1.876,1.534-3.41,3.41-3.41h5.115c1.875,0,3.41,1.535,3.41,3.41V215
				h-2.557v12.787H939.634z M943.044,200.507c1.893,0,3.41-1.517,3.41-3.41c0-1.893-1.517-3.41-3.41-3.41
				c-1.893,0-3.41,1.517-3.41,3.41C939.634,198.99,941.152,200.507,943.044,200.507z"/>
			<path class="st13" d="M960.352,202.212c1.466,0,2.762,0.938,3.24,2.336l0,0l4.331,13.009h-5.115v10.23h-5.115v-10.23h-5.115
				l4.331-13.009c0.46-1.398,1.773-2.336,3.24-2.336l0,0H960.352z M960.249,193.687c1.893,0,3.41,1.517,3.41,3.41
				c0,1.893-1.517,3.41-3.41,3.41c-1.893,0-3.41-1.517-3.41-3.41C956.839,195.205,958.357,193.687,960.249,193.687z"/>
		</g>
		<path id="SexF2" class="st13" d="M952.602,202.212c1.466,0,2.762,0.938,3.239,2.336l0,0l4.331,13.009h-5.115v10.23h-5.115v-10.23
			h-5.115l4.331-13.009c0.46-1.398,1.773-2.336,3.24-2.336l0,0H952.602z M952.499,193.687c1.893,0,3.41,1.517,3.41,3.41
			c0,1.893-1.517,3.41-3.41,3.41c-1.893,0-3.41-1.517-3.41-3.41C949.089,195.205,950.607,193.687,952.499,193.687z"/>
		<path id="SexM2" class="st12" d="M949.089,227.787V215h-2.557v-9.378c0-1.876,1.534-3.41,3.41-3.41h5.115
			c1.875,0,3.41,1.535,3.41,3.41V215h-2.557v12.787H949.089z M952.499,200.507c1.893,0,3.41-1.517,3.41-3.41
			c0-1.893-1.517-3.41-3.41-3.41c-1.893,0-3.41,1.517-3.41,3.41C949.089,198.99,950.607,200.507,952.499,200.507z"/>
	</g>
	<g>
		<g id="SexMF3">
			<path class="st12" d="M1185.301,227.787V215h-2.557v-9.378c0-1.876,1.535-3.41,3.41-3.41h5.115c1.875,0,3.41,1.535,3.41,3.41V215
				h-2.558v12.787H1185.301z M1188.711,200.507c1.893,0,3.41-1.517,3.41-3.41c0-1.893-1.517-3.41-3.41-3.41s-3.41,1.517-3.41,3.41
				C1185.301,198.99,1186.819,200.507,1188.711,200.507z"/>
			<path class="st13" d="M1206.018,202.212c1.466,0,2.762,0.938,3.24,2.336l0,0l4.331,13.009h-5.115v10.23h-5.115v-10.23h-5.115
				l4.331-13.009c0.46-1.398,1.773-2.336,3.24-2.336l0,0H1206.018z M1205.916,193.687c1.893,0,3.41,1.517,3.41,3.41
				c0,1.893-1.517,3.41-3.41,3.41s-3.41-1.517-3.41-3.41C1202.506,195.205,1204.024,193.687,1205.916,193.687z"/>
		</g>
		<path id="SexF3" class="st13" d="M1198.268,202.212c1.466,0,2.762,0.938,3.24,2.336l0,0l4.331,13.009h-5.115v10.23h-5.115v-10.23
			h-5.115l4.331-13.009c0.46-1.398,1.773-2.336,3.24-2.336l0,0H1198.268z M1198.166,193.687c1.893,0,3.41,1.517,3.41,3.41
			c0,1.893-1.517,3.41-3.41,3.41s-3.41-1.517-3.41-3.41C1194.756,195.205,1196.274,193.687,1198.166,193.687z"/>
		<path id="SexM3" class="st12" d="M1194.756,227.787V215h-2.557v-9.378c0-1.876,1.535-3.41,3.41-3.41h5.115
			c1.875,0,3.41,1.535,3.41,3.41V215h-2.557v12.787H1194.756z M1198.166,200.507c1.893,0,3.41-1.517,3.41-3.41
			c0-1.893-1.517-3.41-3.41-3.41s-3.41,1.517-3.41,3.41C1194.756,198.99,1196.274,200.507,1198.166,200.507z"/>
	</g>
	<g>
		<g id="SexMF4">
			<path class="st12" d="M1490.968,227.787V215h-2.557v-9.378c0-1.876,1.535-3.41,3.41-3.41h5.115c1.875,0,3.41,1.535,3.41,3.41V215
				h-2.557v12.787H1490.968z M1494.378,200.507c1.893,0,3.41-1.517,3.41-3.41c0-1.893-1.517-3.41-3.41-3.41s-3.41,1.517-3.41,3.41
				C1490.968,198.99,1492.485,200.507,1494.378,200.507z"/>
			<path class="st13" d="M1511.685,202.212c1.466,0,2.762,0.938,3.24,2.336l0,0l4.331,13.009h-5.115v10.23h-5.115v-10.23h-5.115
				l4.331-13.009c0.46-1.398,1.773-2.336,3.24-2.336l0,0H1511.685z M1511.583,193.687c1.893,0,3.41,1.517,3.41,3.41
				c0,1.893-1.517,3.41-3.41,3.41s-3.41-1.517-3.41-3.41C1508.173,195.205,1509.69,193.687,1511.583,193.687z"/>
		</g>
		<path id="SexF4" class="st13" d="M1503.935,202.212c1.466,0,2.762,0.938,3.24,2.336l0,0l4.331,13.009h-5.115v10.23h-5.115v-10.23
			h-5.115l4.331-13.009c0.46-1.398,1.773-2.336,3.24-2.336l0,0H1503.935z M1503.833,193.687c1.893,0,3.41,1.517,3.41,3.41
			c0,1.893-1.517,3.41-3.41,3.41s-3.41-1.517-3.41-3.41C1500.423,195.205,1501.94,193.687,1503.833,193.687z"/>
		<path id="SexM4" class="st12" d="M1500.423,227.787V215h-2.558v-9.378c0-1.876,1.535-3.41,3.41-3.41h5.115
			c1.875,0,3.41,1.535,3.41,3.41V215h-2.557v12.787H1500.423z M1503.833,200.507c1.893,0,3.41-1.517,3.41-3.41
			c0-1.893-1.517-3.41-3.41-3.41s-3.41,1.517-3.41,3.41C1500.423,198.99,1501.94,200.507,1503.833,200.507z"/>
	</g>
	<g>
		<g id="SexMF5">
			<path class="st12" d="M1736.634,227.787V215h-2.557v-9.378c0-1.876,1.535-3.41,3.41-3.41h5.115c1.875,0,3.41,1.535,3.41,3.41V215
				h-2.557v12.787H1736.634z M1740.044,200.507c1.893,0,3.41-1.517,3.41-3.41c0-1.893-1.517-3.41-3.41-3.41s-3.41,1.517-3.41,3.41
				C1736.634,198.99,1738.152,200.507,1740.044,200.507z"/>
			<path class="st13" d="M1757.352,202.212c1.466,0,2.762,0.938,3.239,2.336l0,0l4.331,13.009h-5.115v10.23h-5.115v-10.23h-5.115
				l4.331-13.009c0.46-1.398,1.773-2.336,3.24-2.336l0,0H1757.352z M1757.249,193.687c1.893,0,3.41,1.517,3.41,3.41
				c0,1.893-1.517,3.41-3.41,3.41c-1.892,0-3.41-1.517-3.41-3.41C1753.839,195.205,1755.357,193.687,1757.249,193.687z"/>
		</g>
		<path id="SexF5" class="st13" d="M1749.601,202.212c1.466,0,2.762,0.938,3.24,2.336l0,0l4.331,13.009h-5.115v10.23h-5.115v-10.23
			h-5.115l4.331-13.009c0.46-1.398,1.773-2.336,3.24-2.336l0,0H1749.601z M1749.499,193.687c1.893,0,3.41,1.517,3.41,3.41
			c0,1.893-1.517,3.41-3.41,3.41c-1.892,0-3.41-1.517-3.41-3.41C1746.089,195.205,1747.607,193.687,1749.499,193.687z"/>
		<path id="SexM5" class="st12" d="M1746.089,227.787V215h-2.557v-9.378c0-1.876,1.534-3.41,3.41-3.41h5.115
			c1.876,0,3.41,1.535,3.41,3.41V215h-2.557v12.787H1746.089z M1749.499,200.507c1.893,0,3.41-1.517,3.41-3.41
			c0-1.893-1.517-3.41-3.41-3.41c-1.892,0-3.41,1.517-3.41,3.41C1746.089,198.99,1747.607,200.507,1749.499,200.507z"/>
	</g>
	<g>
		<g id="SexMF6">
			<path class="st12" d="M2042.3,227.787V215h-2.557v-9.378c0-1.876,1.535-3.41,3.41-3.41h5.115c1.875,0,3.41,1.535,3.41,3.41V215
				h-2.557v12.787H2042.3z M2045.71,200.507c1.893,0,3.41-1.517,3.41-3.41c0-1.893-1.517-3.41-3.41-3.41s-3.41,1.517-3.41,3.41
				C2042.3,198.99,2043.818,200.507,2045.71,200.507z"/>
			<path class="st13" d="M2063.018,202.212c1.466,0,2.762,0.938,3.24,2.336l0,0l4.331,13.009h-5.115v10.23h-5.115v-10.23h-5.115
				l4.331-13.009c0.46-1.398,1.773-2.336,3.24-2.336l0,0H2063.018z M2062.915,193.687c1.893,0,3.41,1.517,3.41,3.41
				c0,1.893-1.517,3.41-3.41,3.41s-3.41-1.517-3.41-3.41C2059.505,195.205,2061.023,193.687,2062.915,193.687z"/>
		</g>
		<path id="SexF6" class="st13" d="M2055.268,202.212c1.466,0,2.762,0.938,3.24,2.336l0,0l4.331,13.009h-5.115v10.23h-5.115v-10.23
			h-5.115l4.331-13.009c0.46-1.398,1.773-2.336,3.24-2.336l0,0H2055.268z M2055.165,193.687c1.893,0,3.41,1.517,3.41,3.41
			c0,1.893-1.517,3.41-3.41,3.41s-3.41-1.517-3.41-3.41C2051.755,195.205,2053.273,193.687,2055.165,193.687z"/>
		<path id="SexM6" class="st12" d="M2051.755,227.787V215h-2.558v-9.378c0-1.876,1.535-3.41,3.41-3.41h5.115
			c1.875,0,3.41,1.535,3.41,3.41V215h-2.558v12.787H2051.755z M2055.165,200.507c1.893,0,3.41-1.517,3.41-3.41
			c0-1.893-1.517-3.41-3.41-3.41s-3.41,1.517-3.41,3.41C2051.755,198.99,2053.273,200.507,2055.165,200.507z"/>
	</g>
</g>
<g id="Tables">
	<path class="st2" d="M606.833,13h40v55.758c0,2.333-2.043,4.242-4.541,4.242h-30.918c-2.498,0-4.541-1.909-4.541-4.242V13z"/>
	<path class="st2" d="M952.499,13h40v55.758c0,2.333-2.043,4.242-4.541,4.242H957.04c-2.498,0-4.541-1.909-4.541-4.242V13z"/>
	<path class="st2" d="M1158.166,13h40v55.758c0,2.333-2.043,4.242-4.541,4.242h-30.918c-2.498,0-4.541-1.909-4.541-4.242V13z"/>
	<path class="st2" d="M1503.386,13h40v55.758c0,2.333-2.043,4.242-4.541,4.242h-30.917c-2.498,0-4.541-1.909-4.541-4.242V13z"/>
	<path class="st2" d="M1709.498,13h40v55.758c0,2.333-2.043,4.242-4.541,4.242h-30.917c-2.498,0-4.541-1.909-4.541-4.242V13z"/>
	<path class="st2" d="M2055.166,13h40v55.758c0,2.333-2.043,4.242-4.541,4.242h-30.917c-2.498,0-4.541-1.909-4.541-4.242V13z"/>
</g>
<g id="Cup_for_table">
	<path class="st8" d="M636.842,50.925c0,1.148-0.928,2.075-2.079,2.075h-15.86c-1.15,0-2.078-0.927-2.078-2.075H636.842
		L636.842,50.925z M632.517,46.095L632.517,46.095c0,0,0.213-0.003,0.366-0.003c1.193,0,2.16-0.965,2.16-2.159
		c0-1.192-0.967-2.157-2.16-2.157h-0.366V46.095L632.517,46.095z M622.743,50.052L622.743,50.052c-0.98,0-1.771-0.795-1.771-1.775
		v-7.922h11.904c1.975,0,3.582,1.604,3.582,3.577c0,1.976-1.599,3.575-3.575,3.575h-0.366c0,0.209-0.002,0.653-0.002,0.77
		c0,0.979-0.795,1.775-1.775,1.775H622.743L622.743,50.052z M624.147,37.407L624.147,37.407c0,0.459-0.186,0.826-0.557,1.103
		c-0.103,0.078-0.154,0.186-0.154,0.318c0,0.262,0.131,0.391,0.391,0.391c0.087,0,0.166-0.027,0.237-0.083
		c0.576-0.434,0.865-1.011,0.865-1.73c0-0.528-0.212-1.022-0.634-1.48c-0.423-0.458-0.634-0.872-0.634-1.244
		c0-0.396,0.146-0.73,0.438-1.008c0.079-0.078,0.118-0.174,0.118-0.284c0-0.261-0.13-0.391-0.391-0.391
		c-0.102,0-0.194,0.035-0.273,0.107c-0.45,0.426-0.675,0.952-0.675,1.576c0,0.561,0.211,1.072,0.634,1.533
		C623.936,36.678,624.147,37.075,624.147,37.407L624.147,37.407z M626.944,37.407L626.944,37.407c0,0.459-0.185,0.826-0.557,1.103
		c-0.102,0.078-0.154,0.186-0.154,0.318c0,0.262,0.131,0.391,0.391,0.391c0.088,0,0.166-0.027,0.237-0.083
		c0.577-0.434,0.865-1.011,0.865-1.73c0-0.528-0.211-1.022-0.633-1.48c-0.422-0.458-0.633-0.872-0.633-1.244
		c0-0.396,0.145-0.73,0.437-1.008c0.079-0.078,0.118-0.174,0.118-0.284c0-0.261-0.13-0.391-0.391-0.391
		c-0.102,0-0.193,0.035-0.271,0.107c-0.45,0.426-0.676,0.952-0.676,1.576c0,0.561,0.211,1.072,0.633,1.533
		C626.733,36.678,626.944,37.075,626.944,37.407L626.944,37.407z M629.739,37.407L629.739,37.407c0,0.459-0.185,0.826-0.557,1.103
		c-0.102,0.078-0.154,0.186-0.154,0.318c0,0.262,0.131,0.391,0.391,0.391c0.087,0,0.167-0.027,0.238-0.083
		c0.577-0.434,0.864-1.011,0.864-1.73c0-0.528-0.211-1.022-0.634-1.48c-0.422-0.458-0.633-0.872-0.633-1.244
		c0-0.396,0.147-0.73,0.438-1.008c0.079-0.078,0.119-0.174,0.119-0.284c0-0.261-0.13-0.391-0.391-0.391
		c-0.103,0-0.193,0.035-0.272,0.107c-0.45,0.426-0.675,0.952-0.675,1.576c0,0.561,0.212,1.072,0.633,1.533
		C629.528,36.678,629.739,37.075,629.739,37.407z"/>
	<path class="st8" d="M982.508,50.925c0,1.148-0.928,2.075-2.079,2.075h-15.86c-1.15,0-2.078-0.927-2.078-2.075H982.508
		L982.508,50.925z M978.183,46.095L978.183,46.095c0,0,0.214-0.003,0.366-0.003c1.193,0,2.16-0.965,2.16-2.159
		c0-1.192-0.967-2.157-2.16-2.157h-0.366V46.095L978.183,46.095z M968.409,50.052L968.409,50.052c-0.98,0-1.771-0.795-1.771-1.775
		v-7.922h11.904c1.975,0,3.582,1.604,3.582,3.577c0,1.976-1.599,3.575-3.575,3.575h-0.366c0,0.209-0.002,0.653-0.002,0.77
		c0,0.979-0.795,1.775-1.775,1.775H968.409L968.409,50.052z M969.813,37.407L969.813,37.407c0,0.459-0.186,0.826-0.557,1.103
		c-0.103,0.078-0.154,0.186-0.154,0.318c0,0.262,0.131,0.391,0.391,0.391c0.087,0,0.166-0.027,0.237-0.083
		c0.576-0.434,0.865-1.011,0.865-1.73c0-0.528-0.212-1.022-0.634-1.48c-0.423-0.458-0.634-0.872-0.634-1.244
		c0-0.396,0.146-0.73,0.438-1.008c0.079-0.078,0.119-0.174,0.119-0.284c0-0.261-0.13-0.391-0.391-0.391
		c-0.102,0-0.194,0.035-0.273,0.107c-0.451,0.426-0.675,0.952-0.675,1.576c0,0.561,0.211,1.072,0.634,1.533
		C969.601,36.678,969.813,37.075,969.813,37.407L969.813,37.407z M972.609,37.407L972.609,37.407c0,0.459-0.185,0.826-0.557,1.103
		c-0.102,0.078-0.154,0.186-0.154,0.318c0,0.262,0.131,0.391,0.391,0.391c0.088,0,0.166-0.027,0.237-0.083
		c0.577-0.434,0.865-1.011,0.865-1.73c0-0.528-0.211-1.022-0.633-1.48c-0.422-0.458-0.633-0.872-0.633-1.244
		c0-0.396,0.145-0.73,0.437-1.008c0.079-0.078,0.118-0.174,0.118-0.284c0-0.261-0.13-0.391-0.391-0.391
		c-0.102,0-0.193,0.035-0.271,0.107c-0.45,0.426-0.676,0.952-0.676,1.576c0,0.561,0.211,1.072,0.634,1.533
		C972.398,36.678,972.609,37.075,972.609,37.407L972.609,37.407z M975.405,37.407L975.405,37.407c0,0.459-0.185,0.826-0.557,1.103
		c-0.102,0.078-0.154,0.186-0.154,0.318c0,0.262,0.132,0.391,0.391,0.391c0.087,0,0.167-0.027,0.238-0.083
		c0.577-0.434,0.864-1.011,0.864-1.73c0-0.528-0.211-1.022-0.634-1.48c-0.422-0.458-0.634-0.872-0.634-1.244
		c0-0.396,0.147-0.73,0.438-1.008c0.079-0.078,0.118-0.174,0.118-0.284c0-0.261-0.13-0.391-0.391-0.391
		c-0.103,0-0.193,0.035-0.272,0.107c-0.45,0.426-0.675,0.952-0.675,1.576c0,0.561,0.212,1.072,0.634,1.533
		C975.194,36.678,975.405,37.075,975.405,37.407z"/>
	<path class="st8" d="M1188.175,50.925c0,1.148-0.928,2.075-2.079,2.075h-15.86c-1.15,0-2.078-0.927-2.078-2.075H1188.175
		L1188.175,50.925z M1183.85,46.095L1183.85,46.095c0,0,0.213-0.003,0.366-0.003c1.193,0,2.16-0.965,2.16-2.159
		c0-1.192-0.967-2.157-2.16-2.157h-0.366V46.095L1183.85,46.095z M1174.076,50.052L1174.076,50.052
		c-0.979,0-1.771-0.795-1.771-1.775v-7.922h11.904c1.975,0,3.582,1.604,3.582,3.577c0,1.976-1.599,3.575-3.575,3.575h-0.366
		c0,0.209-0.002,0.653-0.002,0.77c0,0.979-0.795,1.775-1.775,1.775H1174.076L1174.076,50.052z M1175.48,37.407L1175.48,37.407
		c0,0.459-0.186,0.826-0.557,1.103c-0.103,0.078-0.154,0.186-0.154,0.318c0,0.262,0.131,0.391,0.391,0.391
		c0.087,0,0.166-0.027,0.238-0.083c0.576-0.434,0.865-1.011,0.865-1.73c0-0.528-0.212-1.022-0.634-1.48
		c-0.423-0.458-0.634-0.872-0.634-1.244c0-0.396,0.146-0.73,0.438-1.008c0.079-0.078,0.118-0.174,0.118-0.284
		c0-0.261-0.13-0.391-0.391-0.391c-0.102,0-0.194,0.035-0.273,0.107c-0.45,0.426-0.675,0.952-0.675,1.576
		c0,0.561,0.211,1.072,0.634,1.533C1175.269,36.678,1175.48,37.075,1175.48,37.407L1175.48,37.407z M1178.276,37.407
		L1178.276,37.407c0,0.459-0.185,0.826-0.557,1.103c-0.101,0.078-0.154,0.186-0.154,0.318c0,0.262,0.131,0.391,0.391,0.391
		c0.088,0,0.166-0.027,0.237-0.083c0.577-0.434,0.865-1.011,0.865-1.73c0-0.528-0.211-1.022-0.633-1.48
		c-0.422-0.458-0.633-0.872-0.633-1.244c0-0.396,0.145-0.73,0.437-1.008c0.079-0.078,0.118-0.174,0.118-0.284
		c0-0.261-0.13-0.391-0.391-0.391c-0.102,0-0.193,0.035-0.271,0.107c-0.45,0.426-0.676,0.952-0.676,1.576
		c0,0.561,0.211,1.072,0.634,1.533C1178.066,36.678,1178.276,37.075,1178.276,37.407L1178.276,37.407z M1181.072,37.407
		L1181.072,37.407c0,0.459-0.185,0.826-0.557,1.103c-0.102,0.078-0.154,0.186-0.154,0.318c0,0.262,0.131,0.391,0.391,0.391
		c0.087,0,0.167-0.027,0.238-0.083c0.577-0.434,0.864-1.011,0.864-1.73c0-0.528-0.211-1.022-0.634-1.48
		c-0.422-0.458-0.634-0.872-0.634-1.244c0-0.396,0.147-0.73,0.438-1.008c0.079-0.078,0.119-0.174,0.119-0.284
		c0-0.261-0.13-0.391-0.391-0.391c-0.103,0-0.193,0.035-0.272,0.107c-0.45,0.426-0.675,0.952-0.675,1.576
		c0,0.561,0.212,1.072,0.633,1.533C1180.861,36.678,1181.072,37.075,1181.072,37.407z"/>
	<path class="st8" d="M1533.394,50.925c0,1.148-0.928,2.075-2.079,2.075h-15.86c-1.15,0-2.078-0.927-2.078-2.075H1533.394
		L1533.394,50.925z M1529.07,46.095L1529.07,46.095c0,0,0.213-0.003,0.366-0.003c1.193,0,2.16-0.965,2.16-2.159
		c0-1.192-0.967-2.157-2.16-2.157h-0.366V46.095L1529.07,46.095z M1519.296,50.052L1519.296,50.052c-0.98,0-1.771-0.795-1.771-1.775
		v-7.922h11.904c1.975,0,3.582,1.604,3.582,3.577c0,1.976-1.599,3.575-3.575,3.575h-0.366c0,0.209-0.002,0.653-0.002,0.77
		c0,0.979-0.795,1.775-1.775,1.775H1519.296L1519.296,50.052z M1520.7,37.407L1520.7,37.407c0,0.459-0.186,0.826-0.557,1.103
		c-0.103,0.078-0.154,0.186-0.154,0.318c0,0.262,0.131,0.391,0.391,0.391c0.087,0,0.166-0.027,0.238-0.083
		c0.576-0.434,0.865-1.011,0.865-1.73c0-0.528-0.212-1.022-0.634-1.48c-0.423-0.458-0.634-0.872-0.634-1.244
		c0-0.396,0.146-0.73,0.438-1.008c0.079-0.078,0.119-0.174,0.119-0.284c0-0.261-0.13-0.391-0.391-0.391
		c-0.102,0-0.194,0.035-0.273,0.107c-0.45,0.426-0.675,0.952-0.675,1.576c0,0.561,0.211,1.072,0.634,1.533
		C1520.488,36.678,1520.7,37.075,1520.7,37.407L1520.7,37.407z M1523.496,37.407L1523.496,37.407c0,0.459-0.185,0.826-0.557,1.103
		c-0.101,0.078-0.154,0.186-0.154,0.318c0,0.262,0.131,0.391,0.391,0.391c0.088,0,0.166-0.027,0.237-0.083
		c0.577-0.434,0.865-1.011,0.865-1.73c0-0.528-0.211-1.022-0.633-1.48c-0.422-0.458-0.633-0.872-0.633-1.244
		c0-0.396,0.145-0.73,0.437-1.008c0.079-0.078,0.118-0.174,0.118-0.284c0-0.261-0.13-0.391-0.391-0.391
		c-0.102,0-0.193,0.035-0.271,0.107c-0.45,0.426-0.676,0.952-0.676,1.576c0,0.561,0.211,1.072,0.633,1.533
		C1523.285,36.678,1523.496,37.075,1523.496,37.407L1523.496,37.407z M1526.292,37.407L1526.292,37.407
		c0,0.459-0.185,0.826-0.557,1.103c-0.102,0.078-0.154,0.186-0.154,0.318c0,0.262,0.131,0.391,0.391,0.391
		c0.087,0,0.167-0.027,0.238-0.083c0.577-0.434,0.864-1.011,0.864-1.73c0-0.528-0.211-1.022-0.634-1.48
		c-0.422-0.458-0.633-0.872-0.633-1.244c0-0.396,0.147-0.73,0.438-1.008c0.079-0.078,0.119-0.174,0.119-0.284
		c0-0.261-0.13-0.391-0.391-0.391c-0.103,0-0.193,0.035-0.272,0.107c-0.45,0.426-0.675,0.952-0.675,1.576
		c0,0.561,0.212,1.072,0.634,1.533C1526.081,36.678,1526.292,37.075,1526.292,37.407z"/>
	<path class="st8" d="M1739.507,50.925c0,1.148-0.928,2.075-2.079,2.075h-15.86c-1.15,0-2.078-0.927-2.078-2.075H1739.507
		L1739.507,50.925z M1735.182,46.095L1735.182,46.095c0,0,0.214-0.003,0.366-0.003c1.193,0,2.16-0.965,2.16-2.159
		c0-1.192-0.967-2.157-2.16-2.157h-0.366V46.095L1735.182,46.095z M1725.408,50.052L1725.408,50.052
		c-0.98,0-1.771-0.795-1.771-1.775v-7.922h11.904c1.975,0,3.582,1.604,3.582,3.577c0,1.976-1.599,3.575-3.575,3.575h-0.366
		c0,0.209-0.002,0.653-0.002,0.77c0,0.979-0.795,1.775-1.775,1.775H1725.408L1725.408,50.052z M1726.812,37.407L1726.812,37.407
		c0,0.459-0.186,0.826-0.557,1.103c-0.103,0.078-0.154,0.186-0.154,0.318c0,0.262,0.131,0.391,0.391,0.391
		c0.087,0,0.166-0.027,0.238-0.083c0.576-0.434,0.865-1.011,0.865-1.73c0-0.528-0.212-1.022-0.634-1.48
		c-0.423-0.458-0.634-0.872-0.634-1.244c0-0.396,0.146-0.73,0.438-1.008c0.079-0.078,0.118-0.174,0.118-0.284
		c0-0.261-0.13-0.391-0.391-0.391c-0.102,0-0.194,0.035-0.273,0.107c-0.45,0.426-0.675,0.952-0.675,1.576
		c0,0.561,0.211,1.072,0.634,1.533C1726.6,36.678,1726.812,37.075,1726.812,37.407L1726.812,37.407z M1729.608,37.407
		L1729.608,37.407c0,0.459-0.185,0.826-0.557,1.103c-0.101,0.078-0.154,0.186-0.154,0.318c0,0.262,0.131,0.391,0.391,0.391
		c0.088,0,0.166-0.027,0.237-0.083c0.577-0.434,0.865-1.011,0.865-1.73c0-0.528-0.211-1.022-0.633-1.48
		c-0.422-0.458-0.633-0.872-0.633-1.244c0-0.396,0.145-0.73,0.437-1.008c0.079-0.078,0.118-0.174,0.118-0.284
		c0-0.261-0.13-0.391-0.391-0.391c-0.102,0-0.193,0.035-0.271,0.107c-0.45,0.426-0.676,0.952-0.676,1.576
		c0,0.561,0.211,1.072,0.634,1.533C1729.397,36.678,1729.608,37.075,1729.608,37.407L1729.608,37.407z M1732.404,37.407
		L1732.404,37.407c0,0.459-0.185,0.826-0.557,1.103c-0.102,0.078-0.154,0.186-0.154,0.318c0,0.262,0.132,0.391,0.391,0.391
		c0.087,0,0.167-0.027,0.237-0.083c0.577-0.434,0.864-1.011,0.864-1.73c0-0.528-0.211-1.022-0.634-1.48
		c-0.422-0.458-0.634-0.872-0.634-1.244c0-0.396,0.147-0.73,0.438-1.008c0.079-0.078,0.119-0.174,0.119-0.284
		c0-0.261-0.13-0.391-0.391-0.391c-0.103,0-0.193,0.035-0.272,0.107c-0.45,0.426-0.675,0.952-0.675,1.576
		c0,0.561,0.212,1.072,0.633,1.533C1732.193,36.678,1732.404,37.075,1732.404,37.407z"/>
	<path class="st8" d="M2085.174,50.925c0,1.148-0.928,2.075-2.079,2.075h-15.86c-1.15,0-2.078-0.927-2.078-2.075H2085.174
		L2085.174,50.925z M2080.85,46.095L2080.85,46.095c0,0,0.213-0.003,0.366-0.003c1.193,0,2.16-0.965,2.16-2.159
		c0-1.192-0.967-2.157-2.16-2.157h-0.366V46.095L2080.85,46.095z M2071.076,50.052L2071.076,50.052c-0.98,0-1.771-0.795-1.771-1.775
		v-7.922h11.904c1.975,0,3.582,1.604,3.582,3.577c0,1.976-1.599,3.575-3.575,3.575h-0.366c0,0.209-0.002,0.653-0.002,0.77
		c0,0.979-0.795,1.775-1.775,1.775H2071.076L2071.076,50.052z M2072.48,37.407L2072.48,37.407c0,0.459-0.186,0.826-0.557,1.103
		c-0.103,0.078-0.154,0.186-0.154,0.318c0,0.262,0.131,0.391,0.391,0.391c0.087,0,0.166-0.027,0.238-0.083
		c0.576-0.434,0.865-1.011,0.865-1.73c0-0.528-0.212-1.022-0.635-1.48c-0.423-0.458-0.634-0.872-0.634-1.244
		c0-0.396,0.146-0.73,0.438-1.008c0.079-0.078,0.119-0.174,0.119-0.284c0-0.261-0.13-0.391-0.391-0.391
		c-0.102,0-0.194,0.035-0.273,0.107c-0.45,0.426-0.675,0.952-0.675,1.576c0,0.561,0.211,1.072,0.634,1.533
		C2072.268,36.678,2072.48,37.075,2072.48,37.407L2072.48,37.407z M2075.276,37.407L2075.276,37.407
		c0,0.459-0.185,0.826-0.557,1.103c-0.102,0.078-0.154,0.186-0.154,0.318c0,0.262,0.131,0.391,0.391,0.391
		c0.088,0,0.166-0.027,0.237-0.083c0.577-0.434,0.865-1.011,0.865-1.73c0-0.528-0.211-1.022-0.633-1.48
		c-0.423-0.458-0.633-0.872-0.633-1.244c0-0.396,0.145-0.73,0.437-1.008c0.079-0.078,0.118-0.174,0.118-0.284
		c0-0.261-0.13-0.391-0.391-0.391c-0.102,0-0.193,0.035-0.271,0.107c-0.45,0.426-0.676,0.952-0.676,1.576
		c0,0.561,0.211,1.072,0.634,1.533C2075.065,36.678,2075.276,37.075,2075.276,37.407L2075.276,37.407z M2078.072,37.407
		L2078.072,37.407c0,0.459-0.185,0.826-0.557,1.103c-0.102,0.078-0.154,0.186-0.154,0.318c0,0.262,0.132,0.391,0.391,0.391
		c0.087,0,0.167-0.027,0.238-0.083c0.577-0.434,0.864-1.011,0.864-1.73c0-0.528-0.211-1.022-0.634-1.48
		c-0.422-0.458-0.634-0.872-0.634-1.244c0-0.396,0.147-0.73,0.438-1.008c0.079-0.078,0.118-0.174,0.118-0.284
		c0-0.261-0.129-0.391-0.391-0.391c-0.103,0-0.193,0.035-0.272,0.107c-0.45,0.426-0.675,0.952-0.675,1.576
		c0,0.561,0.212,1.072,0.634,1.533C2077.861,36.678,2078.072,37.075,2078.072,37.407z"/>
</g>
<g id="Window">
	<line class="st14" x1="578.833" y1="4" x2="674.833" y2="4"/>
	<line class="st14" x1="924.499" y1="4" x2="1020.499" y2="4"/>
	<line class="st14" x1="1130.166" y1="4" x2="1226.166" y2="4"/>
	<line class="st14" x1="578.833" y1="332" x2="674.833" y2="332"/>
	<line class="st14" x1="751.666" y1="332" x2="847.666" y2="332"/>
	<line class="st14" x1="144.5" y1="4" x2="199.5" y2="4"/>
	<line class="st14" x1="18.5" y1="4" x2="93.5" y2="4"/>
	<line class="st14" x1="370.277" y1="332" x2="466.277" y2="332"/>
	<line class="st14" x1="18.5" y1="332" x2="93.5" y2="332"/>
	<line class="st14" x1="2256" y1="332" x2="2190" y2="332"/>
	<line class="st14" x1="2262.5" y1="4" x2="2207.5" y2="4"/>
	<line class="st14" x1="2391.5" y1="4" x2="2316.5" y2="4"/>
	<line class="st14" x1="2391.5" y1="332" x2="2316.5" y2="332"/>
	<line class="st14" x1="273.5" y1="4" x2="328.5" y2="4"/>
	<line class="st14" x1="417.5" y1="4" x2="472.5" y2="4"/>
	<line class="st14" x1="924.499" y1="332" x2="1020.499" y2="332"/>
	<line class="st14" x1="1130.166" y1="332" x2="1226.166" y2="332"/>
	<line class="st14" x1="1475.385" y1="4" x2="1571.386" y2="4"/>
	<line class="st14" x1="1475.385" y1="332" x2="1571.385" y2="332"/>
	<line class="st14" x1="1302.776" y1="332" x2="1398.776" y2="332"/>
	<line class="st14" x1="1681.498" y1="4" x2="1777.498" y2="4"/>
	<line class="st14" x1="1681.498" y1="332" x2="1777.498" y2="332"/>
	<line class="st14" x1="1854.332" y1="332" x2="1950.332" y2="332"/>
	<line class="st14" x1="2027.166" y1="4" x2="2123.166" y2="4"/>
	<line class="st14" x1="2027.166" y1="332" x2="2123.166" y2="332"/>
</g>
<g id="Icons">
	<path id="Exit" class="st8" d="M61.233,22.861v19.712L69.962,48V18.308L61.233,22.861L61.233,22.861z M50.847,22.656L50.847,22.656
		c1.282-0.031,2.302-1.097,2.271-2.381c-0.032-1.288-1.101-2.304-2.384-2.274c-1.283,0.031-2.301,1.097-2.27,2.385
		C48.496,21.67,49.563,22.687,50.847,22.656L50.847,22.656z M44.454,26.804L44.454,26.804l-2.235,5.53
		c-0.406,0.922-0.14,1.841,0.948,2.185l0.586,0.129l2.66-6.449h0.003c0.237-0.496,0.614-0.908,1.068-1.232l-0.495,6.886
		l-0.007,0.003l-1.016,7.028l-3.026,4.293c0,0-0.374,0.587-0.004,1.303c0.254,0.49,1.285,1.222,1.285,1.222l4.686-6.262l1.108-6.596
		c0.063-0.004,0.127-0.008,0.195-0.014l-0.01,0.009l3.272,11.575c0,0,0.123,0.728,0.508,1.071c0.435,0.397,1.082,0.408,1.082,0.408
		l1.404-0.211l-3.576-14.272c0-1.499,0.009-4.972,0.009-6.506c0-2.055-0.54-3.172-3.09-3.39
		C49.205,23.468,46.084,22.866,44.454,26.804L44.454,26.804z M57.7,33.234L57.7,33.234l0.147-0.296l-3.995-2.758l-0.103,2.58
		l1.995,1.184C56.579,34.328,57.214,34.214,57.7,33.234z"/>
	<path id="Exit_1_" class="st8" d="M61.233,292.861v19.712l8.73,5.427v-29.692L61.233,292.861L61.233,292.861z M50.847,292.656
		L50.847,292.656c1.282-0.031,2.302-1.097,2.271-2.381c-0.032-1.288-1.101-2.304-2.384-2.274c-1.283,0.031-2.301,1.097-2.27,2.385
		C48.496,291.67,49.563,292.686,50.847,292.656L50.847,292.656z M44.454,296.804L44.454,296.804l-2.235,5.53
		c-0.406,0.922-0.14,1.841,0.948,2.185l0.586,0.129l2.66-6.449h0.003c0.237-0.496,0.614-0.908,1.068-1.232l-0.495,6.886
		l-0.007,0.003l-1.016,7.028l-3.026,4.293c0,0-0.374,0.587-0.004,1.303c0.254,0.49,1.285,1.222,1.285,1.222l4.686-6.262l1.108-6.596
		c0.063-0.004,0.127-0.008,0.195-0.014l-0.01,0.009l3.272,11.575c0,0,0.123,0.728,0.508,1.071c0.435,0.397,1.082,0.408,1.082,0.408
		l1.404-0.211l-3.576-14.272c0-1.499,0.009-4.972,0.009-6.506c0-2.055-0.54-3.172-3.09-3.39
		C49.205,293.468,46.084,292.866,44.454,296.804L44.454,296.804z M57.7,303.234L57.7,303.234l0.147-0.296l-3.995-2.758l-0.103,2.58
		l1.995,1.184C56.579,304.328,57.214,304.214,57.7,303.234z"/>
	<path id="Exit_2_" class="st8" d="M2359.232,292.861v19.712l8.729,5.427v-29.692L2359.232,292.861L2359.232,292.861z
		 M2348.847,292.656L2348.847,292.656c1.282-0.031,2.302-1.097,2.271-2.381c-0.032-1.288-1.101-2.304-2.384-2.274
		c-1.283,0.031-2.301,1.097-2.27,2.385C2346.496,291.67,2347.563,292.686,2348.847,292.656L2348.847,292.656z M2342.453,296.804
		L2342.453,296.804l-2.235,5.53c-0.406,0.922-0.14,1.841,0.948,2.185l0.586,0.129l2.66-6.449h0.002
		c0.237-0.496,0.614-0.908,1.068-1.232l-0.495,6.886l-0.007,0.003l-1.016,7.028l-3.026,4.293c0,0-0.374,0.587-0.004,1.303
		c0.254,0.49,1.284,1.222,1.284,1.222l4.686-6.262l1.108-6.596c0.063-0.004,0.127-0.008,0.195-0.014l-0.01,0.009l3.272,11.575
		c0,0,0.124,0.728,0.508,1.071c0.435,0.397,1.082,0.408,1.082,0.408l1.404-0.211l-3.576-14.272c0-1.499,0.009-4.972,0.009-6.506
		c0-2.055-0.54-3.172-3.09-3.39C2347.205,293.468,2344.084,292.866,2342.453,296.804L2342.453,296.804z M2355.699,303.234
		L2355.699,303.234l0.146-0.296l-3.995-2.758l-0.103,2.58l1.995,1.184C2354.579,304.328,2355.214,304.214,2355.699,303.234z"/>
	<path id="Exit_3_" class="st8" d="M2359.232,22.861v19.712l8.729,5.427V18.308L2359.232,22.861L2359.232,22.861z M2348.847,22.656
		L2348.847,22.656c1.282-0.031,2.302-1.097,2.271-2.381c-0.032-1.288-1.101-2.304-2.384-2.274c-1.283,0.031-2.301,1.097-2.27,2.385
		C2346.496,21.67,2347.563,22.687,2348.847,22.656L2348.847,22.656z M2342.453,26.804L2342.453,26.804l-2.235,5.53
		c-0.406,0.922-0.14,1.841,0.948,2.185l0.586,0.129l2.66-6.449h0.002c0.237-0.496,0.614-0.908,1.068-1.232l-0.495,6.886
		l-0.007,0.003l-1.016,7.028l-3.026,4.293c0,0-0.374,0.587-0.004,1.303c0.254,0.49,1.284,1.222,1.284,1.222l4.686-6.262l1.108-6.596
		c0.063-0.004,0.127-0.008,0.195-0.014l-0.01,0.009l3.272,11.575c0,0,0.124,0.728,0.508,1.071c0.435,0.397,1.082,0.408,1.082,0.408
		l1.404-0.211l-3.576-14.272c0-1.499,0.009-4.972,0.009-6.506c0-2.055-0.54-3.172-3.09-3.39
		C2347.205,23.468,2344.084,22.866,2342.453,26.804L2342.453,26.804z M2355.699,33.234L2355.699,33.234l0.146-0.296l-3.995-2.758
		l-0.103,2.58l1.995,1.184C2354.579,34.328,2355.214,34.214,2355.699,33.234z"/>
	<path id="WC" class="st8" d="M157,64.596h3.478l1.647,9.844h0.037l1.721-9.844h4.32l1.794,9.844h0.036l1.666-9.844h3.313
		l-2.856,12.809h-4.375l-1.812-9.844h-0.037l-1.684,9.844h-4.411L157,64.596L157,64.596z M187,77.111
		c-0.683,0.183-1.3,0.314-1.849,0.393c-0.549,0.079-1.135,0.119-1.757,0.119c-1.306,0-2.431-0.168-3.377-0.503
		c-0.946-0.335-1.724-0.802-2.334-1.4c-0.61-0.598-1.065-1.296-1.364-2.095c-0.299-0.799-0.448-1.668-0.448-2.607
		c0-1.135,0.201-2.132,0.604-2.992c0.403-0.86,0.921-1.558,1.556-2.095c0.622-0.512,1.376-0.9,2.261-1.162s1.852-0.393,2.901-0.393
		c0.354,0,0.848,0.037,1.483,0.11c0.635,0.073,1.403,0.256,2.306,0.549l-0.274,2.763c-0.391-0.207-0.876-0.409-1.455-0.604
		c-0.58-0.195-1.199-0.293-1.858-0.293c-0.683,0-1.26,0.113-1.73,0.338c-0.47,0.226-0.845,0.479-1.126,0.759
		c-0.329,0.329-0.604,0.756-0.824,1.281c-0.219,0.525-0.329,1.116-0.329,1.775c0,0.622,0.104,1.189,0.311,1.702
		c0.207,0.512,0.488,0.933,0.842,1.262c0.366,0.354,0.827,0.622,1.382,0.805c0.555,0.183,1.132,0.274,1.73,0.274
		c0.476,0,0.995-0.058,1.556-0.174c0.561-0.116,1.104-0.277,1.629-0.485L187,77.111z"/>
	<path id="WC_1_" class="st8" d="M739.667,86.596h3.478l1.647,9.844h0.037l1.721-9.844h4.32l1.794,9.844h0.036l1.666-9.844h3.313
		l-2.856,12.809h-4.375l-1.812-9.844h-0.036l-1.684,9.844h-4.411L739.667,86.596L739.667,86.596z M769.667,99.112
		c-0.683,0.183-1.3,0.314-1.849,0.393c-0.549,0.079-1.135,0.119-1.757,0.119c-1.306,0-2.431-0.168-3.377-0.503
		c-0.946-0.335-1.724-0.802-2.334-1.4c-0.61-0.598-1.065-1.296-1.364-2.095c-0.299-0.799-0.448-1.668-0.448-2.607
		c0-1.135,0.201-2.132,0.604-2.992c0.403-0.86,0.921-1.558,1.556-2.095c0.622-0.512,1.376-0.9,2.261-1.162
		c0.885-0.262,1.852-0.393,2.901-0.393c0.354,0,0.848,0.037,1.483,0.11c0.635,0.073,1.403,0.256,2.306,0.549l-0.274,2.763
		c-0.391-0.207-0.876-0.409-1.455-0.604c-0.58-0.195-1.199-0.293-1.858-0.293c-0.683,0-1.26,0.113-1.729,0.338
		c-0.47,0.226-0.845,0.479-1.126,0.759c-0.329,0.329-0.604,0.756-0.824,1.281c-0.219,0.525-0.329,1.116-0.329,1.775
		c0,0.622,0.104,1.189,0.311,1.702c0.207,0.512,0.488,0.933,0.842,1.262c0.366,0.354,0.827,0.622,1.382,0.805
		c0.555,0.183,1.132,0.274,1.73,0.274c0.476,0,0.995-0.058,1.556-0.174c0.561-0.116,1.104-0.277,1.629-0.485L769.667,99.112z"/>
	<path id="WC_2_" class="st8" d="M829.666,86.596h3.478l1.647,9.844h0.037l1.721-9.844h4.32l1.794,9.844h0.037l1.666-9.844h3.313
		l-2.856,12.809h-4.375l-1.812-9.844h-0.036l-1.684,9.844h-4.411L829.666,86.596L829.666,86.596z M859.666,99.112
		c-0.683,0.183-1.3,0.314-1.849,0.393c-0.549,0.079-1.135,0.119-1.757,0.119c-1.306,0-2.431-0.168-3.377-0.503
		c-0.946-0.335-1.724-0.802-2.334-1.4c-0.61-0.598-1.065-1.296-1.364-2.095c-0.299-0.799-0.448-1.668-0.448-2.607
		c0-1.135,0.201-2.132,0.604-2.992c0.403-0.86,0.921-1.558,1.556-2.095c0.622-0.512,1.376-0.9,2.261-1.162
		c0.885-0.262,1.852-0.393,2.901-0.393c0.354,0,0.848,0.037,1.483,0.11c0.635,0.073,1.403,0.256,2.306,0.549l-0.274,2.763
		c-0.391-0.207-0.876-0.409-1.455-0.604c-0.58-0.195-1.199-0.293-1.858-0.293c-0.683,0-1.26,0.113-1.729,0.338
		c-0.47,0.226-0.845,0.479-1.126,0.759c-0.329,0.329-0.604,0.756-0.824,1.281c-0.219,0.525-0.329,1.116-0.329,1.775
		c0,0.622,0.104,1.189,0.311,1.702c0.207,0.512,0.488,0.933,0.842,1.262c0.366,0.354,0.827,0.622,1.382,0.805
		c0.555,0.183,1.132,0.274,1.73,0.274c0.476,0,0.995-0.058,1.556-0.174c0.561-0.116,1.104-0.277,1.629-0.485L859.666,99.112z"/>
	<path id="WC_3_" class="st8" d="M1291,86.596h3.478l1.647,9.844h0.036l1.721-9.844h4.32l1.794,9.844h0.036l1.666-9.844h3.313
		l-2.856,12.809h-4.375l-1.812-9.844h-0.036l-1.684,9.844h-4.411L1291,86.596L1291,86.596z M1321,99.112
		c-0.683,0.183-1.3,0.314-1.849,0.393c-0.549,0.079-1.135,0.119-1.757,0.119c-1.306,0-2.431-0.168-3.377-0.503
		c-0.946-0.335-1.724-0.802-2.334-1.4c-0.61-0.598-1.065-1.296-1.364-2.095c-0.299-0.799-0.448-1.668-0.448-2.607
		c0-1.135,0.201-2.132,0.604-2.992c0.403-0.86,0.921-1.558,1.556-2.095c0.622-0.512,1.376-0.9,2.261-1.162
		c0.885-0.262,1.852-0.393,2.901-0.393c0.354,0,0.848,0.037,1.483,0.11c0.635,0.073,1.403,0.256,2.306,0.549l-0.274,2.763
		c-0.391-0.207-0.876-0.409-1.455-0.604c-0.58-0.195-1.199-0.293-1.858-0.293c-0.683,0-1.26,0.113-1.729,0.338
		c-0.47,0.226-0.845,0.479-1.126,0.759c-0.329,0.329-0.604,0.756-0.824,1.281c-0.219,0.525-0.329,1.116-0.329,1.775
		c0,0.622,0.104,1.189,0.311,1.702c0.207,0.512,0.488,0.933,0.842,1.262c0.366,0.354,0.827,0.622,1.382,0.805
		c0.555,0.183,1.132,0.274,1.73,0.274c0.476,0,0.995-0.058,1.556-0.174c0.561-0.116,1.104-0.277,1.629-0.485L1321,99.112z"/>
	<path id="WC_4_" class="st8" d="M1380.999,86.596h3.478l1.647,9.844h0.037l1.721-9.844h4.32l1.794,9.844h0.036l1.666-9.844h3.313
		l-2.855,12.809h-4.375l-1.812-9.844h-0.036l-1.684,9.844h-4.411L1380.999,86.596L1380.999,86.596z M1410.999,99.112
		c-0.683,0.183-1.3,0.314-1.849,0.393c-0.549,0.079-1.135,0.119-1.757,0.119c-1.306,0-2.431-0.168-3.377-0.503
		c-0.946-0.335-1.724-0.802-2.334-1.4c-0.61-0.598-1.065-1.296-1.364-2.095c-0.299-0.799-0.448-1.668-0.448-2.607
		c0-1.135,0.201-2.132,0.604-2.992c0.403-0.86,0.921-1.558,1.556-2.095c0.622-0.512,1.376-0.9,2.261-1.162
		c0.885-0.262,1.852-0.393,2.901-0.393c0.354,0,0.848,0.037,1.483,0.11c0.635,0.073,1.403,0.256,2.306,0.549l-0.274,2.763
		c-0.391-0.207-0.875-0.409-1.455-0.604c-0.58-0.195-1.199-0.293-1.858-0.293c-0.683,0-1.26,0.113-1.729,0.338
		c-0.47,0.226-0.845,0.479-1.126,0.759c-0.329,0.329-0.604,0.756-0.824,1.281c-0.219,0.525-0.329,1.116-0.329,1.775
		c0,0.622,0.104,1.189,0.311,1.702c0.208,0.512,0.488,0.933,0.842,1.262c0.366,0.354,0.827,0.622,1.382,0.805
		c0.555,0.183,1.132,0.274,1.73,0.274c0.475,0,0.995-0.058,1.556-0.174c0.561-0.116,1.104-0.277,1.629-0.485L1410.999,99.112z"/>
	<path id="WC_5_" class="st8" d="M1842.333,86.596h3.478l1.647,9.844h0.037l1.721-9.844h4.32l1.794,9.844h0.036l1.666-9.844h3.313
		l-2.856,12.809h-4.375l-1.812-9.844h-0.036l-1.684,9.844h-4.411L1842.333,86.596L1842.333,86.596z M1872.333,99.112
		c-0.683,0.183-1.3,0.314-1.849,0.393c-0.549,0.079-1.135,0.119-1.757,0.119c-1.306,0-2.431-0.168-3.377-0.503
		c-0.946-0.335-1.724-0.802-2.334-1.4c-0.61-0.598-1.065-1.296-1.364-2.095c-0.299-0.799-0.448-1.668-0.448-2.607
		c0-1.135,0.201-2.132,0.604-2.992c0.403-0.86,0.921-1.558,1.556-2.095c0.622-0.512,1.376-0.9,2.261-1.162
		c0.885-0.262,1.852-0.393,2.901-0.393c0.354,0,0.848,0.037,1.483,0.11c0.635,0.073,1.403,0.256,2.306,0.549l-0.274,2.763
		c-0.391-0.207-0.876-0.409-1.455-0.604c-0.58-0.195-1.199-0.293-1.858-0.293c-0.683,0-1.26,0.113-1.729,0.338
		c-0.47,0.226-0.845,0.479-1.126,0.759c-0.329,0.329-0.604,0.756-0.824,1.281c-0.219,0.525-0.329,1.116-0.329,1.775
		c0,0.622,0.104,1.189,0.311,1.702c0.207,0.512,0.488,0.933,0.842,1.262c0.366,0.354,0.827,0.622,1.382,0.805
		c0.555,0.183,1.132,0.274,1.73,0.274c0.476,0,0.995-0.058,1.556-0.174c0.561-0.116,1.104-0.277,1.629-0.485L1872.333,99.112z"/>
	<path id="WC_6_" class="st8" d="M1932.332,86.596h3.478l1.647,9.844h0.037l1.721-9.844h4.32l1.794,9.844h0.036l1.666-9.844h3.313
		l-2.856,12.809h-4.375l-1.812-9.844h-0.036l-1.684,9.844h-4.411L1932.332,86.596L1932.332,86.596z M1962.332,99.112
		c-0.683,0.183-1.3,0.314-1.849,0.393c-0.549,0.079-1.135,0.119-1.757,0.119c-1.306,0-2.431-0.168-3.377-0.503
		c-0.946-0.335-1.724-0.802-2.334-1.4c-0.61-0.598-1.065-1.296-1.364-2.095c-0.299-0.799-0.448-1.668-0.448-2.607
		c0-1.135,0.201-2.132,0.604-2.992c0.403-0.86,0.921-1.558,1.556-2.095c0.622-0.512,1.376-0.9,2.261-1.162
		c0.885-0.262,1.852-0.393,2.901-0.393c0.354,0,0.848,0.037,1.483,0.11c0.635,0.073,1.403,0.256,2.306,0.549l-0.274,2.763
		c-0.391-0.207-0.875-0.409-1.455-0.604c-0.58-0.195-1.199-0.293-1.858-0.293c-0.683,0-1.26,0.113-1.729,0.338
		c-0.47,0.226-0.845,0.479-1.126,0.759c-0.329,0.329-0.604,0.756-0.824,1.281c-0.219,0.525-0.329,1.116-0.329,1.775
		c0,0.622,0.104,1.189,0.311,1.702c0.207,0.512,0.488,0.933,0.842,1.262c0.366,0.354,0.827,0.622,1.382,0.805
		c0.555,0.183,1.132,0.274,1.73,0.274c0.476,0,0.995-0.058,1.556-0.174c0.561-0.116,1.104-0.277,1.629-0.485L1962.332,99.112z"/>
	<path id="Shower" class="st8" d="M757.182,115.034c2.447,0.844,4.408,2.935,4.408,6.236v0.115c0,1.154,0,1.154-1.154,1.154h-11.539
		c-1.154,0-1.154,0-1.154-1.154v-0.115c0-3.366,1.937-5.441,4.361-6.261v-2.785c0-1.223,0-1.223,2.585-1.223
		c2.492,0,2.492,0,2.492,1.223V115.034L757.182,115.034z M751.644,124.893L751.644,124.893c-0.97,0-1.8,0.784-1.8,1.777
		c0,1.038,0.831,1.8,1.8,1.8c0.946,0,1.753-0.762,1.753-1.8C753.397,125.677,752.59,124.893,751.644,124.893L751.644,124.893z
		 M748.113,131.146L748.113,131.146c-0.969,0-1.8,0.807-1.8,1.8c0,1.016,0.831,1.8,1.8,1.8c0.992,0,1.823-0.784,1.823-1.8
		C749.936,131.954,749.105,131.146,748.113,131.146L748.113,131.146z M745.113,137.446L745.113,137.446
		c-0.992,0-1.754,0.785-1.754,1.777c0,1.016,0.762,1.777,1.754,1.777c0.946,0,1.777-0.761,1.777-1.777
		C746.89,138.231,746.059,137.446,745.113,137.446L745.113,137.446z M757.99,124.893L757.99,124.893
		c-0.992,0-1.754,0.784-1.754,1.777c0,1.038,0.762,1.8,1.754,1.8c0.992,0,1.8-0.762,1.8-1.8
		C759.79,125.677,758.982,124.893,757.99,124.893L757.99,124.893z M754.643,131.146L754.643,131.146c-0.992,0-1.8,0.807-1.8,1.8
		c0,1.016,0.808,1.8,1.8,1.8c0.992,0,1.777-0.784,1.777-1.8C756.42,131.954,755.636,131.146,754.643,131.146L754.643,131.146z
		 M751.644,137.446L751.644,137.446c-0.97,0-1.8,0.785-1.8,1.777c0,1.016,0.831,1.777,1.8,1.777c0.946,0,1.753-0.761,1.753-1.777
		C753.397,138.231,752.59,137.446,751.644,137.446L751.644,137.446z M761.013,131.146L761.013,131.146c-0.969,0-1.8,0.807-1.8,1.8
		c0,1.016,0.831,1.8,1.8,1.8c0.992,0,1.823-0.784,1.823-1.8C762.836,131.954,762.005,131.146,761.013,131.146L761.013,131.146z
		 M757.99,137.446L757.99,137.446c-0.992,0-1.754,0.785-1.754,1.777c0,1.016,0.762,1.777,1.754,1.777c0.992,0,1.8-0.761,1.8-1.777
		C759.79,138.231,758.982,137.446,757.99,137.446L757.99,137.446z M764.174,137.446L764.174,137.446c-0.992,0-1.8,0.785-1.8,1.777
		c0,1.016,0.807,1.777,1.8,1.777c0.992,0,1.801-0.761,1.801-1.777C765.975,138.231,765.167,137.446,764.174,137.446z"/>
	<path id="Shower_1_" class="st8" d="M847.181,115.034c2.447,0.844,4.408,2.935,4.408,6.236v0.115c0,1.154,0,1.154-1.154,1.154
		h-11.539c-1.154,0-1.154,0-1.154-1.154v-0.115c0-3.366,1.937-5.441,4.361-6.261v-2.785c0-1.223,0-1.223,2.585-1.223
		c2.492,0,2.492,0,2.492,1.223V115.034L847.181,115.034z M841.643,124.893L841.643,124.893c-0.97,0-1.8,0.784-1.8,1.777
		c0,1.038,0.831,1.8,1.8,1.8c0.946,0,1.753-0.762,1.753-1.8C843.397,125.677,842.589,124.893,841.643,124.893L841.643,124.893z
		 M838.113,131.146L838.113,131.146c-0.969,0-1.8,0.807-1.8,1.8c0,1.016,0.831,1.8,1.8,1.8c0.992,0,1.823-0.784,1.823-1.8
		C839.935,131.954,839.105,131.146,838.113,131.146L838.113,131.146z M835.112,137.446L835.112,137.446
		c-0.992,0-1.754,0.785-1.754,1.777c0,1.016,0.762,1.777,1.754,1.777c0.946,0,1.777-0.761,1.777-1.777
		C836.889,138.231,836.058,137.446,835.112,137.446L835.112,137.446z M847.989,124.893L847.989,124.893
		c-0.992,0-1.754,0.784-1.754,1.777c0,1.038,0.762,1.8,1.754,1.8c0.992,0,1.8-0.762,1.8-1.8
		C849.789,125.677,848.982,124.893,847.989,124.893L847.989,124.893z M844.643,131.146L844.643,131.146c-0.992,0-1.8,0.807-1.8,1.8
		c0,1.016,0.808,1.8,1.8,1.8c0.992,0,1.777-0.784,1.777-1.8C846.42,131.954,845.636,131.146,844.643,131.146L844.643,131.146z
		 M841.643,137.446L841.643,137.446c-0.97,0-1.8,0.785-1.8,1.777c0,1.016,0.831,1.777,1.8,1.777c0.946,0,1.753-0.761,1.753-1.777
		C843.397,138.231,842.589,137.446,841.643,137.446L841.643,137.446z M851.013,131.146L851.013,131.146c-0.969,0-1.8,0.807-1.8,1.8
		c0,1.016,0.831,1.8,1.8,1.8c0.992,0,1.823-0.784,1.823-1.8C852.836,131.954,852.005,131.146,851.013,131.146L851.013,131.146z
		 M847.989,137.446L847.989,137.446c-0.992,0-1.754,0.785-1.754,1.777c0,1.016,0.762,1.777,1.754,1.777c0.992,0,1.8-0.761,1.8-1.777
		C849.789,138.231,848.982,137.446,847.989,137.446L847.989,137.446z M854.174,137.446L854.174,137.446
		c-0.992,0-1.8,0.785-1.8,1.777c0,1.016,0.807,1.777,1.8,1.777c0.992,0,1.801-0.761,1.801-1.777
		C855.974,138.231,855.166,137.446,854.174,137.446z"/>
	<path id="Shower_2_" class="st8" d="M1308.515,115.034c2.447,0.844,4.408,2.935,4.408,6.236v0.115c0,1.154,0,1.154-1.154,1.154
		h-11.539c-1.154,0-1.154,0-1.154-1.154v-0.115c0-3.366,1.937-5.441,4.361-6.261v-2.785c0-1.223,0-1.223,2.585-1.223
		c2.492,0,2.492,0,2.492,1.223V115.034L1308.515,115.034z M1302.977,124.893L1302.977,124.893c-0.97,0-1.8,0.784-1.8,1.777
		c0,1.038,0.831,1.8,1.8,1.8c0.946,0,1.753-0.762,1.753-1.8C1304.73,125.677,1303.923,124.893,1302.977,124.893L1302.977,124.893z
		 M1299.446,131.146L1299.446,131.146c-0.969,0-1.8,0.807-1.8,1.8c0,1.016,0.831,1.8,1.8,1.8c0.992,0,1.823-0.784,1.823-1.8
		C1301.269,131.954,1300.438,131.146,1299.446,131.146L1299.446,131.146z M1296.446,137.446L1296.446,137.446
		c-0.992,0-1.754,0.785-1.754,1.777c0,1.016,0.761,1.777,1.754,1.777c0.946,0,1.777-0.761,1.777-1.777
		C1298.222,138.231,1297.392,137.446,1296.446,137.446L1296.446,137.446z M1309.323,124.893L1309.323,124.893
		c-0.992,0-1.754,0.784-1.754,1.777c0,1.038,0.762,1.8,1.754,1.8c0.992,0,1.8-0.762,1.8-1.8
		C1311.123,125.677,1310.315,124.893,1309.323,124.893L1309.323,124.893z M1305.976,131.146L1305.976,131.146
		c-0.992,0-1.8,0.807-1.8,1.8c0,1.016,0.808,1.8,1.8,1.8c0.992,0,1.777-0.784,1.777-1.8
		C1307.753,131.954,1306.969,131.146,1305.976,131.146L1305.976,131.146z M1302.977,137.446L1302.977,137.446
		c-0.97,0-1.8,0.785-1.8,1.777c0,1.016,0.831,1.777,1.8,1.777c0.946,0,1.753-0.761,1.753-1.777
		C1304.73,138.231,1303.923,137.446,1302.977,137.446L1302.977,137.446z M1312.346,131.146L1312.346,131.146
		c-0.969,0-1.8,0.807-1.8,1.8c0,1.016,0.83,1.8,1.8,1.8c0.992,0,1.823-0.784,1.823-1.8
		C1314.169,131.954,1313.338,131.146,1312.346,131.146L1312.346,131.146z M1309.323,137.446L1309.323,137.446
		c-0.992,0-1.754,0.785-1.754,1.777c0,1.016,0.762,1.777,1.754,1.777c0.992,0,1.8-0.761,1.8-1.777
		C1311.123,138.231,1310.315,137.446,1309.323,137.446L1309.323,137.446z M1315.507,137.446L1315.507,137.446
		c-0.992,0-1.8,0.785-1.8,1.777c0,1.016,0.807,1.777,1.8,1.777s1.801-0.761,1.801-1.777
		C1317.308,138.231,1316.5,137.446,1315.507,137.446z"/>
	<path id="Shower_3_" class="st8" d="M1398.514,115.034c2.447,0.844,4.408,2.935,4.408,6.236v0.115c0,1.154,0,1.154-1.154,1.154
		h-11.539c-1.154,0-1.154,0-1.154-1.154v-0.115c0-3.366,1.937-5.441,4.361-6.261v-2.785c0-1.223,0-1.223,2.585-1.223
		c2.492,0,2.492,0,2.492,1.223V115.034L1398.514,115.034z M1392.976,124.893L1392.976,124.893c-0.97,0-1.8,0.784-1.8,1.777
		c0,1.038,0.831,1.8,1.8,1.8c0.946,0,1.753-0.762,1.753-1.8C1394.73,125.677,1393.922,124.893,1392.976,124.893L1392.976,124.893z
		 M1389.445,131.146L1389.445,131.146c-0.969,0-1.8,0.807-1.8,1.8c0,1.016,0.83,1.8,1.8,1.8c0.992,0,1.823-0.784,1.823-1.8
		C1391.268,131.954,1390.438,131.146,1389.445,131.146L1389.445,131.146z M1386.445,137.446L1386.445,137.446
		c-0.992,0-1.754,0.785-1.754,1.777c0,1.016,0.762,1.777,1.754,1.777c0.946,0,1.777-0.761,1.777-1.777
		C1388.222,138.231,1387.391,137.446,1386.445,137.446L1386.445,137.446z M1399.322,124.893L1399.322,124.893
		c-0.992,0-1.754,0.784-1.754,1.777c0,1.038,0.761,1.8,1.754,1.8s1.8-0.762,1.8-1.8
		C1401.122,125.677,1400.315,124.893,1399.322,124.893L1399.322,124.893z M1395.976,131.146L1395.976,131.146
		c-0.992,0-1.8,0.807-1.8,1.8c0,1.016,0.808,1.8,1.8,1.8c0.992,0,1.777-0.784,1.777-1.8
		C1397.753,131.954,1396.969,131.146,1395.976,131.146L1395.976,131.146z M1392.976,137.446L1392.976,137.446
		c-0.97,0-1.8,0.785-1.8,1.777c0,1.016,0.831,1.777,1.8,1.777c0.946,0,1.753-0.761,1.753-1.777
		C1394.73,138.231,1393.922,137.446,1392.976,137.446L1392.976,137.446z M1402.345,131.146L1402.345,131.146
		c-0.969,0-1.8,0.807-1.8,1.8c0,1.016,0.831,1.8,1.8,1.8c0.992,0,1.823-0.784,1.823-1.8
		C1404.168,131.954,1403.338,131.146,1402.345,131.146L1402.345,131.146z M1399.322,137.446L1399.322,137.446
		c-0.992,0-1.754,0.785-1.754,1.777c0,1.016,0.761,1.777,1.754,1.777s1.8-0.761,1.8-1.777
		C1401.122,138.231,1400.315,137.446,1399.322,137.446L1399.322,137.446z M1405.507,137.446L1405.507,137.446
		c-0.992,0-1.8,0.785-1.8,1.777c0,1.016,0.807,1.777,1.8,1.777c0.993,0,1.801-0.761,1.801-1.777
		C1407.307,138.231,1406.499,137.446,1405.507,137.446z"/>
	<path id="Shower_4_" class="st8" d="M1859.848,115.034c2.447,0.844,4.408,2.935,4.408,6.236v0.115c0,1.154,0,1.154-1.154,1.154
		h-11.539c-1.154,0-1.154,0-1.154-1.154v-0.115c0-3.366,1.937-5.441,4.361-6.261v-2.785c0-1.223,0-1.223,2.585-1.223
		c2.492,0,2.492,0,2.492,1.223V115.034L1859.848,115.034z M1854.31,124.893L1854.31,124.893c-0.97,0-1.8,0.784-1.8,1.777
		c0,1.038,0.831,1.8,1.8,1.8c0.946,0,1.753-0.762,1.753-1.8C1856.063,125.677,1855.255,124.893,1854.31,124.893L1854.31,124.893z
		 M1850.779,131.146L1850.779,131.146c-0.969,0-1.8,0.807-1.8,1.8c0,1.016,0.831,1.8,1.8,1.8c0.992,0,1.823-0.784,1.823-1.8
		C1852.602,131.954,1851.771,131.146,1850.779,131.146L1850.779,131.146z M1847.779,137.446L1847.779,137.446
		c-0.992,0-1.754,0.785-1.754,1.777c0,1.016,0.762,1.777,1.754,1.777c0.946,0,1.777-0.761,1.777-1.777
		C1849.555,138.231,1848.724,137.446,1847.779,137.446L1847.779,137.446z M1860.656,124.893L1860.656,124.893
		c-0.992,0-1.754,0.784-1.754,1.777c0,1.038,0.762,1.8,1.754,1.8c0.992,0,1.8-0.762,1.8-1.8
		C1862.455,125.677,1861.648,124.893,1860.656,124.893L1860.656,124.893z M1857.309,131.146L1857.309,131.146
		c-0.992,0-1.8,0.807-1.8,1.8c0,1.016,0.808,1.8,1.8,1.8c0.992,0,1.777-0.784,1.777-1.8
		C1859.086,131.954,1858.302,131.146,1857.309,131.146L1857.309,131.146z M1854.31,137.446L1854.31,137.446
		c-0.97,0-1.8,0.785-1.8,1.777c0,1.016,0.831,1.777,1.8,1.777c0.946,0,1.753-0.761,1.753-1.777
		C1856.063,138.231,1855.255,137.446,1854.31,137.446L1854.31,137.446z M1863.679,131.146L1863.679,131.146
		c-0.969,0-1.8,0.807-1.8,1.8c0,1.016,0.83,1.8,1.8,1.8c0.992,0,1.823-0.784,1.823-1.8
		C1865.502,131.954,1864.671,131.146,1863.679,131.146L1863.679,131.146z M1860.656,137.446L1860.656,137.446
		c-0.992,0-1.754,0.785-1.754,1.777c0,1.016,0.762,1.777,1.754,1.777c0.992,0,1.8-0.761,1.8-1.777
		C1862.455,138.231,1861.648,137.446,1860.656,137.446L1860.656,137.446z M1866.84,137.446L1866.84,137.446
		c-0.992,0-1.8,0.785-1.8,1.777c0,1.016,0.807,1.777,1.8,1.777s1.801-0.761,1.801-1.777
		C1868.641,138.231,1867.832,137.446,1866.84,137.446z"/>
	<path id="Shower_5_" class="st8" d="M1949.847,115.034c2.447,0.844,4.408,2.935,4.408,6.236v0.115c0,1.154,0,1.154-1.154,1.154
		h-11.539c-1.154,0-1.154,0-1.154-1.154v-0.115c0-3.366,1.937-5.441,4.361-6.261v-2.785c0-1.223,0-1.223,2.585-1.223
		c2.492,0,2.492,0,2.492,1.223V115.034L1949.847,115.034z M1944.309,124.893L1944.309,124.893c-0.97,0-1.8,0.784-1.8,1.777
		c0,1.038,0.831,1.8,1.8,1.8c0.946,0,1.753-0.762,1.753-1.8C1946.063,125.677,1945.255,124.893,1944.309,124.893L1944.309,124.893z
		 M1940.778,131.146L1940.778,131.146c-0.969,0-1.8,0.807-1.8,1.8c0,1.016,0.831,1.8,1.8,1.8c0.992,0,1.823-0.784,1.823-1.8
		C1942.601,131.954,1941.771,131.146,1940.778,131.146L1940.778,131.146z M1937.778,137.446L1937.778,137.446
		c-0.992,0-1.754,0.785-1.754,1.777c0,1.016,0.761,1.777,1.754,1.777c0.946,0,1.777-0.761,1.777-1.777
		C1939.555,138.231,1938.724,137.446,1937.778,137.446L1937.778,137.446z M1950.655,124.893L1950.655,124.893
		c-0.992,0-1.754,0.784-1.754,1.777c0,1.038,0.762,1.8,1.754,1.8c0.992,0,1.8-0.762,1.8-1.8
		C1952.455,125.677,1951.648,124.893,1950.655,124.893L1950.655,124.893z M1947.309,131.146L1947.309,131.146
		c-0.992,0-1.8,0.807-1.8,1.8c0,1.016,0.808,1.8,1.8,1.8c0.992,0,1.777-0.784,1.777-1.8
		C1949.086,131.954,1948.301,131.146,1947.309,131.146L1947.309,131.146z M1944.309,137.446L1944.309,137.446
		c-0.97,0-1.8,0.785-1.8,1.777c0,1.016,0.831,1.777,1.8,1.777c0.946,0,1.753-0.761,1.753-1.777
		C1946.063,138.231,1945.255,137.446,1944.309,137.446L1944.309,137.446z M1953.678,131.146L1953.678,131.146
		c-0.969,0-1.8,0.807-1.8,1.8c0,1.016,0.83,1.8,1.8,1.8c0.992,0,1.823-0.784,1.823-1.8
		C1955.501,131.954,1954.671,131.146,1953.678,131.146L1953.678,131.146z M1950.655,137.446L1950.655,137.446
		c-0.992,0-1.754,0.785-1.754,1.777c0,1.016,0.762,1.777,1.754,1.777c0.992,0,1.8-0.761,1.8-1.777
		C1952.455,138.231,1951.648,137.446,1950.655,137.446L1950.655,137.446z M1956.84,137.446L1956.84,137.446
		c-0.992,0-1.8,0.785-1.8,1.777c0,1.016,0.807,1.777,1.8,1.777s1.801-0.761,1.801-1.777
		C1958.64,138.231,1957.832,137.446,1956.84,137.446z"/>
	<path id="Sink" class="st8" d="M763.37,53.257h-1.894c-0.063-0.09-0.126-0.036-0.216-0.054v-1.409
		c0.018-0.467-0.35-0.861-0.816-0.87h-0.027h-1.669v-3.015c0.054-0.018,0.117-0.036,0.171-0.036h2.647
		c0.539,0,0.951-0.467,0.951-1.005v-0.906c0.009-0.52-0.395-0.942-0.915-0.96h-0.036h-9.117c-0.53-0.009-0.96,0.413-0.969,0.933
		v0.018v0.906c-0.009,0.547,0.422,0.987,0.969,1.005h2.979v3.051h-1.75c-0.467,0-0.852,0.386-0.852,0.853v0.018v1.292
		c-0.18,0.171-0.467,0.215-0.871,0.207c-1.319-0.027-2.629,0.018-3.939,0.117c-2.961,0.242-4.37,1.328-4.882,3.733
		c-0.126,0.575-0.17,1.176-0.233,1.759c-0.296,2.593-0.296,2.593,2.324,2.593c2.127,0,2.181,0,2.136-2.073
		c-0.027-1.113,0.467-1.561,1.472-1.588c1.31-0.036,2.629,0,3.939-0.054c0.682-0.027,1.14,0.171,1.624,0.709
		c1.552,1.732,4.038,1.643,5.519-0.17c0.126-0.162,0.278-0.296,0.458-0.395h6.192v-4.657H763.37L763.37,53.257z M743.761,67.031
		L743.761,67.031c0.511,0,0.924-0.414,0.924-0.924c0-0.511-0.414-0.924-0.924-0.924c-0.51,0-0.924,0.414-0.924,0.924
		C742.837,66.617,743.251,67.031,743.761,67.031L743.761,67.031z M747.432,67.004L747.432,67.004c0.51,0,0.924-0.414,0.924-0.924
		c0-0.511-0.414-0.924-0.924-0.924c-0.511,0-0.924,0.414-0.924,0.924C746.508,66.591,746.921,67.004,747.432,67.004L747.432,67.004z
		 M745.592,69.858L745.592,69.858c0.511,0,0.924-0.414,0.924-0.924c0-0.51-0.414-0.924-0.924-0.924c-0.51,0-0.924,0.414-0.924,0.924
		C744.668,69.444,745.082,69.858,745.592,69.858L745.592,69.858z M744.03,72.416L744.03,72.416c0.511,0,0.924-0.414,0.924-0.924
		c0-0.511-0.414-0.924-0.924-0.924c-0.51,0-0.924,0.414-0.924,0.924C743.106,72.001,743.52,72.416,744.03,72.416L744.03,72.416z
		 M747.88,72.487L747.88,72.487c0.511,0,0.924-0.414,0.924-0.924c0-0.51-0.414-0.924-0.924-0.924c-0.511,0-0.924,0.414-0.924,0.924
		C746.956,72.074,747.37,72.487,747.88,72.487L747.88,72.487z M745.861,75L745.861,75c0.511,0,0.924-0.414,0.924-0.924
		c0-0.511-0.414-0.924-0.924-0.924c-0.51,0-0.924,0.414-0.924,0.924C744.937,74.586,745.351,75,745.861,75L745.861,75z
		 M745.592,64.527L745.592,64.527c0.511,0,0.924-0.414,0.924-0.924c0-0.51-0.414-0.924-0.924-0.924c-0.51,0-0.924,0.414-0.924,0.924
		C744.668,64.114,745.082,64.527,745.592,64.527z"/>
	<path id="Sink_1_" class="st8" d="M835.964,53.257h-3.194v4.657h6.192c0.18,0.099,0.332,0.233,0.458,0.395
		c1.481,1.813,3.966,1.903,5.519,0.17c0.485-0.538,0.943-0.736,1.624-0.709c1.31,0.054,2.629,0.018,3.939,0.054
		c1.005,0.027,1.499,0.476,1.472,1.588c-0.045,2.073,0.009,2.073,2.136,2.073c2.62,0,2.62,0,2.324-2.593
		c-0.063-0.583-0.107-1.184-0.233-1.759c-0.512-2.405-1.921-3.491-4.882-3.733c-1.311-0.099-2.62-0.144-3.939-0.117
		c-0.404,0.009-0.691-0.036-0.871-0.207v-1.292v-0.018c0-0.467-0.386-0.853-0.852-0.853h-1.75v-3.051h2.979
		c0.547-0.018,0.978-0.458,0.969-1.005v-0.906v-0.018c-0.009-0.52-0.439-0.942-0.969-0.933h-9.118h-0.036
		c-0.52,0.018-0.924,0.44-0.915,0.96v0.906c0,0.538,0.412,1.005,0.951,1.005h2.648c0.054,0,0.117,0.018,0.171,0.036v3.015h-1.669
		h-0.027c-0.467,0.009-0.835,0.404-0.816,0.87v1.409c-0.09,0.018-0.153-0.036-0.216,0.054H835.964L835.964,53.257z M855.572,67.031
		c0.51,0,0.924-0.414,0.924-0.924c0-0.511-0.414-0.924-0.924-0.924c-0.511,0-0.924,0.414-0.924,0.924
		C854.647,66.617,855.061,67.031,855.572,67.031L855.572,67.031L855.572,67.031z M851.901,67.004c0.511,0,0.924-0.414,0.924-0.924
		c0-0.511-0.413-0.924-0.924-0.924c-0.51,0-0.924,0.414-0.924,0.924C850.977,66.591,851.391,67.004,851.901,67.004L851.901,67.004
		L851.901,67.004z M853.741,69.858c0.51,0,0.924-0.414,0.924-0.924c0-0.51-0.414-0.924-0.924-0.924
		c-0.511,0-0.924,0.414-0.924,0.924C852.817,69.444,853.23,69.858,853.741,69.858L853.741,69.858L853.741,69.858z M855.303,72.416
		c0.51,0,0.924-0.414,0.924-0.924c0-0.511-0.414-0.924-0.924-0.924c-0.511,0-0.924,0.414-0.924,0.924
		C854.378,72.001,854.792,72.416,855.303,72.416L855.303,72.416L855.303,72.416z M851.453,72.487c0.511,0,0.924-0.414,0.924-0.924
		c0-0.51-0.413-0.924-0.924-0.924c-0.51,0-0.924,0.414-0.924,0.924C850.528,72.074,850.942,72.487,851.453,72.487L851.453,72.487
		L851.453,72.487z M853.472,75c0.51,0,0.924-0.414,0.924-0.924c0-0.511-0.414-0.924-0.924-0.924c-0.511,0-0.924,0.414-0.924,0.924
		C852.547,74.586,852.961,75,853.472,75L853.472,75L853.472,75z M854.666,63.603c0-0.51-0.414-0.924-0.924-0.924
		c-0.511,0-0.924,0.414-0.924,0.924c0,0.511,0.414,0.924,0.924,0.924l0,0C854.251,64.527,854.666,64.114,854.666,63.603z"/>
	<path id="Sink_3_" class="st8" d="M1314.703,53.257h-1.894c-0.063-0.09-0.126-0.036-0.215-0.054v-1.409
		c0.018-0.467-0.35-0.861-0.817-0.87h-0.027h-1.669v-3.015c0.054-0.018,0.117-0.036,0.171-0.036h2.648
		c0.539,0,0.951-0.467,0.951-1.005v-0.906c0.009-0.52-0.395-0.942-0.915-0.96h-0.036h-9.118c-0.53-0.009-0.96,0.413-0.969,0.933
		v0.018v0.906c-0.009,0.547,0.422,0.987,0.969,1.005h2.979v3.051h-1.75c-0.467,0-0.853,0.386-0.853,0.853v0.018v1.292
		c-0.179,0.171-0.467,0.215-0.871,0.207c-1.319-0.027-2.629,0.018-3.939,0.117c-2.961,0.242-4.37,1.328-4.882,3.733
		c-0.126,0.575-0.17,1.176-0.233,1.759c-0.296,2.593-0.296,2.593,2.324,2.593c2.127,0,2.181,0,2.136-2.073
		c-0.027-1.113,0.467-1.561,1.472-1.588c1.31-0.036,2.629,0,3.939-0.054c0.682-0.027,1.14,0.171,1.624,0.709
		c1.552,1.732,4.038,1.643,5.519-0.17c0.126-0.162,0.278-0.296,0.458-0.395h6.192v-4.657H1314.703L1314.703,53.257z
		 M1295.094,67.031L1295.094,67.031c0.511,0,0.924-0.414,0.924-0.924c0-0.511-0.414-0.924-0.924-0.924
		c-0.51,0-0.924,0.414-0.924,0.924C1294.17,66.617,1294.584,67.031,1295.094,67.031L1295.094,67.031z M1298.765,67.004
		L1298.765,67.004c0.51,0,0.924-0.414,0.924-0.924c0-0.511-0.414-0.924-0.924-0.924c-0.511,0-0.924,0.414-0.924,0.924
		C1297.84,66.591,1298.254,67.004,1298.765,67.004L1298.765,67.004z M1296.925,69.858L1296.925,69.858
		c0.511,0,0.924-0.414,0.924-0.924c0-0.51-0.414-0.924-0.924-0.924c-0.51,0-0.924,0.414-0.924,0.924
		C1296,69.444,1296.415,69.858,1296.925,69.858L1296.925,69.858z M1295.363,72.416L1295.363,72.416c0.511,0,0.924-0.414,0.924-0.924
		c0-0.511-0.413-0.924-0.924-0.924c-0.51,0-0.924,0.414-0.924,0.924C1294.439,72.001,1294.853,72.416,1295.363,72.416
		L1295.363,72.416z M1299.213,72.487L1299.213,72.487c0.51,0,0.924-0.414,0.924-0.924c0-0.51-0.414-0.924-0.924-0.924
		c-0.511,0-0.924,0.414-0.924,0.924C1298.289,72.074,1298.703,72.487,1299.213,72.487L1299.213,72.487z M1297.194,75L1297.194,75
		c0.511,0,0.924-0.414,0.924-0.924c0-0.511-0.414-0.924-0.924-0.924c-0.51,0-0.924,0.414-0.924,0.924
		C1296.27,74.586,1296.684,75,1297.194,75L1297.194,75z M1296.925,64.527L1296.925,64.527c0.511,0,0.924-0.414,0.924-0.924
		c0-0.51-0.414-0.924-0.924-0.924c-0.51,0-0.924,0.414-0.924,0.924C1296,64.114,1296.415,64.527,1296.925,64.527z"/>
	<path id="Sink_2_" class="st8" d="M1387.297,53.257h-3.194v4.657h6.192c0.18,0.099,0.332,0.233,0.458,0.395
		c1.481,1.813,3.966,1.903,5.519,0.17c0.485-0.538,0.943-0.736,1.624-0.709c1.31,0.054,2.629,0.018,3.939,0.054
		c1.005,0.027,1.499,0.476,1.472,1.588c-0.045,2.073,0.009,2.073,2.136,2.073c2.62,0,2.62,0,2.324-2.593
		c-0.063-0.583-0.107-1.184-0.233-1.759c-0.511-2.405-1.921-3.491-4.882-3.733c-1.311-0.099-2.62-0.144-3.939-0.117
		c-0.404,0.009-0.691-0.036-0.871-0.207v-1.292v-0.018c0-0.467-0.386-0.853-0.852-0.853h-1.75v-3.051h2.979
		c0.548-0.018,0.978-0.458,0.969-1.005v-0.906v-0.018c-0.009-0.52-0.439-0.942-0.969-0.933h-9.117h-0.036
		c-0.52,0.018-0.924,0.44-0.915,0.96v0.906c0,0.538,0.412,1.005,0.951,1.005h2.647c0.054,0,0.117,0.018,0.171,0.036v3.015h-1.669
		h-0.027c-0.467,0.009-0.835,0.404-0.817,0.87v1.409c-0.09,0.018-0.153-0.036-0.215,0.054H1387.297L1387.297,53.257z
		 M1406.905,67.031c0.51,0,0.924-0.414,0.924-0.924c0-0.511-0.414-0.924-0.924-0.924c-0.511,0-0.924,0.414-0.924,0.924
		C1405.98,66.617,1406.394,67.031,1406.905,67.031L1406.905,67.031L1406.905,67.031z M1403.234,67.004
		c0.511,0,0.924-0.414,0.924-0.924c0-0.511-0.413-0.924-0.924-0.924c-0.51,0-0.924,0.414-0.924,0.924
		C1402.31,66.591,1402.724,67.004,1403.234,67.004L1403.234,67.004L1403.234,67.004z M1405.074,69.858
		c0.51,0,0.924-0.414,0.924-0.924c0-0.51-0.414-0.924-0.924-0.924c-0.511,0-0.924,0.414-0.924,0.924
		C1404.15,69.444,1404.563,69.858,1405.074,69.858L1405.074,69.858L1405.074,69.858z M1406.636,72.416
		c0.51,0,0.924-0.414,0.924-0.924c0-0.511-0.414-0.924-0.924-0.924c-0.511,0-0.924,0.414-0.924,0.924
		C1405.711,72.001,1406.125,72.416,1406.636,72.416L1406.636,72.416L1406.636,72.416z M1402.786,72.487
		c0.511,0,0.924-0.414,0.924-0.924c0-0.51-0.413-0.924-0.924-0.924c-0.51,0-0.924,0.414-0.924,0.924
		C1401.861,72.074,1402.275,72.487,1402.786,72.487L1402.786,72.487L1402.786,72.487z M1404.805,75c0.51,0,0.924-0.414,0.924-0.924
		c0-0.511-0.414-0.924-0.924-0.924c-0.511,0-0.924,0.414-0.924,0.924C1403.88,74.586,1404.294,75,1404.805,75L1404.805,75
		L1404.805,75z M1405.999,63.603c0-0.51-0.414-0.924-0.924-0.924c-0.511,0-0.924,0.414-0.924,0.924c0,0.511,0.414,0.924,0.924,0.924
		l0,0C1405.584,64.527,1405.999,64.114,1405.999,63.603z"/>
	<path id="Sink_5_" class="st8" d="M1866.035,53.257h-1.894c-0.063-0.09-0.126-0.036-0.215-0.054v-1.409
		c0.018-0.467-0.35-0.861-0.817-0.87h-0.027h-1.669v-3.015c0.054-0.018,0.117-0.036,0.171-0.036h2.647
		c0.539,0,0.951-0.467,0.951-1.005v-0.906c0.009-0.52-0.395-0.942-0.915-0.96h-0.036h-9.118c-0.53-0.009-0.96,0.413-0.969,0.933
		v0.018v0.906c-0.009,0.547,0.422,0.987,0.969,1.005h2.979v3.051h-1.75c-0.467,0-0.853,0.386-0.853,0.853v0.018v1.292
		c-0.179,0.171-0.467,0.215-0.871,0.207c-1.319-0.027-2.629,0.018-3.939,0.117c-2.961,0.242-4.37,1.328-4.882,3.733
		c-0.126,0.575-0.17,1.176-0.233,1.759c-0.296,2.593-0.296,2.593,2.324,2.593c2.127,0,2.181,0,2.136-2.073
		c-0.027-1.113,0.467-1.561,1.472-1.588c1.31-0.036,2.629,0,3.939-0.054c0.682-0.027,1.14,0.171,1.624,0.709
		c1.552,1.732,4.038,1.643,5.519-0.17c0.126-0.162,0.278-0.296,0.458-0.395h6.192v-4.657H1866.035L1866.035,53.257z
		 M1846.427,67.031L1846.427,67.031c0.511,0,0.924-0.414,0.924-0.924c0-0.511-0.414-0.924-0.924-0.924
		c-0.51,0-0.924,0.414-0.924,0.924C1845.503,66.617,1845.917,67.031,1846.427,67.031L1846.427,67.031z M1850.098,67.004
		L1850.098,67.004c0.51,0,0.924-0.414,0.924-0.924c0-0.511-0.414-0.924-0.924-0.924c-0.511,0-0.924,0.414-0.924,0.924
		C1849.173,66.591,1849.587,67.004,1850.098,67.004L1850.098,67.004z M1848.258,69.858L1848.258,69.858
		c0.511,0,0.924-0.414,0.924-0.924c0-0.51-0.414-0.924-0.924-0.924c-0.51,0-0.924,0.414-0.924,0.924
		C1847.333,69.444,1847.748,69.858,1848.258,69.858L1848.258,69.858z M1846.696,72.416L1846.696,72.416
		c0.511,0,0.924-0.414,0.924-0.924c0-0.511-0.413-0.924-0.924-0.924c-0.51,0-0.924,0.414-0.924,0.924
		C1845.772,72.001,1846.186,72.416,1846.696,72.416L1846.696,72.416z M1850.546,72.487L1850.546,72.487
		c0.51,0,0.924-0.414,0.924-0.924c0-0.51-0.414-0.924-0.924-0.924c-0.511,0-0.924,0.414-0.924,0.924
		C1849.622,72.074,1850.036,72.487,1850.546,72.487L1850.546,72.487z M1848.527,75L1848.527,75c0.511,0,0.924-0.414,0.924-0.924
		c0-0.511-0.414-0.924-0.924-0.924c-0.51,0-0.924,0.414-0.924,0.924C1847.603,74.586,1848.017,75,1848.527,75L1848.527,75z
		 M1848.258,64.527L1848.258,64.527c0.511,0,0.924-0.414,0.924-0.924c0-0.51-0.414-0.924-0.924-0.924
		c-0.51,0-0.924,0.414-0.924,0.924C1847.333,64.114,1847.748,64.527,1848.258,64.527z"/>
	<path id="Sink_4_" class="st8" d="M1938.63,53.257h-3.194v4.657h6.192c0.179,0.099,0.332,0.233,0.458,0.395
		c1.481,1.813,3.966,1.903,5.519,0.17c0.485-0.538,0.943-0.736,1.624-0.709c1.31,0.054,2.629,0.018,3.939,0.054
		c1.005,0.027,1.499,0.476,1.472,1.588c-0.045,2.073,0.009,2.073,2.136,2.073c2.62,0,2.62,0,2.324-2.593
		c-0.063-0.583-0.107-1.184-0.233-1.759c-0.512-2.405-1.921-3.491-4.882-3.733c-1.311-0.099-2.62-0.144-3.939-0.117
		c-0.404,0.009-0.691-0.036-0.871-0.207v-1.292v-0.018c0-0.467-0.386-0.853-0.852-0.853h-1.75v-3.051h2.979
		c0.547-0.018,0.978-0.458,0.969-1.005v-0.906v-0.018c-0.009-0.52-0.439-0.942-0.969-0.933h-9.118h-0.036
		c-0.52,0.018-0.924,0.44-0.915,0.96v0.906c0,0.538,0.412,1.005,0.951,1.005h2.647c0.054,0,0.117,0.018,0.171,0.036v3.015h-1.669
		h-0.027c-0.467,0.009-0.835,0.404-0.816,0.87v1.409c-0.09,0.018-0.153-0.036-0.216,0.054H1938.63L1938.63,53.257z M1958.238,67.031
		c0.51,0,0.924-0.414,0.924-0.924c0-0.511-0.414-0.924-0.924-0.924c-0.511,0-0.924,0.414-0.924,0.924
		C1957.313,66.617,1957.727,67.031,1958.238,67.031L1958.238,67.031L1958.238,67.031z M1954.567,67.004
		c0.511,0,0.924-0.414,0.924-0.924c0-0.511-0.413-0.924-0.924-0.924c-0.51,0-0.924,0.414-0.924,0.924
		C1953.643,66.591,1954.057,67.004,1954.567,67.004L1954.567,67.004L1954.567,67.004z M1956.407,69.858
		c0.51,0,0.924-0.414,0.924-0.924c0-0.51-0.414-0.924-0.924-0.924c-0.511,0-0.924,0.414-0.924,0.924
		C1955.483,69.444,1955.896,69.858,1956.407,69.858L1956.407,69.858L1956.407,69.858z M1957.969,72.416
		c0.51,0,0.924-0.414,0.924-0.924c0-0.511-0.414-0.924-0.924-0.924c-0.511,0-0.924,0.414-0.924,0.924
		C1957.044,72.001,1957.458,72.416,1957.969,72.416L1957.969,72.416L1957.969,72.416z M1954.119,72.487
		c0.511,0,0.924-0.414,0.924-0.924c0-0.51-0.413-0.924-0.924-0.924c-0.51,0-0.924,0.414-0.924,0.924
		C1953.194,72.074,1953.608,72.487,1954.119,72.487L1954.119,72.487L1954.119,72.487z M1956.138,75c0.51,0,0.924-0.414,0.924-0.924
		c0-0.511-0.414-0.924-0.924-0.924c-0.511,0-0.924,0.414-0.924,0.924C1955.213,74.586,1955.627,75,1956.138,75L1956.138,75
		L1956.138,75z M1957.331,63.603c0-0.51-0.414-0.924-0.924-0.924c-0.511,0-0.924,0.414-0.924,0.924c0,0.511,0.413,0.924,0.924,0.924
		l0,0C1956.917,64.527,1957.331,64.114,1957.331,63.603z"/>
	<path class="st8" d="M763.287,216.785c-0.045,0.281-0.276,0.572-0.586,0.572h-24.068c-0.311,0-0.541-0.292-0.587-0.572
		c-0.089-0.56,0.562-0.861,0.958-0.992c2.794-0.92,9.923-3.393,11.664-3.996c1.741,0.603,8.868,3.076,11.663,3.996
		C762.726,215.924,763.377,216.225,763.287,216.785L763.287,216.785z M763.071,213.54L763.071,213.54
		c-2.624-0.863-9.105-3.109-11.283-3.865v-1.681c0-0.139,0.198-0.575,0.813-1.041c1.983-1.507,1.758-3.556,1.359-4.426
		c-0.614-1.362-1.954-2.228-3.494-2.256c-1.03-0.021-1.992,0.366-2.728,1.086c-0.746,0.729-1.17,1.747-1.17,2.788
		c0,0.147,0.008,0.299,0.028,0.464c0.079,0.65,0.668,1.116,1.32,1.038c0.65-0.078,1.115-0.668,1.037-1.318
		c-0.008-0.072-0.012-0.134-0.012-0.184c0-0.408,0.167-0.806,0.459-1.091c0.277-0.273,0.631-0.418,1.018-0.411
		c0.299,0.006,1.027,0.1,1.376,0.847c0.058,0.163,0.261,0.897-0.628,1.573c-1.113,0.844-1.752,1.914-1.752,2.93v1.727
		c-2.295,0.795-8.58,2.973-11.152,3.82c-2.201,0.723-2.755,2.402-2.56,3.621c0.236,1.464,1.495,2.569,2.93,2.569H762.7
		c1.436,0,2.696-1.105,2.93-2.569C765.824,215.942,765.272,214.263,763.071,213.54z"/>
	<path class="st8" d="M861.286,216.785c-0.045,0.281-0.276,0.572-0.586,0.572h-24.068c-0.311,0-0.541-0.292-0.587-0.572
		c-0.089-0.56,0.562-0.861,0.958-0.992c2.794-0.92,9.923-3.393,11.664-3.996c1.741,0.603,8.868,3.076,11.663,3.996
		C860.726,215.924,861.377,216.225,861.286,216.785L861.286,216.785z M861.071,213.54L861.071,213.54
		c-2.624-0.863-9.105-3.109-11.283-3.865v-1.681c0-0.139,0.198-0.575,0.813-1.041c1.983-1.507,1.758-3.556,1.359-4.426
		c-0.614-1.362-1.954-2.228-3.494-2.256c-1.03-0.021-1.992,0.366-2.728,1.086c-0.746,0.729-1.17,1.747-1.17,2.788
		c0,0.147,0.008,0.299,0.028,0.464c0.079,0.65,0.668,1.116,1.32,1.038c0.65-0.078,1.115-0.668,1.037-1.318
		c-0.008-0.072-0.012-0.134-0.012-0.184c0-0.408,0.167-0.806,0.459-1.091c0.277-0.273,0.631-0.418,1.018-0.411
		c0.299,0.006,1.027,0.1,1.376,0.847c0.058,0.163,0.261,0.897-0.628,1.573c-1.113,0.844-1.752,1.914-1.752,2.93v1.727
		c-2.295,0.795-8.58,2.973-11.152,3.82c-2.201,0.723-2.755,2.402-2.56,3.621c0.236,1.464,1.495,2.569,2.93,2.569H860.7
		c1.436,0,2.696-1.105,2.93-2.569C863.824,215.942,863.272,214.263,861.071,213.54z"/>
	<path class="st8" d="M1314.619,216.785c-0.045,0.281-0.276,0.572-0.586,0.572h-24.068c-0.311,0-0.541-0.292-0.587-0.572
		c-0.089-0.56,0.562-0.861,0.958-0.992c2.794-0.92,9.923-3.393,11.664-3.996c1.741,0.603,8.868,3.076,11.663,3.996
		C1314.059,215.924,1314.71,216.225,1314.619,216.785L1314.619,216.785z M1314.404,213.54L1314.404,213.54
		c-2.624-0.863-9.105-3.109-11.283-3.865v-1.681c0-0.139,0.198-0.575,0.813-1.041c1.983-1.507,1.758-3.556,1.359-4.426
		c-0.614-1.362-1.954-2.228-3.494-2.256c-1.03-0.021-1.992,0.366-2.728,1.086c-0.746,0.729-1.17,1.747-1.17,2.788
		c0,0.147,0.009,0.299,0.028,0.464c0.079,0.65,0.668,1.116,1.32,1.038c0.65-0.078,1.115-0.668,1.037-1.318
		c-0.008-0.072-0.012-0.134-0.012-0.184c0-0.408,0.167-0.806,0.459-1.091c0.277-0.273,0.631-0.418,1.018-0.411
		c0.299,0.006,1.027,0.1,1.376,0.847c0.058,0.163,0.261,0.897-0.628,1.573c-1.113,0.844-1.752,1.914-1.752,2.93v1.727
		c-2.295,0.795-8.58,2.973-11.152,3.82c-2.201,0.723-2.755,2.402-2.56,3.621c0.236,1.464,1.495,2.569,2.929,2.569h24.068
		c1.436,0,2.696-1.105,2.93-2.569C1317.157,215.942,1316.605,214.263,1314.404,213.54z"/>
	<path class="st8" d="M1412.619,216.785c-0.045,0.281-0.276,0.572-0.586,0.572h-24.068c-0.311,0-0.541-0.292-0.587-0.572
		c-0.089-0.56,0.563-0.861,0.958-0.992c2.795-0.92,9.923-3.393,11.664-3.996c1.741,0.603,8.868,3.076,11.663,3.996
		C1412.058,215.924,1412.709,216.225,1412.619,216.785L1412.619,216.785z M1412.404,213.54L1412.404,213.54
		c-2.624-0.863-9.105-3.109-11.283-3.865v-1.681c0-0.139,0.198-0.575,0.813-1.041c1.983-1.507,1.758-3.556,1.359-4.426
		c-0.614-1.362-1.954-2.228-3.494-2.256c-1.03-0.021-1.992,0.366-2.728,1.086c-0.746,0.729-1.17,1.747-1.17,2.788
		c0,0.147,0.008,0.299,0.028,0.464c0.079,0.65,0.667,1.116,1.32,1.038c0.65-0.078,1.115-0.668,1.037-1.318
		c-0.008-0.072-0.012-0.134-0.012-0.184c0-0.408,0.167-0.806,0.459-1.091c0.277-0.273,0.631-0.418,1.018-0.411
		c0.299,0.006,1.027,0.1,1.376,0.847c0.058,0.163,0.261,0.897-0.628,1.573c-1.113,0.844-1.752,1.914-1.752,2.93v1.727
		c-2.296,0.795-8.58,2.973-11.152,3.82c-2.201,0.723-2.755,2.402-2.56,3.621c0.236,1.464,1.495,2.569,2.93,2.569h24.068
		c1.436,0,2.696-1.105,2.93-2.569C1415.157,215.942,1414.605,214.263,1412.404,213.54z"/>
	<path class="st8" d="M1865.952,216.785c-0.045,0.281-0.276,0.572-0.586,0.572h-24.068c-0.311,0-0.541-0.292-0.587-0.572
		c-0.089-0.56,0.563-0.861,0.958-0.992c2.795-0.92,9.923-3.393,11.664-3.996c1.741,0.603,8.868,3.076,11.663,3.996
		C1865.392,215.924,1866.043,216.225,1865.952,216.785L1865.952,216.785z M1865.737,213.54L1865.737,213.54
		c-2.624-0.863-9.105-3.109-11.283-3.865v-1.681c0-0.139,0.198-0.575,0.813-1.041c1.983-1.507,1.758-3.556,1.359-4.426
		c-0.614-1.362-1.954-2.228-3.494-2.256c-1.03-0.021-1.992,0.366-2.728,1.086c-0.746,0.729-1.17,1.747-1.17,2.788
		c0,0.147,0.008,0.299,0.028,0.464c0.079,0.65,0.667,1.116,1.32,1.038c0.65-0.078,1.115-0.668,1.037-1.318
		c-0.008-0.072-0.012-0.134-0.012-0.184c0-0.408,0.167-0.806,0.459-1.091c0.277-0.273,0.631-0.418,1.018-0.411
		c0.299,0.006,1.027,0.1,1.376,0.847c0.058,0.163,0.261,0.897-0.628,1.573c-1.113,0.844-1.752,1.914-1.752,2.93v1.727
		c-2.296,0.795-8.58,2.973-11.152,3.82c-2.201,0.723-2.755,2.402-2.56,3.621c0.236,1.464,1.495,2.569,2.93,2.569h24.068
		c1.436,0,2.696-1.105,2.93-2.569C1868.49,215.942,1867.938,214.263,1865.737,213.54z"/>
	<path class="st8" d="M1963.952,216.785c-0.045,0.281-0.276,0.572-0.586,0.572h-24.068c-0.311,0-0.541-0.292-0.587-0.572
		c-0.089-0.56,0.562-0.861,0.958-0.992c2.794-0.92,9.923-3.393,11.664-3.996c1.741,0.603,8.868,3.076,11.663,3.996
		C1963.391,215.924,1964.042,216.225,1963.952,216.785L1963.952,216.785z M1963.737,213.54L1963.737,213.54
		c-2.624-0.863-9.105-3.109-11.283-3.865v-1.681c0-0.139,0.198-0.575,0.813-1.041c1.983-1.507,1.758-3.556,1.359-4.426
		c-0.614-1.362-1.954-2.228-3.494-2.256c-1.03-0.021-1.992,0.366-2.728,1.086c-0.746,0.729-1.17,1.747-1.17,2.788
		c0,0.147,0.008,0.299,0.028,0.464c0.079,0.65,0.667,1.116,1.32,1.038c0.651-0.078,1.115-0.668,1.037-1.318
		c-0.008-0.072-0.012-0.134-0.012-0.184c0-0.408,0.167-0.806,0.459-1.091c0.277-0.273,0.631-0.418,1.018-0.411
		c0.299,0.006,1.027,0.1,1.376,0.847c0.058,0.163,0.261,0.897-0.628,1.573c-1.113,0.844-1.752,1.914-1.752,2.93v1.727
		c-2.295,0.795-8.58,2.973-11.152,3.82c-2.201,0.723-2.755,2.402-2.56,3.621c0.236,1.464,1.495,2.569,2.929,2.569h24.068
		c1.436,0,2.696-1.105,2.93-2.569C1966.49,215.942,1965.938,214.263,1963.737,213.54z"/>
	<path id="Steward" class="st8" d="M314.547,107.095c-0.907-0.445-3.205-0.862-5.354-1.48c0.007-0.007-1.169-0.366-1.169-0.366
		c-0.231-0.079-0.457-0.162-0.674-0.248c-0.296-0.118-0.524-0.218-0.74-0.322c-0.134-0.066-0.222-0.112-0.308-0.157
		c-0.147-0.08-0.23-0.129-0.311-0.177c-0.13-0.08-0.22-0.139-0.305-0.201c-0.081-0.058-0.156-0.117-0.227-0.177
		c-0.107-0.091-0.158-0.14-0.207-0.189c-0.103-0.106-0.152-0.163-0.198-0.221c-0.072-0.093-0.117-0.162-0.157-0.231
		c-0.054-0.102-0.08-0.157-0.102-0.212c-0.043-0.123-0.058-0.176-0.069-0.23c-0.028-0.145-0.036-0.222-0.036-0.3v-1.358
		c1.369-1.088,2.372-2.762,2.758-4.709c0.727,0.009,1.298-1.176,1.353-2.64c0.054-1.463-0.428-2.649-1.078-2.649
		c-0.033,0-0.065,0.005-0.097,0.011v-0.957h0.229l0.591-3.293c0-1.562-0.897-2.166-3.192-2.718
		c-2.296-0.552-4.749-1.117-8.009-1.429c-3.26-0.312-3.69-0.462-3.69,2.261l0.576,5.179h0.257v0.957
		c-0.032-0.006-0.064-0.011-0.097-0.011c-0.651,0-1.132,1.186-1.078,2.649c0.055,1.464,0.626,2.649,1.277,2.649
		c0.462,1.938,1.465,3.614,2.834,4.7v1.357c0,0.079-0.008,0.155-0.021,0.232c-0.026,0.122-0.041,0.175-0.058,0.227
		c-0.047,0.126-0.073,0.18-0.101,0.232c-0.067,0.121-0.111,0.189-0.161,0.256c-0.071,0.088-0.118,0.142-0.168,0.196
		c-0.103,0.103-0.152,0.148-0.204,0.193c-0.125,0.106-0.194,0.16-0.266,0.211c-0.104,0.076-0.191,0.133-0.281,0.189
		c-0.129,0.078-0.204,0.122-0.282,0.164c-0.026,0.015-0.052,0.029-0.079,0.043c-0.078,0.042-0.156,0.082-0.238,0.122
		c-0.279,0.135-0.501,0.233-0.733,0.325c-0.028,0.011-0.057,0.023-0.084,0.034c-0.05,0.019-0.1,0.039-0.15,0.058l-1.678,0.551
		c-2.149,0.618-4.447,1.036-5.354,1.48c-0.6,0.293-1.11,0.721-1.464,1.356c0.001,0.001,30,0.002,30,0.002
		C315.647,107.821,315.144,107.388,314.547,107.095L314.547,107.095z M296.977,88.145c-0.695,0-1.259-0.751-1.259-1.677
		c0-0.927,0.564-1.678,1.259-1.678c0.695,0,1.259,0.751,1.259,1.678C298.236,87.394,297.673,88.145,296.977,88.145L296.977,88.145z"
		/>
	<path id="HotWater" class="st8" d="M309.143,306.714c0,1.579-1.279,2.857-2.857,2.857s-2.857-1.279-2.857-2.857
		c0-1.9,2.857-5,2.857-5S309.143,304.814,309.143,306.714z M282,281h11.429v7.143h5.714v-2.857L296.286,286v-3.571l2.857,0.714H302
		l2.857-0.714V286L302,285.286v2.857h4.286c1.579,0,2.857,1.279,2.857,2.857v5.714c0.789,0,1.429,0.64,1.429,1.429
		c0,0.789-0.64,1.429-1.429,1.429h-5.714c-0.789,0-1.429-0.64-1.429-1.429c0-0.789,0.64-1.429,1.429-1.429v-2.857h-10V311H282V281z"
		/>
	<path id="RoomService" class="st8" d="M456.148,122.256c0.06-0.48,0.105-0.96,0.105-1.455c0-0.495-0.045-0.99-0.105-1.5
		l3.165-2.445c0.285-0.225,0.36-0.63,0.18-0.96l-3-5.19c-0.18-0.33-0.585-0.465-0.915-0.33l-3.735,1.5
		c-0.78-0.585-1.59-1.095-2.535-1.47l-0.555-3.975c-0.06-0.36-0.375-0.63-0.75-0.63h-6c-0.375,0-0.69,0.27-0.75,0.63l-0.555,3.975
		c-0.945,0.375-1.755,0.885-2.535,1.47l-3.735-1.5c-0.33-0.135-0.735,0-0.915,0.33l-3,5.19c-0.195,0.33-0.105,0.735,0.18,0.96
		l3.165,2.445c-0.06,0.51-0.105,1.005-0.105,1.5c0,0.495,0.045,0.975,0.105,1.455l-3.165,2.49c-0.285,0.225-0.375,0.63-0.18,0.96
		l3,5.19c0.18,0.33,0.585,0.45,0.915,0.33l3.735-1.515c0.78,0.6,1.59,1.11,2.535,1.485l0.555,3.975c0.06,0.36,0.375,0.63,0.75,0.63
		h6c0.375,0,0.69-0.27,0.75-0.63l0.555-3.975c0.945-0.39,1.755-0.885,2.535-1.485l3.735,1.515c0.33,0.12,0.735,0,0.915-0.33l3-5.19
		c0.18-0.33,0.105-0.735-0.18-0.96L456.148,122.256z M445.003,126.051c-2.899,0-5.25-2.351-5.25-5.25s2.351-5.25,5.25-5.25
		s5.25,2.351,5.25,5.25S447.903,126.051,445.003,126.051z"/>
	<path id="RoomService_1_" class="st8" d="M2246.148,79.455c0.06-0.48,0.105-0.96,0.105-1.455c0-0.495-0.045-0.99-0.105-1.5
		l3.165-2.445c0.285-0.225,0.36-0.63,0.18-0.96l-3-5.19c-0.18-0.33-0.585-0.465-0.915-0.33l-3.735,1.5
		c-0.78-0.585-1.59-1.095-2.535-1.47l-0.555-3.975c-0.06-0.36-0.375-0.63-0.75-0.63h-6c-0.375,0-0.69,0.27-0.75,0.63l-0.555,3.975
		c-0.945,0.375-1.755,0.885-2.535,1.47l-3.735-1.5c-0.33-0.135-0.735,0-0.915,0.33l-3,5.19c-0.195,0.33-0.105,0.735,0.18,0.96
		l3.165,2.445c-0.06,0.51-0.105,1.005-0.105,1.5c0,0.495,0.045,0.975,0.105,1.455l-3.165,2.49c-0.285,0.225-0.375,0.63-0.18,0.96
		l3,5.19c0.18,0.33,0.585,0.45,0.915,0.33l3.735-1.515c0.78,0.6,1.59,1.11,2.535,1.485l0.555,3.975c0.06,0.36,0.375,0.63,0.75,0.63
		h6c0.375,0,0.69-0.27,0.75-0.63l0.555-3.975c0.945-0.39,1.755-0.885,2.535-1.485l3.735,1.515c0.33,0.12,0.735,0,0.915-0.33l3-5.19
		c0.18-0.33,0.105-0.735-0.18-0.96L2246.148,79.455z M2235.003,83.25c-2.899,0-5.25-2.351-5.25-5.25s2.351-5.25,5.25-5.25
		c2.9,0,5.25,2.351,5.25,5.25S2237.903,83.25,2235.003,83.25z"/>
</g>
</svg>
