<?xml version="1.0" encoding="utf-8"?>

<svg version="1.1" xmlns="http://www.w3.org/2000/svg" xmlns:xlink="http://www.w3.org/1999/xlink" x="0px" y="0px" width="2420px"
	 height="336px" viewBox="0 0 2420 336" style="enable-background:new 0 0 2420 336;" xml:space="preserve">
<style type="text/css">
	.st0{fill-rule:evenodd;clip-rule:evenodd;fill:#FFFFFF;}
	.st1{fill-rule:evenodd;clip-rule:evenodd;fill:#A9AEBA;}
	.st2{fill-rule:evenodd;clip-rule:evenodd;fill:#E2E4E7;stroke:#D2D7DB;stroke-miterlimit:22.9256;}
	.st3{opacity:0.25;filter:url(#AI_Тень_1_справа);}
	.st4{fill-rule:evenodd;clip-rule:evenodd;fill:#E2E4E7;}
	.st5{fill:none;stroke:#D2D7DB;stroke-miterlimit:22.9256;}
	.st6{opacity:0.25;filter:url(#AI_Тень_1_слева);}
	.st7{opacity:0.25;filter:url(#AI_Тень_1_сверху);}
	.st8{fill:#FFFFFF;}
	.st9{font-family:'Roboto','Helvetica Neue',sans-serif;}
	.st10{font-size:20px;}
	.st11{fill-rule:evenodd;clip-rule:evenodd;fill:#CBCED3;}
	.st12{fill-rule:evenodd;clip-rule:evenodd;fill:#868D98;}
	.st13{fill-rule:evenodd;clip-rule:evenodd;fill:none;stroke:#BBDDFF;stroke-width:4;stroke-miterlimit:22.9256;}
</style>
<filter  id="AI_Тень_1_справа" filterUnits="objectBoundingBox">
	<feGaussianBlur  stdDeviation="2" in="SourceAlpha" result="blur"></feGaussianBlur>
	<feOffset  dy="4" dx="2" in="blur" result="offsetBlurredAlpha"></feOffset>
	<feMerge>
		<feMergeNode  in="offsetBlurredAlpha"></feMergeNode>
		<feMergeNode  in="SourceGraphic"></feMergeNode>
	</feMerge>
</filter>
<filter  id="AI_Тень_1_слева" filterUnits="objectBoundingBox">
	<feGaussianBlur  stdDeviation="2" in="SourceAlpha" result="blur"></feGaussianBlur>
	<feOffset  dy="4" dx="-2" in="blur" result="offsetBlurredAlpha"></feOffset>
	<feMerge>
		<feMergeNode  in="offsetBlurredAlpha"></feMergeNode>
		<feMergeNode  in="SourceGraphic"></feMergeNode>
	</feMerge>
</filter>
<filter  id="AI_Тень_1_сверху" filterUnits="objectBoundingBox">
	<feGaussianBlur  stdDeviation="2" in="SourceAlpha" result="blur"></feGaussianBlur>
	<feOffset  dy="-2" dx="4" in="blur" result="offsetBlurredAlpha"></feOffset>
	<feMerge>
		<feMergeNode  in="offsetBlurredAlpha"></feMergeNode>
		<feMergeNode  in="SourceGraphic"></feMergeNode>
	</feMerge>
</filter>
<g id="Fon">
	<path class="st0" d="M12.3,328c-1.419,0-2.466-0.729-3.095-1.342C8.507,325.979,8,324.737,8,323.705V12.297
		c0-1.617,0.646-2.421,1.133-2.885C10.364,8.236,11.258,8,12.3,8h2395.4c1.46,0,2.612,0.887,3.17,1.415
		c0.533,0.506,1.13,1.845,1.13,2.882v311.409c0,1.205-0.38,2.158-1.163,2.912c-1.26,1.215-2.252,1.383-3.136,1.383H12.3z"/>
</g>
<g id="Railway_carriage">
	<path class="st1" d="M2416.374,3.61c-2.258-2.14-5.298-3.61-8.674-3.61H12.3C8.779,0,5.997,1.347,3.61,3.625
		C1.223,5.903,0,8.922,0,12.297v311.408c0,3.152,1.36,6.482,3.626,8.687C5.892,334.596,8.924,336,12.3,336H2407.7
		c3.466,0,6.33-1.346,8.691-3.624c2.361-2.277,3.609-5.297,3.609-8.671V12.297C2420,9.265,2418.632,5.75,2416.374,3.61
		L2416.374,3.61z M2412,323.705L2412,323.705c0,1.205-0.38,2.158-1.163,2.912c-1.26,1.215-2.252,1.383-3.136,1.383H12.3
		c-1.419,0-2.466-0.729-3.095-1.342C8.507,325.978,8,324.737,8,323.705V12.297c0-1.617,0.646-2.42,1.133-2.885
		C10.364,8.237,11.258,8,12.3,8h2395.4c1.46,0,2.612,0.887,3.17,1.415c0.533,0.506,1.13,1.845,1.13,2.882V323.705z"/>
</g>
<g id="Compartment">
	<path class="st1" d="M2125,263.999L2125,263.999h-8v64h8V263.999z M506,190.999h-57.875v8H506v11.007h8V199v-8V8h-8l0,0V190.999z
		 M506,328h8v-63.993h-8l0,0V328z M685.004,210h8V8h-8l0,0V210z M864,210h8V8h-8l0,0V210z M1043,210h8V8h-8l0,0V210z M1222,210h8V8
		h-8l0,0V210z M1401,210h8V8h-8l0,0V210z M1580,210h8V8h-8l0,0V210z M1759,210h8V8h-8l0,0V210z M1938,210h8V8h-8l0,0V210z
		 M685.004,328h8v-64h-8l0,0V328z M864,328h8v-64h-8l0,0V328z M1043,328h8v-64h-8l0,0V328z M1222,328h8v-64h-8l0,0V328z M1401,328h8
		v-64h-8l0,0V328z M1580,328h8v-64h-8l0,0V328z M1759,328h8v-64h-8l0,0V328z M1938,328h8v-64h-8l0,0V328z M2125,8h-8v202h8v-23h13
		v-8h-13V8z M2320,97.5h8V8h-8V97.5z M186.458,214.843H168v-4.839h-8v4.839h-52h-8v113.156h8V222.844h77.227L332,269.121v58.879h8
		v-64.745L186.458,214.843z M2241,179V8h-23v171h-26v8h26h23h13v-8H2241z M2317.286,179H2308v8h12l92-70.556v-10.082L2317.286,179z
		 M215.255,138.872L168,123.973V8h-8v126h8v-1.639l44.85,14.141L215.255,138.872z M379.901,190.999l-2.326-0.734L355,182.995V8h-8
		v172.411l-74.522-23.497l-2.405,7.63l14.286,4.504l-0.061,0.194L347,189.014h0l31.67,9.986h15.455v-8H379.901z"/>
</g>
<g id="Seats">
	<path id="Seat1" class="st2" d="M514,82h41.452C563.453,82,570,90.659,570,101.242v81.516c0,10.583-6.547,19.242-14.548,19.242H514
		V82z"/>
	<g id="Shadow2" class="st3">
		<path class="st4" d="M514,13h41.452C563.453,13,570,21.659,570,32.242v81.515c0,10.583-6.547,19.242-14.548,19.242H514V13z"/>
		<path class="st5" d="M514,13h41.452C563.453,13,570,21.659,570,32.242v81.515c0,10.583-6.547,19.242-14.548,19.242H514V13z"/>
	</g>
	<path id="Seat2" class="st2" d="M514,13h41.452C563.453,13,570,21.659,570,32.242v81.515c0,10.583-6.547,19.242-14.548,19.242H514
		V13z"/>
	<path id="Seat3" class="st2" d="M685.004,82h-41.452c-8.002,0-14.549,8.659-14.549,19.243v81.516
		c0,10.583,6.547,19.242,14.549,19.242h41.452V82z"/>
	<g id="Shadow4" class="st6">
		<path class="st4" d="M685.004,13h-41.452c-8.002,0-14.549,8.659-14.549,19.243v81.515c0,10.583,6.547,19.242,14.549,19.242h41.452
			V13z"/>
		<path class="st5" d="M685.004,13h-41.452c-8.002,0-14.549,8.659-14.549,19.243v81.515c0,10.583,6.547,19.242,14.549,19.242h41.452
			V13z"/>
	</g>
	<path id="Seat4" class="st2" d="M685.004,13h-41.452c-8.002,0-14.549,8.659-14.549,19.243v81.515
		c0,10.583,6.547,19.242,14.549,19.242h41.452V13z"/>
	<path id="Seat5" class="st2" d="M693.003,82h41.451c8.002,0,14.549,8.659,14.549,19.243v81.516
		c0,10.583-6.547,19.242-14.549,19.242h-41.451V82z"/>
	<g id="Shadow6" class="st3">
		<path class="st4" d="M693.003,13h41.451c8.002,0,14.549,8.659,14.549,19.243v81.515c0,10.583-6.547,19.242-14.549,19.242h-41.451
			V13z"/>
		<path class="st5" d="M693.003,13h41.451c8.002,0,14.549,8.659,14.549,19.243v81.515c0,10.583-6.547,19.242-14.549,19.242h-41.451
			V13z"/>
	</g>
	<path id="Seat6" class="st2" d="M693.003,13h41.451c8.002,0,14.549,8.659,14.549,19.243v81.515
		c0,10.583-6.547,19.242-14.549,19.242h-41.451V13z"/>
	<path id="Seat7" class="st2" d="M864,82h-41.452C814.547,82,808,90.659,808,101.242v81.516c0,10.583,6.547,19.242,14.548,19.242
		H864V82z"/>
	<g id="Shadow8" class="st6">
		<path class="st4" d="M864,13h-41.452C814.547,13,808,21.659,808,32.242v81.515c0,10.583,6.547,19.242,14.548,19.242H864V13z"/>
		<path class="st5" d="M864,13h-41.452C814.547,13,808,21.659,808,32.242v81.515c0,10.583,6.547,19.242,14.548,19.242H864V13z"/>
	</g>
	<path id="Seat8" class="st2" d="M864,13h-41.452C814.547,13,808,21.659,808,32.242v81.515c0,10.583,6.547,19.242,14.548,19.242H864
		V13z"/>
	<path id="Seat9" class="st2" d="M872,82h41.452C921.453,82,928,90.659,928,101.242v81.516c0,10.583-6.547,19.242-14.549,19.242H872
		V82z"/>
	<g id="Shadow10" class="st3">
		<path class="st4" d="M872,13h41.452C921.453,13,928,21.659,928,32.242v81.515c0,10.583-6.547,19.242-14.549,19.242H872V13z"/>
		<path class="st5" d="M872,13h41.452C921.453,13,928,21.659,928,32.242v81.515c0,10.583-6.547,19.242-14.549,19.242H872V13z"/>
	</g>
	<path id="Seat10" class="st2" d="M872,13h41.452C921.453,13,928,21.659,928,32.242v81.515c0,10.583-6.547,19.242-14.549,19.242H872
		V13z"/>
	<path id="Seat11" class="st2" d="M1043,82h-41.452C993.546,82,987,90.659,987,101.242v81.516c0,10.583,6.547,19.242,14.549,19.242
		H1043V82z"/>
	<g id="Shadow12" class="st6">
		<path class="st4" d="M1043,13h-41.452C993.546,13,987,21.659,987,32.242v81.515c0,10.583,6.547,19.242,14.549,19.242H1043V13z"/>
		<path class="st5" d="M1043,13h-41.452C993.546,13,987,21.659,987,32.242v81.515c0,10.583,6.547,19.242,14.549,19.242H1043V13z"/>
	</g>
	<path id="Seat12" class="st2" d="M1043,13h-41.452C993.546,13,987,21.659,987,32.242v81.515c0,10.583,6.547,19.242,14.549,19.242
		H1043V13z"/>
	<path id="Seat13" class="st2" d="M1051.107,82h41.373c7.986,0,14.521,8.659,14.521,19.243v81.516
		c0,10.583-6.534,19.242-14.521,19.242h-41.373V82z"/>
	<g id="Shadow14" class="st3">
		<path class="st4" d="M1051,13h41.373c7.986,0,14.52,8.659,14.52,19.243v81.515c0,10.583-6.534,19.242-14.52,19.242H1051V13z"/>
		<path class="st5" d="M1051,13h41.373c7.986,0,14.52,8.659,14.52,19.243v81.515c0,10.583-6.534,19.242-14.52,19.242H1051V13z"/>
	</g>
	<path id="Seat14" class="st2" d="M1051,13h41.373c7.986,0,14.52,8.659,14.52,19.243v81.515c0,10.583-6.534,19.242-14.52,19.242
		H1051V13z"/>
	<path id="Seat15" class="st2" d="M1222,82h-41.452c-8.002,0-14.549,8.659-14.549,19.243v81.516
		c0,10.583,6.547,19.242,14.549,19.242H1222V82z"/>
	<g id="Shadow16" class="st6">
		<path class="st4" d="M1222,13h-41.452c-8.002,0-14.549,8.659-14.549,19.243v81.515c0,10.583,6.547,19.242,14.549,19.242H1222V13z"
			/>
		<path class="st5" d="M1222,13h-41.452c-8.002,0-14.549,8.659-14.549,19.243v81.515c0,10.583,6.547,19.242,14.549,19.242H1222V13z"
			/>
	</g>
	<path id="Seat16" class="st2" d="M1222,13h-41.452c-8.002,0-14.549,8.659-14.549,19.243v81.515
		c0,10.583,6.547,19.242,14.549,19.242H1222V13z"/>
	<path id="Seat17" class="st2" d="M1230,82h41.452c8.002,0,14.548,8.659,14.548,19.243v81.516c0,10.583-6.547,19.242-14.548,19.242
		H1230V82z"/>
	<g id="Shadow18" class="st3">
		<path class="st4" d="M1230,13h41.452c8.002,0,14.548,8.659,14.548,19.243v81.515c0,10.583-6.547,19.242-14.548,19.242H1230V13z"/>
		<path class="st5" d="M1230,13h41.452c8.002,0,14.548,8.659,14.548,19.243v81.515c0,10.583-6.547,19.242-14.548,19.242H1230V13z"/>
	</g>
	<path id="Seat18" class="st2" d="M1230,13h41.452c8.002,0,14.548,8.659,14.548,19.243v81.515c0,10.583-6.547,19.242-14.548,19.242
		H1230V13z"/>
	<path id="Seat19" class="st2" d="M1401,82h-41.452c-8.001,0-14.548,8.659-14.548,19.243v81.516
		c0,10.583,6.547,19.242,14.548,19.242H1401V82z"/>
	<g id="Shadow20" class="st6">
		<path class="st4" d="M1401,13h-41.452c-8.001,0-14.548,8.659-14.548,19.243v81.515c0,10.583,6.547,19.242,14.548,19.242H1401V13z"
			/>
		<path class="st5" d="M1401,13h-41.452c-8.001,0-14.548,8.659-14.548,19.243v81.515c0,10.583,6.547,19.242,14.548,19.242H1401V13z"
			/>
	</g>
	<path id="Seat20" class="st2" d="M1401,13h-41.452c-8.001,0-14.548,8.659-14.548,19.243v81.515
		c0,10.583,6.547,19.242,14.548,19.242H1401V13z"/>
	<path id="Seat21" class="st2" d="M1409,82h41.451c8.002,0,14.549,8.659,14.549,19.243v81.516c0,10.583-6.547,19.242-14.549,19.242
		H1409V82z"/>
	<g id="Shadow22" class="st3">
		<path class="st4" d="M1409,13h41.451c8.002,0,14.549,8.659,14.549,19.243v81.515c0,10.583-6.547,19.242-14.549,19.242H1409V13z"/>
		<path class="st5" d="M1409,13h41.451c8.002,0,14.549,8.659,14.549,19.243v81.515c0,10.583-6.547,19.242-14.549,19.242H1409V13z"/>
	</g>
	<path id="Seat22" class="st2" d="M1409,13h41.451c8.002,0,14.549,8.659,14.549,19.243v81.515c0,10.583-6.547,19.242-14.549,19.242
		H1409V13z"/>
	<path id="Seat23" class="st2" d="M1580,82h-41.452c-8.002,0-14.549,8.659-14.549,19.243v81.516
		c0,10.583,6.547,19.242,14.549,19.242H1580V82z"/>
	<g id="Shadow24" class="st6">
		<path class="st4" d="M1580,13h-41.452c-8.002,0-14.549,8.659-14.549,19.243v81.515c0,10.583,6.547,19.242,14.549,19.242H1580V13z"
			/>
		<path class="st5" d="M1580,13h-41.452c-8.002,0-14.549,8.659-14.549,19.243v81.515c0,10.583,6.547,19.242,14.549,19.242H1580V13z"
			/>
	</g>
	<path id="Seat24" class="st2" d="M1580,13h-41.452c-8.002,0-14.549,8.659-14.549,19.243v81.515
		c0,10.583,6.547,19.242,14.549,19.242H1580V13z"/>
	<path id="Seat25" class="st2" d="M1588,82h41.452c8.002,0,14.549,8.659,14.549,19.243v81.516c0,10.583-6.547,19.242-14.549,19.242
		H1588V82z"/>
	<g id="Shadow26" class="st3">
		<path class="st4" d="M1588,13h41.452c8.002,0,14.549,8.659,14.549,19.243v81.515c0,10.583-6.547,19.242-14.549,19.242H1588V13z"/>
		<path class="st5" d="M1588,13h41.452c8.002,0,14.549,8.659,14.549,19.243v81.515c0,10.583-6.547,19.242-14.549,19.242H1588V13z"/>
	</g>
	<path id="Seat26" class="st2" d="M1588,13h41.452c8.002,0,14.549,8.659,14.549,19.243v81.515c0,10.583-6.547,19.242-14.549,19.242
		H1588V13z"/>
	<path id="Seat27" class="st2" d="M1759,82h-41.452c-8.002,0-14.548,8.659-14.548,19.243v81.516
		c0,10.583,6.547,19.242,14.548,19.242H1759V82z"/>
	<g id="Shadow28" class="st6">
		<path class="st4" d="M1759,13h-41.452c-8.002,0-14.548,8.659-14.548,19.243v81.515c0,10.583,6.547,19.242,14.548,19.242H1759V13z"
			/>
		<path class="st5" d="M1759,13h-41.452c-8.002,0-14.548,8.659-14.548,19.243v81.515c0,10.583,6.547,19.242,14.548,19.242H1759V13z"
			/>
	</g>
	<path id="Seat28" class="st2" d="M1759,13h-41.452c-8.002,0-14.548,8.659-14.548,19.243v81.515
		c0,10.583,6.547,19.242,14.548,19.242H1759V13z"/>
	<path id="Seat29" class="st2" d="M1767,82h41.451c8.002,0,14.549,8.659,14.549,19.243v81.516c0,10.583-6.547,19.242-14.549,19.242
		H1767V82z"/>
	<g id="Shadow30" class="st3">
		<path class="st4" d="M1767,13h41.451c8.002,0,14.549,8.659,14.549,19.243v81.515c0,10.583-6.547,19.242-14.549,19.242H1767V13z"/>
		<path class="st5" d="M1767,13h41.451c8.002,0,14.549,8.659,14.549,19.243v81.515c0,10.583-6.547,19.242-14.549,19.242H1767V13z"/>
	</g>
	<path id="Seat30" class="st2" d="M1767,13h41.451c8.002,0,14.549,8.659,14.549,19.243v81.515c0,10.583-6.547,19.242-14.549,19.242
		H1767V13z"/>
	<path id="Seat31" class="st2" d="M1938,82h-41.452c-8.001,0-14.548,8.659-14.548,19.243v81.516
		c0,10.583,6.547,19.242,14.548,19.242H1938V82z"/>
	<g id="Shadow32" class="st6">
		<path class="st4" d="M1938,13h-41.452c-8.001,0-14.548,8.659-14.548,19.243v81.515c0,10.583,6.547,19.242,14.548,19.242H1938V13z"
			/>
		<path class="st5" d="M1938,13h-41.452c-8.001,0-14.548,8.659-14.548,19.243v81.515c0,10.583,6.547,19.242,14.548,19.242H1938V13z"
			/>
	</g>
	<path id="Seat32" class="st2" d="M1938,13h-41.452c-8.001,0-14.548,8.659-14.548,19.243v81.515
		c0,10.583,6.547,19.242,14.548,19.242H1938V13z"/>
	<path id="Seat33" class="st2" d="M1946,82h41.451c8.002,0,14.549,8.659,14.549,19.243v81.516c0,10.583-6.547,19.242-14.549,19.242
		H1946V82z"/>
	<g id="Shadow34" class="st3">
		<path class="st4" d="M1946,13h41.451c8.002,0,14.549,8.659,14.549,19.243v81.515c0,10.583-6.547,19.242-14.549,19.242H1946V13z"/>
		<path class="st5" d="M1946,13h41.451c8.002,0,14.549,8.659,14.549,19.243v81.515c0,10.583-6.547,19.242-14.549,19.242H1946V13z"/>
	</g>
	<path id="Seat34" class="st2" d="M1946,13h41.451c8.002,0,14.549,8.659,14.549,19.243v81.515c0,10.583-6.547,19.242-14.549,19.242
		H1946V13z"/>
	<path id="Seat35" class="st2" d="M2117,82h-41.451c-8.002,0-14.549,8.659-14.549,19.243v81.516
		c0,10.583,6.547,19.242,14.549,19.242H2117V82z"/>
	<g id="Shadow36" class="st6">
		<path class="st4" d="M2117,13h-41.451c-8.002,0-14.549,8.659-14.549,19.243v81.515c0,10.583,6.547,19.242,14.549,19.242H2117V13z"
			/>
		<path class="st5" d="M2117,13h-41.451c-8.002,0-14.549,8.659-14.549,19.243v81.515c0,10.583,6.547,19.242,14.549,19.242H2117V13z"
			/>
	</g>
	<path id="Seat36" class="st2" d="M2117,13h-41.451c-8.002,0-14.549,8.659-14.549,19.243v81.515
		c0,10.583,6.547,19.242,14.549,19.242H2117V13z"/>
	<path id="Seat37" class="st2" d="M2005,323v-41.452c0-8.002,8.082-14.548,17.959-14.548h76.081c9.878,0,17.96,6.547,17.96,14.548
		V323H2005z"/>
	<g id="Shadow38" class="st7">
		<path class="st4" d="M1946,323v-41.452c0-8.002,6.76-14.548,15.021-14.548h81.958c8.262,0,15.021,6.547,15.021,14.548V323H1946z"
			/>
		<path class="st5" d="M1946,323v-41.452c0-8.002,6.76-14.548,15.021-14.548h81.958c8.262,0,15.021,6.547,15.021,14.548V323H1946z"
			/>
	</g>
	<path id="Seat38" class="st2" d="M1946,323v-41.452c0-8.002,6.76-14.548,15.021-14.548h81.958c8.262,0,15.021,6.547,15.021,14.548
		V323H1946z"/>
	<path id="Seat39" class="st2" d="M1826,323v-41.452c0-8.002,8.082-14.548,17.96-14.548h76.081c9.878,0,17.96,6.547,17.96,14.548
		V323H1826z"/>
	<g id="Shadow40" class="st7">
		<path class="st4" d="M1767,323v-41.452c0-8.002,8.082-14.548,17.96-14.548h76.081c9.878,0,17.959,6.547,17.959,14.548V323H1767z"
			/>
		<path class="st5" d="M1767,323v-41.452c0-8.002,8.082-14.548,17.96-14.548h76.081c9.878,0,17.959,6.547,17.959,14.548V323H1767z"
			/>
	</g>
	<path id="Seat40" class="st2" d="M1767,323v-41.452c0-8.002,8.082-14.548,17.96-14.548h76.081c9.878,0,17.959,6.547,17.959,14.548
		V323H1767z"/>
	<path id="Seat41" class="st2" d="M1647,323v-41.452c0-8.002,8.082-14.548,17.96-14.548h76.081c9.878,0,17.959,6.547,17.959,14.548
		V323H1647z"/>
	<g id="Shadow42" class="st7">
		<path class="st4" d="M1588,323v-41.452c0-8.002,8.082-14.548,17.96-14.548h76.081c9.878,0,17.959,6.547,17.959,14.548V323H1588z"
			/>
		<path class="st5" d="M1588,323v-41.452c0-8.002,8.082-14.548,17.96-14.548h76.081c9.878,0,17.959,6.547,17.959,14.548V323H1588z"
			/>
	</g>
	<path id="Seat42" class="st2" d="M1588,323v-41.452c0-8.002,8.082-14.548,17.96-14.548h76.081c9.878,0,17.959,6.547,17.959,14.548
		V323H1588z"/>
	<path id="Seat43" class="st2" d="M1468,323v-41.452c0-8.002,8.082-14.548,17.96-14.548h76.081c9.878,0,17.959,6.547,17.959,14.548
		V323H1468z"/>
	<g id="Shadow44" class="st7">
		<path class="st4" d="M1409,323v-41.452c0-8.002,8.082-14.548,17.96-14.548h76.081c9.878,0,17.959,6.547,17.959,14.548V323H1409z"
			/>
		<path class="st5" d="M1409,323v-41.452c0-8.002,8.082-14.548,17.96-14.548h76.081c9.878,0,17.959,6.547,17.959,14.548V323H1409z"
			/>
	</g>
	<path id="Seat44" class="st2" d="M1409,323v-41.452c0-8.002,8.082-14.548,17.96-14.548h76.081c9.878,0,17.959,6.547,17.959,14.548
		V323H1409z"/>
	<path id="Seat45" class="st2" d="M1289,323v-41.452c0-8.002,8.082-14.548,17.96-14.548h76.081c9.878,0,17.959,6.547,17.959,14.548
		V323H1289z"/>
	<g id="Shadow46" class="st7">
		<path class="st4" d="M1230,323v-41.452c0-8.002,8.082-14.548,17.959-14.548h76.081c9.878,0,17.959,6.547,17.959,14.548V323H1230z"
			/>
		<path class="st5" d="M1230,323v-41.452c0-8.002,8.082-14.548,17.959-14.548h76.081c9.878,0,17.959,6.547,17.959,14.548V323H1230z"
			/>
	</g>
	<path id="Seat46" class="st2" d="M1230,323v-41.452c0-8.002,8.082-14.548,17.959-14.548h76.081c9.878,0,17.959,6.547,17.959,14.548
		V323H1230z"/>
	<path id="Seat47" class="st2" d="M1110,323v-41.452c0-8.002,8.082-14.548,17.96-14.548h76.081c9.878,0,17.96,6.547,17.96,14.548
		V323H1110z"/>
	<g id="Shadow48" class="st7">
		<path class="st4" d="M1051,323v-41.452c0-8.002,8.082-14.548,17.96-14.548h76.081c9.878,0,17.959,6.547,17.959,14.548V323H1051z"
			/>
		<path class="st5" d="M1051,323v-41.452c0-8.002,8.082-14.548,17.96-14.548h76.081c9.878,0,17.959,6.547,17.959,14.548V323H1051z"
			/>
	</g>
	<path id="Seat48" class="st2" d="M1051,323v-41.452c0-8.002,8.082-14.548,17.96-14.548h76.081c9.878,0,17.959,6.547,17.959,14.548
		V323H1051z"/>
	<path id="Seat49" class="st2" d="M931,323v-41.452c0-8.002,8.082-14.548,17.96-14.548h76.081c9.878,0,17.959,6.547,17.959,14.548
		V323H931z"/>
	<g id="Shadow50" class="st7">
		<path class="st4" d="M872,323v-41.452c0-8.002,8.082-14.548,17.96-14.548h76.081c9.878,0,17.96,6.547,17.96,14.548V323H872z"/>
		<path class="st5" d="M872,323v-41.452c0-8.002,8.082-14.548,17.96-14.548h76.081c9.878,0,17.96,6.547,17.96,14.548V323H872z"/>
	</g>
	<path id="Seat50" class="st2" d="M872,323v-41.452c0-8.002,8.082-14.548,17.96-14.548h76.081c9.878,0,17.96,6.547,17.96,14.548V323
		H872z"/>
	<path id="Seat51" class="st2" d="M752,323v-41.452c0-8.002,8.082-14.548,17.96-14.548h76.081c9.878,0,17.959,6.547,17.959,14.548
		V323H752z"/>
	<g id="Shadow52" class="st7">
		<path class="st4" d="M693.003,323v-41.452c0-8.002,8.082-14.548,17.96-14.548h76.081c9.878,0,17.959,6.547,17.959,14.548V323
			H693.003z"/>
		<path class="st5" d="M693.003,323v-41.452c0-8.002,8.082-14.548,17.96-14.548h76.081c9.878,0,17.959,6.547,17.959,14.548V323
			H693.003z"/>
	</g>
	<path id="Seat52" class="st2" d="M693.003,323v-41.452c0-8.002,8.082-14.548,17.96-14.548h76.081
		c9.878,0,17.959,6.547,17.959,14.548V323H693.003z"/>
	<path id="Seat53" class="st2" d="M573.004,323v-41.452c0-8.002,8.082-14.548,17.96-14.548h76.081c9.878,0,17.96,6.547,17.96,14.548
		V323H573.004z"/>
	<g id="Shadow54" class="st7">
		<path class="st4" d="M514,323v-41.452c0-8.002,8.082-14.548,17.96-14.548h76.081c9.878,0,17.959,6.547,17.959,14.548V323H514z"/>
		<path class="st5" d="M514,323v-41.452c0-8.002,8.082-14.548,17.96-14.548h76.081c9.878,0,17.959,6.547,17.959,14.548V323H514z"/>
	</g>
	<path id="Seat54" class="st2" d="M514,323v-41.452c0-8.002,8.082-14.548,17.96-14.548h76.081c9.878,0,17.959,6.547,17.959,14.548
		V323H514z"/>
</g>
<g id="Numbers" pointer-events="none">
	<text transform="matrix(1.0003 0 0 1 538.1089 171.5094)" class="st8 st9 st10">1</text>
	<text transform="matrix(1.0003 0 0 1 536.7969 80.5802)" class="st8 st9 st10">2</text>
	<text transform="matrix(1.0003 0 0 1 652.0782 171.4801)" class="st8 st9 st10">3</text>
	<text transform="matrix(1.0003 0 0 1 651.8536 80.4801)" class="st8 st9 st10">4</text>
	<text transform="matrix(1.0003 0 0 1 715.7203 80.38)" class="st8 st9 st10">6</text>
	<text transform="matrix(1.0003 0 0 1 715.5303 171.3795)" class="st8 st9 st10">5</text>
	<text transform="matrix(1.0003 0 0 1 830.942 171.4801)" class="st8 st9 st10">7</text>
	<text transform="matrix(1.0003 0 0 1 830.8839 80.4801)" class="st8 st9 st10">8</text>
	<text transform="matrix(1.0003 0 0 1 895.0489 171.5797)" class="st8 st9 st10">9</text>
	<text transform="matrix(1.0003 0 0 1 889.003 80.4801)" class="st8 st9 st10">10</text>
	<text transform="matrix(1.0003 0 0 1 1005.4913 171.5094)" class="st8 st9 st10">11</text>
	<text transform="matrix(1.0003 0 0 1 1003.8028 80.5802)" class="st8 st9 st10">12</text>
	<text transform="matrix(1.0003 0 0 1 1068.0327 171.4801)" class="st8 st9 st10">13</text>
	<text transform="matrix(1.0003 0 0 1 1067.6079 80.5103)" class="st8 st9 st10">14</text>
	<text transform="matrix(1.0003 0 0 1 1182.8311 171.4098)" class="st8 st9 st10">15</text>
	<text transform="matrix(1.0003 0 0 1 1182.9141 80.4102)" class="st8 st9 st10">16</text>
	<text transform="matrix(1.0003 0 0 1 1246.8721 171.5094)" class="st8 st9 st10">17</text>
	<text transform="matrix(1.0003 0 0 1 1246.9834 80.4801)" class="st8 st9 st10">18</text>
	<text transform="matrix(1.0003 0 0 1 1362.0898 171.5797)" class="st8 st9 st10">19</text>
	<text transform="matrix(1.0003 0 0 1 1362.3799 80.4801)" class="st8 st9 st10">20</text>
	<text transform="matrix(1.0003 0 0 1 1427.8691 171.5797)" class="st8 st9 st10">21</text>
	<text transform="matrix(1.0003 0 0 1 1426.1797 80.5802)" class="st8 st9 st10">22</text>
	<text transform="matrix(1.0003 0 0 1 1541.4629 171.4801)" class="st8 st9 st10">23</text>
	<text transform="matrix(1.0003 0 0 1 1541.0381 80.5802)" class="st8 st9 st10">24</text>
	<text transform="matrix(1.0003 0 0 1 1605.208 171.4801)" class="st8 st9 st10">25</text>
	<text transform="matrix(1.0003 0 0 1 1605.292 80.4801)" class="st8 st9 st10">26</text>
	<text transform="matrix(1.0003 0 0 1 1720.248 171.5797)" class="st8 st9 st10">27</text>
	<text transform="matrix(1.0003 0 0 1 1720.3594 80.4801)" class="st8 st9 st10">28</text>
	<text transform="matrix(1.0003 0 0 1 1784.4668 171.5797)" class="st8 st9 st10">29</text>
	<text transform="matrix(1.0003 0 0 1 1784.374 80.4801)" class="st8 st9 st10">30</text>
	<text transform="matrix(1.0003 0 0 1 1900.8633 171.4801)" class="st8 st9 st10">31</text>
	<text transform="matrix(1.0003 0 0 1 1899.1748 80.4801)" class="st8 st9 st10">32</text>
	<text transform="matrix(1.0003 0 0 1 1963.458 171.4801)" class="st8 st9 st10">33</text>
	<text transform="matrix(1.0003 0 0 1 1963.0332 80.4801)" class="st8 st9 st10">34</text>
	<text transform="matrix(1.0003 0 0 1 2078.2031 171.4801)" class="st8 st9 st10">35</text>
	<text transform="matrix(1.0003 0 0 1 2078.2861 80.4801)" class="st8 st9 st10">36</text>
	<text transform="matrix(1 0 0 1 2076.7461 303.4801)" class="st8 st9 st10">37</text>
	<text transform="matrix(1 0 0 1 1991.3584 303.4801)" class="st8 st9 st10">38</text>
	<text transform="matrix(1 0 0 1 1897.9648 303.4801)" class="st8 st9 st10">39</text>
	<text transform="matrix(1.0003 0 0 1 1812.5742 303.4801)" class="st8 st9 st10">40</text>
	<text transform="matrix(1.0003 0 0 1 1720.5635 303.5094)" class="st8 st9 st10">41</text>
	<text transform="matrix(1.0003 0 0 1 1633.374 303.5797)" class="st8 st9 st10">42</text>
	<text transform="matrix(1.0003 0 0 1 1540.1582 303.4801)" class="st8 st9 st10">43</text>
	<text transform="matrix(1.0003 0 0 1 1454.2334 303.4801)" class="st8 st9 st10">44</text>
	<text transform="matrix(1 0 0 1 1360.9063 303.3795)" class="st8 st9 st10">45</text>
	<text transform="matrix(1 0 0 1 1275.4893 303.3795)" class="st8 st9 st10">46</text>
	<text transform="matrix(1.0003 0 0 1 1181.9429 303.4801)" class="st8 st9 st10">47</text>
	<text transform="matrix(1.0003 0 0 1 1096.5542 303.4801)" class="st8 st9 st10">48</text>
	<text transform="matrix(1.0003 0 0 1 1003.1612 303.5797)" class="st8 st9 st10">49</text>
	<text transform="matrix(1.0003 0 0 1 917.0811 303.4801)" class="st8 st9 st10">50</text>
	<text transform="matrix(1.0003 0 0 1 825.0733 303.4098)" class="st8 st9 st10">51</text>
	<text transform="matrix(1.0003 0 0 1 737.8848 303.4801)" class="st8 st9 st10">52</text>
	<text transform="matrix(1.0003 0 0 1 644.6646 303.4801)" class="st8 st9 st10">53</text>
	<text transform="matrix(1.0003 0 0 1 558.7393 303.3805)" class="st8 st9 st10">54</text>
</g>
<g id="Tables">
	<path class="st11" d="M578.502,13h42v73.78c0,2.138-1.256,3.888-2.792,3.888h-36.416c-1.536,0-2.792-1.75-2.792-3.888V13z"/>
	<path class="st11" d="M757.505,13h42v73.78c0,2.138-1.256,3.888-2.792,3.888h-36.416c-1.536,0-2.792-1.75-2.792-3.888V13z"/>
	<path class="st11" d="M936.509,13h42v73.78c0,2.138-1.256,3.888-2.792,3.888h-36.416c-1.536,0-2.792-1.75-2.792-3.888V13z"/>
	<path class="st11" d="M1115.512,13h42v73.78c0,2.138-1.256,3.888-2.792,3.888h-36.416c-1.536,0-2.792-1.75-2.792-3.888V13z"/>
	<path class="st11" d="M1294.516,13h42v73.78c0,2.138-1.256,3.888-2.792,3.888h-36.416c-1.536,0-2.792-1.75-2.792-3.888V13z"/>
	<path class="st11" d="M1473.52,13h42v73.78c0,2.138-1.256,3.888-2.792,3.888h-36.416c-1.536,0-2.792-1.75-2.792-3.888V13z"/>
	<path class="st11" d="M1652.523,13h42v73.78c0,2.138-1.256,3.888-2.792,3.888h-36.416c-1.536,0-2.792-1.75-2.792-3.888V13z"/>
	<path class="st11" d="M1831.527,13h42v73.78c0,2.138-1.256,3.888-2.792,3.888h-36.416c-1.536,0-2.792-1.75-2.792-3.888V13z"/>
	<path class="st11" d="M2010.531,13h42v73.78c0,2.138-1.256,3.888-2.792,3.888h-36.416c-1.536,0-2.792-1.75-2.792-3.888V13z"/>
	<rect x="108" y="8" class="st11" width="52" height="108.444"/>
	<path class="st11" d="M2125.034,328H2407.5c2.479,0,4.5-2.021,4.5-4.5v-44.027l-178.113,0.838l-48.021,27.725h-60.832V328z"/>
</g>
<g id="Cup_for_table">
	<path class="st12" d="M609.51,59.759c0,1.148-0.928,2.075-2.078,2.075h-15.86c-1.15,0-2.078-0.927-2.078-2.075H609.51
		L609.51,59.759z M605.186,54.929L605.186,54.929c0,0,0.213-0.002,0.366-0.002c1.193,0,2.16-0.965,2.16-2.16
		c0-1.192-0.967-2.157-2.16-2.157h-0.366V54.929L605.186,54.929z M595.411,58.886L595.411,58.886c-0.979,0-1.771-0.795-1.771-1.774
		V49.19h11.904c1.975,0,3.582,1.604,3.582,3.577c0,1.976-1.599,3.575-3.575,3.575h-0.366c0,0.209-0.003,0.653-0.003,0.77
		c0,0.979-0.794,1.774-1.775,1.774H595.411L595.411,58.886z M596.816,46.241L596.816,46.241c0,0.459-0.186,0.825-0.557,1.103
		c-0.102,0.078-0.154,0.186-0.154,0.318c0,0.262,0.131,0.391,0.391,0.391c0.087,0,0.166-0.027,0.238-0.082
		c0.576-0.434,0.865-1.011,0.865-1.73c0-0.528-0.212-1.023-0.634-1.48c-0.422-0.458-0.633-0.873-0.633-1.244
		c0-0.396,0.146-0.73,0.438-1.008c0.079-0.078,0.118-0.174,0.118-0.284c0-0.261-0.131-0.391-0.391-0.391
		c-0.102,0-0.194,0.035-0.273,0.106c-0.45,0.426-0.674,0.952-0.674,1.576c0,0.561,0.211,1.072,0.633,1.533
		C596.604,45.513,596.816,45.91,596.816,46.241L596.816,46.241z M599.612,46.241L599.612,46.241c0,0.459-0.185,0.825-0.557,1.103
		c-0.101,0.078-0.154,0.186-0.154,0.318c0,0.262,0.132,0.391,0.391,0.391c0.088,0,0.166-0.027,0.238-0.082
		c0.577-0.434,0.864-1.011,0.864-1.73c0-0.528-0.211-1.023-0.633-1.48c-0.423-0.458-0.634-0.873-0.634-1.244
		c0-0.396,0.146-0.73,0.437-1.008c0.079-0.078,0.118-0.174,0.118-0.284c0-0.261-0.13-0.391-0.391-0.391
		c-0.102,0-0.193,0.035-0.271,0.106c-0.451,0.426-0.676,0.952-0.676,1.576c0,0.561,0.211,1.072,0.633,1.533
		C599.401,45.513,599.612,45.91,599.612,46.241L599.612,46.241z M602.407,46.241L602.407,46.241c0,0.459-0.185,0.825-0.557,1.103
		c-0.102,0.078-0.154,0.186-0.154,0.318c0,0.262,0.131,0.391,0.391,0.391c0.087,0,0.167-0.027,0.238-0.082
		c0.576-0.434,0.864-1.011,0.864-1.73c0-0.528-0.211-1.023-0.634-1.48c-0.422-0.458-0.633-0.873-0.633-1.244
		c0-0.396,0.146-0.73,0.438-1.008c0.079-0.078,0.119-0.174,0.119-0.284c0-0.261-0.13-0.391-0.391-0.391
		c-0.103,0-0.193,0.035-0.272,0.106c-0.45,0.426-0.675,0.952-0.675,1.576c0,0.561,0.211,1.072,0.633,1.533
		C602.196,45.513,602.407,45.91,602.407,46.241z"/>
	<path class="st12" d="M788.513,59.759c0,1.148-0.928,2.075-2.078,2.075h-15.86c-1.15,0-2.078-0.927-2.078-2.075H788.513
		L788.513,59.759z M784.189,54.929L784.189,54.929c0,0,0.213-0.002,0.366-0.002c1.193,0,2.16-0.965,2.16-2.16
		c0-1.192-0.967-2.157-2.16-2.157h-0.366V54.929L784.189,54.929z M774.415,58.886L774.415,58.886c-0.979,0-1.771-0.795-1.771-1.774
		V49.19h11.904c1.975,0,3.582,1.604,3.582,3.577c0,1.976-1.599,3.575-3.575,3.575h-0.366c0,0.209-0.003,0.653-0.003,0.77
		c0,0.979-0.795,1.774-1.775,1.774H774.415L774.415,58.886z M775.819,46.241L775.819,46.241c0,0.459-0.186,0.825-0.557,1.103
		c-0.102,0.078-0.154,0.186-0.154,0.318c0,0.262,0.131,0.391,0.391,0.391c0.087,0,0.166-0.027,0.237-0.082
		c0.576-0.434,0.865-1.011,0.865-1.73c0-0.528-0.212-1.023-0.634-1.48c-0.422-0.458-0.633-0.873-0.633-1.244
		c0-0.396,0.146-0.73,0.438-1.008c0.079-0.078,0.119-0.174,0.119-0.284c0-0.261-0.131-0.391-0.391-0.391
		c-0.102,0-0.194,0.035-0.273,0.106c-0.45,0.426-0.674,0.952-0.674,1.576c0,0.561,0.211,1.072,0.633,1.533
		C775.608,45.513,775.819,45.91,775.819,46.241L775.819,46.241z M778.615,46.241L778.615,46.241c0,0.459-0.185,0.825-0.557,1.103
		c-0.101,0.078-0.154,0.186-0.154,0.318c0,0.262,0.132,0.391,0.391,0.391c0.088,0,0.166-0.027,0.237-0.082
		c0.577-0.434,0.864-1.011,0.864-1.73c0-0.528-0.211-1.023-0.633-1.48c-0.423-0.458-0.634-0.873-0.634-1.244
		c0-0.396,0.146-0.73,0.437-1.008c0.079-0.078,0.118-0.174,0.118-0.284c0-0.261-0.13-0.391-0.391-0.391
		c-0.102,0-0.193,0.035-0.271,0.106c-0.45,0.426-0.676,0.952-0.676,1.576c0,0.561,0.211,1.072,0.633,1.533
		C778.404,45.513,778.615,45.91,778.615,46.241L778.615,46.241z M781.411,46.241L781.411,46.241c0,0.459-0.185,0.825-0.557,1.103
		c-0.102,0.078-0.154,0.186-0.154,0.318c0,0.262,0.131,0.391,0.391,0.391c0.087,0,0.167-0.027,0.237-0.082
		c0.577-0.434,0.864-1.011,0.864-1.73c0-0.528-0.211-1.023-0.634-1.48c-0.422-0.458-0.633-0.873-0.633-1.244
		c0-0.396,0.147-0.73,0.438-1.008c0.079-0.078,0.118-0.174,0.118-0.284c0-0.261-0.13-0.391-0.391-0.391
		c-0.103,0-0.193,0.035-0.272,0.106c-0.45,0.426-0.675,0.952-0.675,1.576c0,0.561,0.211,1.072,0.633,1.533
		C781.2,45.513,781.411,45.91,781.411,46.241z"/>
	<path class="st12" d="M967.517,59.759c0,1.148-0.928,2.075-2.078,2.075h-15.86c-1.15,0-2.078-0.927-2.078-2.075H967.517
		L967.517,59.759z M963.193,54.929L963.193,54.929c0,0,0.213-0.002,0.366-0.002c1.193,0,2.16-0.965,2.16-2.16
		c0-1.192-0.967-2.157-2.16-2.157h-0.366V54.929L963.193,54.929z M953.418,58.886L953.418,58.886c-0.979,0-1.771-0.795-1.771-1.774
		V49.19h11.904c1.975,0,3.582,1.604,3.582,3.577c0,1.976-1.599,3.575-3.575,3.575h-0.366c0,0.209-0.003,0.653-0.003,0.77
		c0,0.979-0.794,1.774-1.775,1.774H953.418L953.418,58.886z M954.823,46.241L954.823,46.241c0,0.459-0.186,0.825-0.557,1.103
		c-0.102,0.078-0.154,0.186-0.154,0.318c0,0.262,0.131,0.391,0.391,0.391c0.087,0,0.166-0.027,0.237-0.082
		c0.576-0.434,0.865-1.011,0.865-1.73c0-0.528-0.212-1.023-0.634-1.48c-0.422-0.458-0.633-0.873-0.633-1.244
		c0-0.396,0.146-0.73,0.438-1.008c0.079-0.078,0.119-0.174,0.119-0.284c0-0.261-0.131-0.391-0.391-0.391
		c-0.102,0-0.194,0.035-0.273,0.106c-0.45,0.426-0.674,0.952-0.674,1.576c0,0.561,0.211,1.072,0.633,1.533
		C954.611,45.513,954.823,45.91,954.823,46.241L954.823,46.241z M957.618,46.241L957.618,46.241c0,0.459-0.185,0.825-0.557,1.103
		c-0.101,0.078-0.154,0.186-0.154,0.318c0,0.262,0.131,0.391,0.391,0.391c0.088,0,0.166-0.027,0.238-0.082
		c0.577-0.434,0.864-1.011,0.864-1.73c0-0.528-0.211-1.023-0.633-1.48c-0.423-0.458-0.634-0.873-0.634-1.244
		c0-0.396,0.146-0.73,0.437-1.008c0.079-0.078,0.119-0.174,0.119-0.284c0-0.261-0.13-0.391-0.391-0.391
		c-0.102,0-0.193,0.035-0.271,0.106c-0.45,0.426-0.676,0.952-0.676,1.576c0,0.561,0.211,1.072,0.633,1.533
		C957.408,45.513,957.618,45.91,957.618,46.241L957.618,46.241z M960.414,46.241L960.414,46.241c0,0.459-0.185,0.825-0.557,1.103
		c-0.102,0.078-0.154,0.186-0.154,0.318c0,0.262,0.131,0.391,0.391,0.391c0.087,0,0.167-0.027,0.237-0.082
		c0.577-0.434,0.864-1.011,0.864-1.73c0-0.528-0.211-1.023-0.634-1.48c-0.422-0.458-0.633-0.873-0.633-1.244
		c0-0.396,0.147-0.73,0.438-1.008c0.079-0.078,0.118-0.174,0.118-0.284c0-0.261-0.13-0.391-0.391-0.391
		c-0.103,0-0.193,0.035-0.272,0.106c-0.45,0.426-0.675,0.952-0.675,1.576c0,0.561,0.212,1.072,0.633,1.533
		C960.203,45.513,960.414,45.91,960.414,46.241z"/>
	<path class="st12" d="M1146.521,59.759c0,1.148-0.928,2.075-2.078,2.075h-15.86c-1.15,0-2.078-0.927-2.078-2.075H1146.521
		L1146.521,59.759z M1142.196,54.929L1142.196,54.929c0,0,0.213-0.002,0.366-0.002c1.193,0,2.16-0.965,2.16-2.16
		c0-1.192-0.967-2.157-2.16-2.157h-0.366V54.929L1142.196,54.929z M1132.422,58.886L1132.422,58.886
		c-0.979,0-1.771-0.795-1.771-1.774V49.19h11.904c1.975,0,3.582,1.604,3.582,3.577c0,1.976-1.599,3.575-3.575,3.575h-0.366
		c0,0.209-0.003,0.653-0.003,0.77c0,0.979-0.795,1.774-1.775,1.774H1132.422L1132.422,58.886z M1133.826,46.241L1133.826,46.241
		c0,0.459-0.186,0.825-0.557,1.103c-0.102,0.078-0.154,0.186-0.154,0.318c0,0.262,0.131,0.391,0.391,0.391
		c0.087,0,0.166-0.027,0.238-0.082c0.576-0.434,0.865-1.011,0.865-1.73c0-0.528-0.212-1.023-0.634-1.48
		c-0.422-0.458-0.633-0.873-0.633-1.244c0-0.396,0.146-0.73,0.438-1.008c0.079-0.078,0.119-0.174,0.119-0.284
		c0-0.261-0.131-0.391-0.391-0.391c-0.102,0-0.194,0.035-0.273,0.106c-0.45,0.426-0.674,0.952-0.674,1.576
		c0,0.561,0.211,1.072,0.633,1.533C1133.615,45.513,1133.826,45.91,1133.826,46.241L1133.826,46.241z M1136.622,46.241
		L1136.622,46.241c0,0.459-0.185,0.825-0.557,1.103c-0.101,0.078-0.154,0.186-0.154,0.318c0,0.262,0.132,0.391,0.391,0.391
		c0.088,0,0.166-0.027,0.238-0.082c0.577-0.434,0.864-1.011,0.864-1.73c0-0.528-0.211-1.023-0.633-1.48
		c-0.423-0.458-0.634-0.873-0.634-1.244c0-0.396,0.146-0.73,0.437-1.008c0.079-0.078,0.119-0.174,0.119-0.284
		c0-0.261-0.13-0.391-0.391-0.391c-0.102,0-0.193,0.035-0.271,0.106c-0.45,0.426-0.676,0.952-0.676,1.576
		c0,0.561,0.211,1.072,0.633,1.533C1136.411,45.513,1136.622,45.91,1136.622,46.241L1136.622,46.241z M1139.418,46.241
		L1139.418,46.241c0,0.459-0.185,0.825-0.557,1.103c-0.102,0.078-0.154,0.186-0.154,0.318c0,0.262,0.131,0.391,0.391,0.391
		c0.087,0,0.167-0.027,0.238-0.082c0.577-0.434,0.864-1.011,0.864-1.73c0-0.528-0.211-1.023-0.634-1.48
		c-0.422-0.458-0.633-0.873-0.633-1.244c0-0.396,0.146-0.73,0.438-1.008c0.079-0.078,0.118-0.174,0.118-0.284
		c0-0.261-0.13-0.391-0.391-0.391c-0.103,0-0.193,0.035-0.272,0.106c-0.45,0.426-0.675,0.952-0.675,1.576
		c0,0.561,0.211,1.072,0.633,1.533C1139.207,45.513,1139.418,45.91,1139.418,46.241z"/>
	<path class="st12" d="M1325.525,59.759c0,1.148-0.928,2.075-2.078,2.075h-15.86c-1.15,0-2.078-0.927-2.078-2.075H1325.525
		L1325.525,59.759z M1321.2,54.929L1321.2,54.929c0,0,0.213-0.002,0.366-0.002c1.193,0,2.16-0.965,2.16-2.16
		c0-1.192-0.967-2.157-2.16-2.157h-0.366V54.929L1321.2,54.929z M1311.426,58.886L1311.426,58.886c-0.979,0-1.771-0.795-1.771-1.774
		V49.19h11.904c1.975,0,3.582,1.604,3.582,3.577c0,1.976-1.599,3.575-3.575,3.575h-0.366c0,0.209-0.003,0.653-0.003,0.77
		c0,0.979-0.795,1.774-1.775,1.774H1311.426L1311.426,58.886z M1312.83,46.241L1312.83,46.241c0,0.459-0.186,0.825-0.557,1.103
		c-0.102,0.078-0.154,0.186-0.154,0.318c0,0.262,0.131,0.391,0.391,0.391c0.087,0,0.166-0.027,0.238-0.082
		c0.576-0.434,0.865-1.011,0.865-1.73c0-0.528-0.212-1.023-0.634-1.48c-0.422-0.458-0.633-0.873-0.633-1.244
		c0-0.396,0.146-0.73,0.438-1.008c0.079-0.078,0.119-0.174,0.119-0.284c0-0.261-0.131-0.391-0.391-0.391
		c-0.102,0-0.194,0.035-0.273,0.106c-0.45,0.426-0.674,0.952-0.674,1.576c0,0.561,0.211,1.072,0.633,1.533
		C1312.619,45.513,1312.83,45.91,1312.83,46.241L1312.83,46.241z M1315.626,46.241L1315.626,46.241c0,0.459-0.185,0.825-0.557,1.103
		c-0.101,0.078-0.154,0.186-0.154,0.318c0,0.262,0.132,0.391,0.391,0.391c0.088,0,0.166-0.027,0.238-0.082
		c0.577-0.434,0.864-1.011,0.864-1.73c0-0.528-0.211-1.023-0.633-1.48c-0.423-0.458-0.634-0.873-0.634-1.244
		c0-0.396,0.146-0.73,0.437-1.008c0.079-0.078,0.119-0.174,0.119-0.284c0-0.261-0.13-0.391-0.391-0.391
		c-0.102,0-0.193,0.035-0.271,0.106c-0.45,0.426-0.676,0.952-0.676,1.576c0,0.561,0.211,1.072,0.633,1.533
		C1315.415,45.513,1315.626,45.91,1315.626,46.241L1315.626,46.241z M1318.422,46.241L1318.422,46.241
		c0,0.459-0.185,0.825-0.557,1.103c-0.102,0.078-0.154,0.186-0.154,0.318c0,0.262,0.131,0.391,0.391,0.391
		c0.087,0,0.167-0.027,0.238-0.082c0.577-0.434,0.864-1.011,0.864-1.73c0-0.528-0.211-1.023-0.634-1.48
		c-0.422-0.458-0.633-0.873-0.633-1.244c0-0.396,0.146-0.73,0.438-1.008c0.079-0.078,0.119-0.174,0.119-0.284
		c0-0.261-0.13-0.391-0.391-0.391c-0.103,0-0.193,0.035-0.272,0.106c-0.45,0.426-0.675,0.952-0.675,1.576
		c0,0.561,0.211,1.072,0.633,1.533C1318.211,45.513,1318.422,45.91,1318.422,46.241z"/>
	<path class="st12" d="M1504.528,59.759c0,1.148-0.928,2.075-2.078,2.075h-15.86c-1.15,0-2.078-0.927-2.078-2.075H1504.528
		L1504.528,59.759z M1500.204,54.929L1500.204,54.929c0,0,0.213-0.002,0.366-0.002c1.193,0,2.16-0.965,2.16-2.16
		c0-1.192-0.967-2.157-2.16-2.157h-0.366V54.929L1500.204,54.929z M1490.43,58.886L1490.43,58.886c-0.979,0-1.771-0.795-1.771-1.774
		V49.19h11.904c1.975,0,3.582,1.604,3.582,3.577c0,1.976-1.599,3.575-3.575,3.575h-0.366c0,0.209-0.003,0.653-0.003,0.77
		c0,0.979-0.795,1.774-1.775,1.774H1490.43L1490.43,58.886z M1491.834,46.241L1491.834,46.241c0,0.459-0.186,0.825-0.557,1.103
		c-0.102,0.078-0.154,0.186-0.154,0.318c0,0.262,0.131,0.391,0.391,0.391c0.087,0,0.166-0.027,0.238-0.082
		c0.576-0.434,0.865-1.011,0.865-1.73c0-0.528-0.212-1.023-0.634-1.48c-0.422-0.458-0.633-0.873-0.633-1.244
		c0-0.396,0.146-0.73,0.438-1.008c0.079-0.078,0.118-0.174,0.118-0.284c0-0.261-0.13-0.391-0.391-0.391
		c-0.102,0-0.194,0.035-0.273,0.106c-0.45,0.426-0.674,0.952-0.674,1.576c0,0.561,0.211,1.072,0.633,1.533
		C1491.622,45.513,1491.834,45.91,1491.834,46.241L1491.834,46.241z M1494.63,46.241L1494.63,46.241
		c0,0.459-0.185,0.825-0.557,1.103c-0.101,0.078-0.154,0.186-0.154,0.318c0,0.262,0.131,0.391,0.391,0.391
		c0.088,0,0.166-0.027,0.238-0.082c0.577-0.434,0.864-1.011,0.864-1.73c0-0.528-0.211-1.023-0.633-1.48
		c-0.423-0.458-0.634-0.873-0.634-1.244c0-0.396,0.146-0.73,0.437-1.008c0.079-0.078,0.118-0.174,0.118-0.284
		c0-0.261-0.13-0.391-0.391-0.391c-0.102,0-0.193,0.035-0.271,0.106c-0.45,0.426-0.676,0.952-0.676,1.576
		c0,0.561,0.211,1.072,0.633,1.533C1494.419,45.513,1494.63,45.91,1494.63,46.241L1494.63,46.241z M1497.425,46.241L1497.425,46.241
		c0,0.459-0.185,0.825-0.557,1.103c-0.102,0.078-0.154,0.186-0.154,0.318c0,0.262,0.131,0.391,0.391,0.391
		c0.087,0,0.167-0.027,0.238-0.082c0.577-0.434,0.864-1.011,0.864-1.73c0-0.528-0.211-1.023-0.634-1.48
		c-0.422-0.458-0.633-0.873-0.633-1.244c0-0.396,0.146-0.73,0.438-1.008c0.079-0.078,0.119-0.174,0.119-0.284
		c0-0.261-0.13-0.391-0.391-0.391c-0.103,0-0.193,0.035-0.272,0.106c-0.45,0.426-0.675,0.952-0.675,1.576
		c0,0.561,0.212,1.072,0.633,1.533C1497.215,45.513,1497.425,45.91,1497.425,46.241z"/>
	<path class="st12" d="M1683.532,59.759c0,1.148-0.928,2.075-2.078,2.075h-15.86c-1.15,0-2.078-0.927-2.078-2.075H1683.532
		L1683.532,59.759z M1679.208,54.929L1679.208,54.929c0,0,0.213-0.002,0.366-0.002c1.193,0,2.16-0.965,2.16-2.16
		c0-1.192-0.967-2.157-2.16-2.157h-0.366V54.929L1679.208,54.929z M1669.433,58.886L1669.433,58.886
		c-0.979,0-1.771-0.795-1.771-1.774V49.19h11.904c1.975,0,3.582,1.604,3.582,3.577c0,1.976-1.599,3.575-3.575,3.575h-0.366
		c0,0.209-0.002,0.653-0.002,0.77c0,0.979-0.795,1.774-1.775,1.774H1669.433L1669.433,58.886z M1670.837,46.241L1670.837,46.241
		c0,0.459-0.186,0.825-0.557,1.103c-0.102,0.078-0.154,0.186-0.154,0.318c0,0.262,0.131,0.391,0.391,0.391
		c0.087,0,0.166-0.027,0.238-0.082c0.576-0.434,0.865-1.011,0.865-1.73c0-0.528-0.212-1.023-0.634-1.48
		c-0.422-0.458-0.633-0.873-0.633-1.244c0-0.396,0.146-0.73,0.438-1.008c0.079-0.078,0.119-0.174,0.119-0.284
		c0-0.261-0.131-0.391-0.391-0.391c-0.102,0-0.194,0.035-0.273,0.106c-0.45,0.426-0.674,0.952-0.674,1.576
		c0,0.561,0.211,1.072,0.633,1.533C1670.626,45.513,1670.837,45.91,1670.837,46.241L1670.837,46.241z M1673.633,46.241
		L1673.633,46.241c0,0.459-0.185,0.825-0.557,1.103c-0.101,0.078-0.154,0.186-0.154,0.318c0,0.262,0.132,0.391,0.391,0.391
		c0.088,0,0.166-0.027,0.237-0.082c0.577-0.434,0.864-1.011,0.864-1.73c0-0.528-0.211-1.023-0.633-1.48
		c-0.423-0.458-0.634-0.873-0.634-1.244c0-0.396,0.146-0.73,0.437-1.008c0.079-0.078,0.119-0.174,0.119-0.284
		c0-0.261-0.13-0.391-0.391-0.391c-0.102,0-0.193,0.035-0.271,0.106c-0.45,0.426-0.676,0.952-0.676,1.576
		c0,0.561,0.211,1.072,0.633,1.533C1673.422,45.513,1673.633,45.91,1673.633,46.241L1673.633,46.241z M1676.429,46.241
		L1676.429,46.241c0,0.459-0.185,0.825-0.557,1.103c-0.102,0.078-0.154,0.186-0.154,0.318c0,0.262,0.131,0.391,0.391,0.391
		c0.087,0,0.167-0.027,0.237-0.082c0.577-0.434,0.864-1.011,0.864-1.73c0-0.528-0.211-1.023-0.634-1.48
		c-0.422-0.458-0.633-0.873-0.633-1.244c0-0.396,0.147-0.73,0.438-1.008c0.079-0.078,0.119-0.174,0.119-0.284
		c0-0.261-0.13-0.391-0.391-0.391c-0.103,0-0.193,0.035-0.272,0.106c-0.45,0.426-0.675,0.952-0.675,1.576
		c0,0.561,0.211,1.072,0.633,1.533C1676.218,45.513,1676.429,45.91,1676.429,46.241z"/>
	<path class="st12" d="M1862.535,59.759c0,1.148-0.928,2.075-2.078,2.075h-15.86c-1.15,0-2.078-0.927-2.078-2.075H1862.535
		L1862.535,59.759z M1858.211,54.929L1858.211,54.929c0,0,0.213-0.002,0.366-0.002c1.193,0,2.16-0.965,2.16-2.16
		c0-1.192-0.967-2.157-2.16-2.157h-0.366V54.929L1858.211,54.929z M1848.437,58.886L1848.437,58.886
		c-0.979,0-1.771-0.795-1.771-1.774V49.19h11.904c1.975,0,3.582,1.604,3.582,3.577c0,1.976-1.599,3.575-3.575,3.575h-0.366
		c0,0.209-0.003,0.653-0.003,0.77c0,0.979-0.795,1.774-1.775,1.774H1848.437L1848.437,58.886z M1849.841,46.241L1849.841,46.241
		c0,0.459-0.186,0.825-0.557,1.103c-0.102,0.078-0.154,0.186-0.154,0.318c0,0.262,0.131,0.391,0.391,0.391
		c0.087,0,0.166-0.027,0.238-0.082c0.576-0.434,0.865-1.011,0.865-1.73c0-0.528-0.212-1.023-0.634-1.48
		c-0.422-0.458-0.633-0.873-0.633-1.244c0-0.396,0.146-0.73,0.438-1.008c0.079-0.078,0.119-0.174,0.119-0.284
		c0-0.261-0.131-0.391-0.391-0.391c-0.102,0-0.194,0.035-0.273,0.106c-0.45,0.426-0.674,0.952-0.674,1.576
		c0,0.561,0.211,1.072,0.633,1.533C1849.63,45.513,1849.841,45.91,1849.841,46.241L1849.841,46.241z M1852.637,46.241
		L1852.637,46.241c0,0.459-0.185,0.825-0.557,1.103c-0.101,0.078-0.154,0.186-0.154,0.318c0,0.262,0.131,0.391,0.391,0.391
		c0.088,0,0.166-0.027,0.238-0.082c0.577-0.434,0.864-1.011,0.864-1.73c0-0.528-0.211-1.023-0.633-1.48
		c-0.423-0.458-0.634-0.873-0.634-1.244c0-0.396,0.146-0.73,0.438-1.008c0.079-0.078,0.118-0.174,0.118-0.284
		c0-0.261-0.13-0.391-0.391-0.391c-0.102,0-0.193,0.035-0.271,0.106c-0.45,0.426-0.676,0.952-0.676,1.576
		c0,0.561,0.211,1.072,0.633,1.533C1852.426,45.513,1852.637,45.91,1852.637,46.241L1852.637,46.241z M1855.433,46.241
		L1855.433,46.241c0,0.459-0.185,0.825-0.557,1.103c-0.102,0.078-0.154,0.186-0.154,0.318c0,0.262,0.131,0.391,0.391,0.391
		c0.087,0,0.167-0.027,0.238-0.082c0.577-0.434,0.864-1.011,0.864-1.73c0-0.528-0.211-1.023-0.634-1.48
		c-0.422-0.458-0.633-0.873-0.633-1.244c0-0.396,0.147-0.73,0.438-1.008c0.079-0.078,0.119-0.174,0.119-0.284
		c0-0.261-0.13-0.391-0.391-0.391c-0.103,0-0.193,0.035-0.272,0.106c-0.45,0.426-0.675,0.952-0.675,1.576
		c0,0.561,0.212,1.072,0.633,1.533C1855.222,45.513,1855.433,45.91,1855.433,46.241z"/>
	<path class="st12" d="M2041.54,59.759c0,1.148-0.928,2.075-2.078,2.075h-15.86c-1.15,0-2.078-0.927-2.078-2.075H2041.54
		L2041.54,59.759z M2037.216,54.929L2037.216,54.929c0,0,0.213-0.002,0.366-0.002c1.193,0,2.16-0.965,2.16-2.16
		c0-1.192-0.967-2.157-2.16-2.157h-0.366V54.929L2037.216,54.929z M2027.441,58.886L2027.441,58.886
		c-0.979,0-1.771-0.795-1.771-1.774V49.19h11.904c1.975,0,3.582,1.604,3.582,3.577c0,1.976-1.599,3.575-3.575,3.575h-0.366
		c0,0.209-0.003,0.653-0.003,0.77c0,0.979-0.795,1.774-1.775,1.774H2027.441L2027.441,58.886z M2028.846,46.241L2028.846,46.241
		c0,0.459-0.186,0.825-0.557,1.103c-0.102,0.078-0.154,0.186-0.154,0.318c0,0.262,0.13,0.391,0.391,0.391
		c0.087,0,0.166-0.027,0.237-0.082c0.576-0.434,0.865-1.011,0.865-1.73c0-0.528-0.212-1.023-0.634-1.48
		c-0.422-0.458-0.633-0.873-0.633-1.244c0-0.396,0.146-0.73,0.438-1.008c0.079-0.078,0.119-0.174,0.119-0.284
		c0-0.261-0.131-0.391-0.391-0.391c-0.102,0-0.194,0.035-0.273,0.106c-0.45,0.426-0.674,0.952-0.674,1.576
		c0,0.561,0.211,1.072,0.633,1.533C2028.634,45.513,2028.846,45.91,2028.846,46.241L2028.846,46.241z M2031.641,46.241
		L2031.641,46.241c0,0.459-0.185,0.825-0.557,1.103c-0.101,0.078-0.154,0.186-0.154,0.318c0,0.262,0.131,0.391,0.391,0.391
		c0.088,0,0.166-0.027,0.238-0.082c0.577-0.434,0.864-1.011,0.864-1.73c0-0.528-0.211-1.023-0.633-1.48
		c-0.423-0.458-0.634-0.873-0.634-1.244c0-0.396,0.146-0.73,0.438-1.008c0.079-0.078,0.118-0.174,0.118-0.284
		c0-0.261-0.13-0.391-0.391-0.391c-0.102,0-0.193,0.035-0.271,0.106c-0.45,0.426-0.676,0.952-0.676,1.576
		c0,0.561,0.211,1.072,0.633,1.533C2031.43,45.513,2031.641,45.91,2031.641,46.241L2031.641,46.241z M2034.437,46.241
		L2034.437,46.241c0,0.459-0.185,0.825-0.557,1.103c-0.102,0.078-0.154,0.186-0.154,0.318c0,0.262,0.131,0.391,0.391,0.391
		c0.087,0,0.167-0.027,0.238-0.082c0.577-0.434,0.864-1.011,0.864-1.73c0-0.528-0.211-1.023-0.634-1.48
		c-0.422-0.458-0.633-0.873-0.633-1.244c0-0.396,0.146-0.73,0.438-1.008c0.079-0.078,0.118-0.174,0.118-0.284
		c0-0.261-0.13-0.391-0.391-0.391c-0.103,0-0.193,0.035-0.272,0.106c-0.45,0.426-0.675,0.952-0.675,1.576
		c0,0.561,0.212,1.072,0.633,1.533C2034.226,45.513,2034.437,45.91,2034.437,46.241z"/>
</g>
<g id="Window">
	<line class="st13" x1="552.002" y1="3.7" x2="647.002" y2="3.7"/>
	<line class="st13" x1="245.4" y1="4" x2="300.4" y2="4"/>
	<line class="st13" x1="25" y1="4" x2="91" y2="4"/>
	<line class="st13" x1="25" y1="332" x2="91" y2="332"/>
	<line class="st13" x1="731.005" y1="3.7" x2="826.005" y2="3.7"/>
	<line class="st13" x1="910.009" y1="3.7" x2="1005.009" y2="3.7"/>
	<line class="st13" x1="1089.012" y1="3.7" x2="1184.012" y2="3.7"/>
	<line class="st13" x1="1268.016" y1="3.7" x2="1363.016" y2="3.7"/>
	<line class="st13" x1="1447.02" y1="3.7" x2="1542.02" y2="3.7"/>
	<line class="st13" x1="1626.023" y1="3.7" x2="1721.023" y2="3.7"/>
	<line class="st13" x1="1805.027" y1="3.7" x2="1900.027" y2="3.7"/>
	<line class="st13" x1="1984.031" y1="3.7" x2="2079.031" y2="3.7"/>
	<line class="st13" x1="552.002" y1="332" x2="647.002" y2="332"/>
	<line class="st13" x1="731.005" y1="332" x2="826.005" y2="332"/>
	<line class="st13" x1="910.009" y1="332" x2="1005.009" y2="332"/>
	<line class="st13" x1="1089.012" y1="332" x2="1184.012" y2="332"/>
	<line class="st13" x1="1268.016" y1="332" x2="1363.016" y2="332"/>
	<line class="st13" x1="1447.02" y1="332" x2="1542.02" y2="332"/>
	<line class="st13" x1="1626.023" y1="332" x2="1721.023" y2="332"/>
	<line class="st13" x1="1805.027" y1="332" x2="1900.027" y2="332"/>
	<line class="st13" x1="1984.031" y1="332" x2="2079.031" y2="332"/>
</g>
<g id="Icons">
	<path id="Exit" class="st12" d="M63.232,22.862v19.712l8.73,5.427V18.308L63.232,22.862L63.232,22.862z M52.847,22.656
		L52.847,22.656c1.282-0.031,2.302-1.097,2.271-2.381c-0.032-1.288-1.101-2.304-2.384-2.274c-1.283,0.031-2.301,1.097-2.27,2.385
		C50.496,21.671,51.563,22.687,52.847,22.656L52.847,22.656z M46.453,26.804L46.453,26.804l-2.235,5.53
		c-0.406,0.922-0.14,1.841,0.948,2.185l0.586,0.129l2.66-6.449h0.003c0.237-0.496,0.614-0.908,1.068-1.232l-0.495,6.886
		l-0.007,0.003l-1.016,7.028l-3.026,4.293c0,0-0.374,0.587-0.004,1.303c0.254,0.49,1.285,1.222,1.285,1.222l4.686-6.262l1.108-6.596
		c0.063-0.004,0.127-0.008,0.195-0.014l-0.01,0.009l3.272,11.575c0,0,0.123,0.728,0.508,1.071c0.435,0.397,1.082,0.408,1.082,0.408
		l1.404-0.211l-3.576-14.272c0-1.499,0.009-4.972,0.009-6.506c0-2.055-0.54-3.172-3.09-3.39
		C51.205,23.469,48.084,22.866,46.453,26.804L46.453,26.804z M59.699,33.234L59.699,33.234l0.147-0.296L55.85,30.18l-0.103,2.58
		l1.995,1.184C58.579,34.328,59.214,34.214,59.699,33.234z"/>
	<path id="Exit_1_" class="st12" d="M63.232,292.861v19.712l8.73,5.427v-29.692L63.232,292.861L63.232,292.861z M52.847,292.656
		L52.847,292.656c1.282-0.031,2.302-1.097,2.271-2.381c-0.032-1.288-1.101-2.304-2.384-2.274c-1.283,0.031-2.301,1.097-2.27,2.385
		C50.496,291.67,51.563,292.686,52.847,292.656L52.847,292.656z M46.453,296.804L46.453,296.804l-2.235,5.53
		c-0.406,0.922-0.14,1.841,0.948,2.185l0.586,0.129l2.66-6.449h0.003c0.237-0.496,0.614-0.908,1.068-1.232l-0.495,6.886
		l-0.007,0.003l-1.016,7.028l-3.026,4.293c0,0-0.374,0.587-0.004,1.303c0.254,0.49,1.285,1.222,1.285,1.222l4.686-6.262l1.108-6.596
		c0.063-0.004,0.127-0.008,0.195-0.014l-0.01,0.009l3.272,11.575c0,0,0.123,0.728,0.508,1.071c0.435,0.397,1.082,0.408,1.082,0.408
		l1.404-0.211l-3.576-14.272c0-1.499,0.009-4.972,0.009-6.506c0-2.055-0.54-3.172-3.09-3.39
		C51.205,293.468,48.084,292.866,46.453,296.804L46.453,296.804z M59.699,303.234L59.699,303.234l0.147-0.296l-3.995-2.758
		l-0.103,2.58l1.995,1.184C58.579,304.328,59.214,304.214,59.699,303.234z"/>
	<path id="Exit_2_" class="st12" d="M2393.27,157.861v19.712L2402,183v-29.692L2393.27,157.861L2393.27,157.861z M2382.885,157.656
		L2382.885,157.656c1.282-0.031,2.302-1.097,2.271-2.381c-0.032-1.288-1.101-2.304-2.384-2.274c-1.283,0.031-2.301,1.097-2.27,2.385
		C2380.534,156.67,2381.601,157.686,2382.885,157.656L2382.885,157.656z M2376.491,161.804L2376.491,161.804l-2.235,5.53
		c-0.406,0.922-0.139,1.841,0.948,2.185l0.586,0.129l2.66-6.449h0.002c0.237-0.496,0.614-0.908,1.068-1.232l-0.495,6.886
		l-0.007,0.003l-1.016,7.028l-3.026,4.293c0,0-0.374,0.587-0.004,1.303c0.254,0.49,1.284,1.222,1.284,1.222l4.686-6.262l1.108-6.596
		c0.063-0.004,0.127-0.008,0.195-0.014l-0.01,0.009l3.272,11.575c0,0,0.124,0.728,0.508,1.071c0.435,0.397,1.082,0.408,1.082,0.408
		l1.404-0.211l-3.576-14.272c0-1.499,0.009-4.972,0.009-6.506c0-2.055-0.54-3.172-3.09-3.39
		C2381.243,158.468,2378.122,157.866,2376.491,161.804L2376.491,161.804z M2389.737,168.234L2389.737,168.234l0.147-0.296
		l-3.995-2.758l-0.103,2.58l1.995,1.184C2388.617,169.328,2389.252,169.214,2389.737,168.234z"/>
	<path id="WC" class="st12" d="M2156.517,87.096h3.478l1.647,9.844h0.037l1.721-9.844h4.32l1.794,9.844h0.036l1.666-9.844h3.313
		l-2.856,12.809h-4.375l-1.812-9.844h-0.037l-1.684,9.844h-4.411L2156.517,87.096L2156.517,87.096z M2186.517,99.611
		c-0.683,0.183-1.3,0.314-1.849,0.393c-0.549,0.079-1.135,0.119-1.757,0.119c-1.306,0-2.431-0.168-3.377-0.503
		c-0.946-0.335-1.723-0.802-2.334-1.4c-0.61-0.598-1.064-1.296-1.364-2.095c-0.299-0.799-0.448-1.668-0.448-2.607
		c0-1.135,0.201-2.132,0.604-2.992c0.403-0.86,0.921-1.558,1.556-2.095c0.622-0.512,1.376-0.9,2.26-1.162
		c0.885-0.262,1.852-0.393,2.901-0.393c0.354,0,0.848,0.037,1.483,0.11c0.635,0.073,1.403,0.256,2.306,0.549l-0.274,2.763
		c-0.391-0.207-0.876-0.409-1.455-0.604c-0.58-0.195-1.199-0.293-1.858-0.293c-0.683,0-1.26,0.113-1.729,0.338
		c-0.47,0.226-0.845,0.479-1.126,0.759c-0.329,0.329-0.604,0.756-0.824,1.281c-0.219,0.525-0.329,1.116-0.329,1.775
		c0,0.622,0.104,1.189,0.311,1.702c0.207,0.512,0.488,0.933,0.842,1.262c0.366,0.354,0.827,0.622,1.382,0.805
		c0.555,0.183,1.132,0.274,1.73,0.274c0.476,0,0.995-0.058,1.556-0.174c0.561-0.116,1.104-0.277,1.629-0.485L2186.517,99.611z"/>
	<path id="WC_1_" class="st12" d="M2265.5,87.096h3.478l1.647,9.844h0.037l1.721-9.844h4.32l1.793,9.844h0.037l1.666-9.844h3.313
		l-2.855,12.809h-4.375l-1.812-9.844h-0.036l-1.684,9.844h-4.411L2265.5,87.096L2265.5,87.096z M2295.5,99.611
		c-0.683,0.183-1.3,0.314-1.848,0.393c-0.549,0.079-1.135,0.119-1.757,0.119c-1.306,0-2.431-0.168-3.377-0.503
		c-0.946-0.335-1.724-0.802-2.334-1.4c-0.61-0.598-1.065-1.296-1.364-2.095c-0.299-0.799-0.448-1.668-0.448-2.607
		c0-1.135,0.201-2.132,0.604-2.992c0.403-0.86,0.921-1.558,1.556-2.095c0.623-0.512,1.376-0.9,2.261-1.162
		c0.885-0.262,1.852-0.393,2.901-0.393c0.354,0,0.848,0.037,1.482,0.11c0.635,0.073,1.403,0.256,2.306,0.549l-0.274,2.763
		c-0.391-0.207-0.875-0.409-1.455-0.604c-0.58-0.195-1.199-0.293-1.858-0.293c-0.683,0-1.26,0.113-1.729,0.338
		c-0.47,0.226-0.845,0.479-1.126,0.759c-0.329,0.329-0.604,0.756-0.824,1.281c-0.219,0.525-0.329,1.116-0.329,1.775
		c0,0.622,0.104,1.189,0.311,1.702c0.208,0.512,0.488,0.933,0.842,1.262c0.366,0.354,0.827,0.622,1.382,0.805
		c0.555,0.183,1.132,0.274,1.73,0.274c0.476,0,0.995-0.058,1.556-0.174c0.561-0.116,1.104-0.277,1.629-0.485L2295.5,99.611z"/>
	<path id="ShowerNew" class="st12" d="M2382.273,37.75h-24.545c-1.506,0-2.727,1.221-2.727,2.727v2.727v2.727V67.75h2.727V45.932
		h11.142c-0.151,0.427-0.233,0.885-0.233,1.364v4.091c0,1.506,1.221,2.727,2.727,2.727h10.909c1.506,0,2.727-1.221,2.727-2.727
		v-5.455v-1.364v-1.364v-2.727C2385,38.971,2383.779,37.75,2382.273,37.75z M2382.273,51.386h-10.909v-4.091
		c0-0.753,0.611-1.364,1.364-1.364h9.545V51.386z M2382.273,43.204h-9.545h-15v-2.727h24.545V43.204z M2380.909,59.568
		c0.753,0,1.364-0.611,1.364-1.364s-0.611-1.364-1.364-1.364c-0.753,0-1.364,0.611-1.364,1.364S2380.156,59.568,2380.909,59.568z
		 M2382.273,66.386c0,0.753-0.611,1.364-1.364,1.364c-0.753,0-1.364-0.61-1.364-1.364s0.611-1.364,1.364-1.364
		C2381.662,65.023,2382.273,65.633,2382.273,66.386z M2376.818,63.659c0.753,0,1.364-0.611,1.364-1.364s-0.611-1.364-1.364-1.364
		s-1.364,0.611-1.364,1.364S2376.065,63.659,2376.818,63.659z M2374.091,58.204c0,0.753-0.61,1.364-1.364,1.364
		s-1.364-0.611-1.364-1.364s0.611-1.364,1.364-1.364S2374.091,57.451,2374.091,58.204z M2372.727,67.75
		c0.753,0,1.364-0.61,1.364-1.364s-0.61-1.364-1.364-1.364s-1.364,0.611-1.364,1.364S2371.974,67.75,2372.727,67.75z"/>
	<path id="Steward" class="st12" d="M271.048,77.517c-0.907-0.445-3.205-0.862-5.354-1.479c0.007-0.007-1.169-0.366-1.169-0.366
		c-0.231-0.079-0.457-0.162-0.674-0.248c-0.296-0.118-0.524-0.218-0.74-0.322c-0.134-0.066-0.222-0.112-0.308-0.157
		c-0.147-0.08-0.23-0.129-0.311-0.177c-0.13-0.08-0.22-0.139-0.305-0.201c-0.081-0.058-0.156-0.117-0.227-0.177
		c-0.107-0.091-0.158-0.14-0.207-0.189c-0.103-0.106-0.152-0.163-0.198-0.221c-0.072-0.093-0.117-0.162-0.157-0.231
		c-0.054-0.102-0.08-0.157-0.102-0.212c-0.043-0.123-0.058-0.176-0.069-0.23c-0.028-0.145-0.036-0.222-0.036-0.3v-1.358
		c1.369-1.088,2.372-2.762,2.758-4.709c0.727,0.009,1.298-1.176,1.353-2.64c0.054-1.463-0.428-2.649-1.078-2.649
		c-0.033,0-0.065,0.005-0.097,0.011v-0.957h0.229l0.591-3.293c0-1.562-0.897-2.166-3.192-2.718
		c-2.296-0.552-4.749-1.117-8.009-1.429c-3.26-0.312-3.69-0.462-3.69,2.261l0.576,5.179h0.257v0.957
		c-0.032-0.006-0.064-0.011-0.097-0.011c-0.651,0-1.132,1.186-1.078,2.649c0.055,1.464,0.626,2.649,1.277,2.649
		c0.462,1.938,1.465,3.614,2.834,4.7v1.357c0,0.079-0.008,0.155-0.021,0.232c-0.026,0.122-0.041,0.175-0.058,0.227
		c-0.047,0.126-0.073,0.18-0.101,0.232c-0.067,0.121-0.111,0.189-0.161,0.256c-0.071,0.088-0.118,0.142-0.168,0.196
		c-0.103,0.103-0.152,0.148-0.204,0.193c-0.125,0.106-0.194,0.16-0.266,0.211c-0.104,0.076-0.191,0.133-0.281,0.189
		c-0.129,0.078-0.204,0.122-0.282,0.164c-0.026,0.015-0.052,0.029-0.079,0.043c-0.078,0.042-0.156,0.082-0.238,0.122
		c-0.279,0.135-0.501,0.233-0.733,0.325c-0.028,0.011-0.057,0.023-0.084,0.034c-0.05,0.019-0.1,0.039-0.15,0.058l-1.678,0.551
		c-2.149,0.618-4.447,1.036-5.354,1.48c-0.6,0.293-1.11,0.721-1.464,1.356c0.001,0.001,30,0.002,30,0.002
		C272.147,78.243,271.644,77.81,271.048,77.517L271.048,77.517z M253.478,58.567c-0.695,0-1.259-0.751-1.259-1.677
		c0-0.927,0.564-1.678,1.259-1.678c0.695,0,1.259,0.751,1.259,1.678C254.736,57.816,254.173,58.567,253.478,58.567L253.478,58.567z"
		/>
	<path id="RoomService" class="st12" d="M441.648,96.922c0.06-0.48,0.105-0.96,0.105-1.455c0-0.495-0.045-0.99-0.105-1.5
		l3.165-2.445c0.285-0.225,0.36-0.63,0.18-0.96l-3-5.19c-0.18-0.33-0.585-0.465-0.915-0.33l-3.735,1.5
		c-0.78-0.585-1.59-1.095-2.535-1.47l-0.555-3.975c-0.06-0.36-0.375-0.63-0.75-0.63h-6c-0.375,0-0.69,0.27-0.75,0.63l-0.555,3.975
		c-0.945,0.375-1.755,0.885-2.535,1.47l-3.735-1.5c-0.33-0.135-0.735,0-0.915,0.33l-3,5.19c-0.195,0.33-0.105,0.735,0.18,0.96
		l3.165,2.445c-0.06,0.51-0.105,1.005-0.105,1.5c0,0.495,0.045,0.975,0.105,1.455l-3.165,2.49c-0.285,0.225-0.375,0.63-0.18,0.96
		l3,5.19c0.18,0.33,0.585,0.45,0.915,0.33l3.735-1.515c0.78,0.6,1.59,1.11,2.535,1.485l0.555,3.975c0.06,0.36,0.375,0.63,0.75,0.63
		h6c0.375,0,0.69-0.27,0.75-0.63l0.555-3.975c0.945-0.39,1.755-0.885,2.535-1.485l3.735,1.515c0.33,0.12,0.735,0,0.915-0.33l3-5.19
		c0.18-0.33,0.105-0.735-0.18-0.96L441.648,96.922z M430.503,100.717c-2.899,0-5.25-2.351-5.25-5.25s2.351-5.25,5.25-5.25
		s5.25,2.351,5.25,5.25S433.403,100.717,430.503,100.717z"/>
	<path id="HotWater" class="st12" d="M311.143,307.714c0,1.579-1.279,2.857-2.857,2.857c-1.579,0-2.857-1.279-2.857-2.857
		c0-1.9,2.857-5,2.857-5S311.143,305.814,311.143,307.714z M284,282h11.429v7.143h5.714v-2.857L298.286,287v-3.571l2.857,0.714H304
		l2.857-0.714V287L304,286.285v2.857h4.286c1.579,0,2.857,1.279,2.857,2.857v5.714c0.789,0,1.429,0.64,1.429,1.429
		s-0.64,1.429-1.429,1.429h-5.714c-0.789,0-1.429-0.64-1.429-1.429s0.64-1.429,1.429-1.429v-2.857h-10V312H284V282z"/>
</g>
</svg>
